<svg width="313" height="351" viewBox="0 0 313 351" fill="none" xmlns="http://www.w3.org/2000/svg">
<path d="M162.698 14.6833L120.625 33.0769C117.568 34.4134 115.579 37.4189 115.545 40.7554C115.405 54.0767 107.437 66.1277 95.2471 71.4572C83.0567 76.7866 68.7996 74.4512 58.9259 65.5077C56.4529 63.268 52.8966 62.6869 49.8395 64.0234L7.76719 82.4168C3.47763 84.2921 1.52037 89.2901 3.3957 93.5797L112.511 343.165C114.386 347.455 119.384 349.412 123.674 347.537L165.746 329.143C168.803 327.807 170.792 324.802 170.827 321.465C170.966 308.144 178.934 296.092 191.124 290.763C203.314 285.433 217.572 287.769 227.445 296.712C229.918 298.953 233.475 299.533 236.532 298.197L278.605 279.803C282.894 277.928 284.852 272.93 282.976 268.64L173.861 19.0548C171.986 14.7652 166.988 12.808 162.698 14.6833ZM22.3258 94.5555L51.9208 81.617C66.3786 92.048 85.4778 94.2316 102.038 86.9915C118.6 79.7512 129.967 64.2484 132.127 46.5521L161.722 33.6134L183.144 82.6129L43.7476 143.555L22.3258 94.5555ZM264.047 267.664L234.451 280.603C219.994 270.172 200.894 267.989 184.333 275.229C167.773 282.469 156.406 297.972 154.245 315.668L124.649 328.607L50.539 159.089L189.937 98.1469L264.047 267.664Z" fill="#F1F1F1"/>
<path d="M264.047 267.664L234.451 280.603C219.994 270.172 200.894 267.989 184.333 275.229C167.773 282.469 156.406 297.972 154.245 315.668L124.649 328.607L50.539 159.089L189.937 98.1469L264.047 267.664Z" fill="#F1F1F1"/>
<path d="M22.3258 94.5555L51.9208 81.617C66.3786 92.048 85.4778 94.2316 102.038 86.9915C118.6 79.7512 129.967 64.2484 132.127 46.5521L161.722 33.6134L183.144 82.6129L43.7476 143.555L22.3258 94.5555Z" fill="#F1F1F1"/>
<path d="M162.698 14.6833L120.625 33.0769C117.568 34.4134 115.579 37.4189 115.545 40.7554C115.405 54.0767 107.437 66.1277 95.2471 71.4572C83.0567 76.7866 68.7996 74.4512 58.9259 65.5077C56.4529 63.268 52.8966 62.6869 49.8395 64.0234L7.76719 82.4168C3.47763 84.2921 1.52037 89.2901 3.3957 93.5797L112.511 343.165C114.386 347.455 119.384 349.412 123.674 347.537L165.746 329.143C168.803 327.807 170.792 324.802 170.827 321.465C170.966 308.144 178.934 296.092 191.124 290.763C203.314 285.433 217.572 287.769 227.445 296.712C229.918 298.953 233.475 299.533 236.532 298.197L278.605 279.803C282.894 277.928 284.852 272.93 282.976 268.64L173.861 19.0548C171.986 14.7652 166.988 12.808 162.698 14.6833ZM22.3258 94.5555L51.9208 81.617C66.3786 92.048 85.4778 94.2316 102.038 86.9915C118.6 79.7512 129.967 64.2484 132.127 46.5521L161.722 33.6134L183.144 82.6129L43.7476 143.555L22.3258 94.5555ZM264.047 267.664L234.451 280.603C219.994 270.172 200.894 267.989 184.333 275.229C167.773 282.469 156.406 297.972 154.245 315.668L124.649 328.607L50.539 159.089L189.937 98.1469L264.047 267.664Z" fill="#E4E2E2"/>
<path d="M304.528 5.71328L258.634 4.23586C255.299 4.12851 252.211 5.98718 250.746 8.98484C244.894 20.9526 232.52 28.4086 219.222 27.9805C205.924 27.5524 194.056 19.3154 188.985 6.99606C187.715 3.91091 184.754 1.85751 181.419 1.75015L135.525 0.272751C130.846 0.12212 126.931 3.79348 126.78 8.47264L118.016 280.727C117.865 285.406 121.536 289.321 126.215 289.472L172.109 290.95C175.444 291.057 178.531 289.198 179.997 286.201C185.849 274.233 198.223 266.776 211.521 267.204C224.818 267.632 236.687 275.869 241.758 288.189C243.027 291.274 245.989 293.328 249.324 293.435L295.218 294.913C299.897 295.063 303.813 291.392 303.963 286.713L312.728 14.4587C312.878 9.77951 309.207 5.86391 304.528 5.71328ZM143.453 17.4908L175.736 18.53C184.306 34.1629 200.612 44.3442 218.676 44.9258C236.742 45.5073 253.669 36.3959 263.226 21.3465L295.51 22.3858L293.789 75.8357L141.732 70.9407L143.453 17.4908ZM287.292 277.695L255.008 276.655C246.438 261.022 230.132 250.841 212.067 250.26C194.002 249.678 177.075 258.79 167.517 273.839L135.234 272.8L141.186 87.886L293.245 92.781L287.292 277.695Z" fill="#FFF8DB"/>
<path d="M287.292 277.695L255.008 276.655C246.438 261.022 230.132 250.841 212.067 250.26C194.002 249.678 177.075 258.79 167.517 273.839L135.234 272.8L141.186 87.886L293.245 92.781L287.292 277.695Z" fill="#FFF8DB"/>
<path d="M143.453 17.4908L175.736 18.53C184.306 34.1629 200.612 44.3442 218.676 44.9258C236.742 45.5073 253.669 36.3959 263.226 21.3465L295.51 22.3858L293.789 75.8357L141.732 70.9407L143.453 17.4908Z" fill="#FFF8DB"/>
<path d="M304.528 5.71328L258.634 4.23586C255.299 4.12851 252.211 5.98718 250.746 8.98484C244.894 20.9526 232.52 28.4086 219.222 27.9805C205.924 27.5524 194.056 19.3154 188.985 6.99606C187.715 3.91091 184.754 1.85751 181.419 1.75015L135.525 0.272751C130.846 0.12212 126.931 3.79348 126.78 8.47264L118.016 280.727C117.865 285.406 121.536 289.321 126.215 289.472L172.109 290.95C175.444 291.057 178.531 289.198 179.997 286.201C185.849 274.233 198.223 266.776 211.521 267.204C224.818 267.632 236.687 275.869 241.758 288.189C243.027 291.274 245.989 293.328 249.324 293.435L295.218 294.913C299.897 295.063 303.813 291.392 303.963 286.713L312.728 14.4587C312.878 9.77951 309.207 5.86391 304.528 5.71328ZM143.453 17.4908L175.736 18.53C184.306 34.1629 200.612 44.3442 218.676 44.9258C236.742 45.5073 253.669 36.3959 263.226 21.3465L295.51 22.3858L293.789 75.8357L141.732 70.9407L143.453 17.4908ZM287.292 277.695L255.008 276.655C246.438 261.022 230.132 250.841 212.067 250.26C194.002 249.678 177.075 258.79 167.517 273.839L135.234 272.8L141.186 87.886L293.245 92.781L287.292 277.695Z" fill="#F6EEC3"/>
</svg>
