<svg xmlns="http://www.w3.org/2000/svg" width="18" height="18" fill="none" viewBox="0 0 18 18"><g clip-path="url(#a)"><path fill="#d3d3d5" fill-rule="evenodd" d="M9 18c6.77 0 9-4.03 9-9s-2.23-9-9-9-9 4.03-9 9 2.23 9 9 9M7.836 6.564a.9.9 0 0 0-1.272 1.272L7.727 9l-1.163 1.164a.9.9 0 0 0 1.272 1.272L9 10.273l1.164 1.163a.9.9 0 0 0 1.272-1.272L10.273 9l1.163-1.164a.9.9 0 0 0-1.272-1.272L9 7.727z" clip-rule="evenodd"/></g><defs><clipPath id="a"><path fill="#fff" d="M0 0h18v18H0z"/></clipPath></defs></svg>