<svg xmlns="http://www.w3.org/2000/svg" width="22" height="22" fill="none" viewBox="0 0 22 22"><g clip-path="url(#a)"><g clip-path="url(#b)"><path fill="#444" d="M11.042 2.8c.107.129.535.656.644.786 1.947 2.336 3.868 2.833 8.576.949 1.1-.44 2.26.579 1.488 1.7-4.951 7.194-7.23 8.45-9.89 6.437l-.387-.3c-1.561-1.214-3.273-.774-5.802 1.263L8.234 20.5l-1.585.513L0 4.158l2.76-.99C6.903.16 8.953.296 11.041 2.8m-.64 1.856c-.118-.142-.545-.668-.644-.786-1.506-1.807-2.576-1.867-6.11.718l-.098.071-1.363.49 2.763 7.003c3.395-2.828 5.3-2.846 7.548-1.1l.371.288c1.507 1.14 2.82.56 6.577-4.725-4.446 1.477-6.861.661-9.045-1.96"/></g></g><defs><clipPath id="a"><path fill="#fff" d="M0 0h22v22H0z"/></clipPath><clipPath id="b"><path fill="#fff" d="M0 .917h22v20.167H0z"/></clipPath></defs></svg>