<svg xmlns="http://www.w3.org/2000/svg" width="22" height="22" fill="none" viewBox="0 0 22 22"><g clip-path="url(#a)"><path fill="#444" d="M9.514 12.241c.116.085.327.202.644.336.492.21.683.263 1.08.338l.075.015c.38.074.683.18 1.17.429.746.38 1.266.979 1.582 1.718.295.692.379 1.391.351 1.977-.002.057-.002.057-.002.015 0 .781-.743 1.517-1.517 1.517H1.517c-.755 0-1.48-.702-1.515-1.46-.032-.304.005-.902.142-1.437.258-1.007.827-1.84 1.788-2.33.485-.248.79-.355 1.17-.43l.073-.014c.399-.075.59-.128 1.081-.338.37-.156.613-.291.745-.391l.008-.815a3 3 0 0 1-.27-.457 4 4 0 0 1-.288-.861 1.2 1.2 0 0 1-.342-.439 2.1 2.1 0 0 1-.177-.759l-.02-.217a6 6 0 0 1-.024-.295c-.015-.267-.003-.484.058-.69q.048-.161.135-.294c-.06-.52-.078-.874-.053-1.138.14-1.476 1.482-2.715 3.273-2.806 1.9.085 3.047 1.236 3.195 2.805.026.264.006.597-.058 1.14a1.1 1.1 0 0 1 .135.292c.061.207.072.425.057.691a6 6 0 0 1-.025.296l-.023.213c-.01.262-.07.521-.176.761a1.2 1.2 0 0 1-.34.436q-.095.447-.29.86a3 3 0 0 1-.27.457l.007.875m-1.518.027-.01-1.182a.76.76 0 0 1 .293-.606c-.004.003.051-.063.13-.227.104-.218.187-.505.234-.873a.76.76 0 0 1 .423-.587l.003-.032c.004-.064.012-.14.027-.28.01-.085.015-.152.019-.214a.75.75 0 0 1-.237-.653c.09-.686.123-1.082.108-1.25-.08-.834-.626-1.383-1.68-1.433-.978.052-1.7.72-1.768 1.435-.016.175.019.597.104 1.249a.75.75 0 0 1-.239.656c.003.06.01.128.018.215q.018.155.029.311a.76.76 0 0 1 .424.589c.046.367.129.654.234.874.078.165.134.232.13.23a.76.76 0 0 1 .291.604l-.011 1.239c.059.615-.489 1.14-1.67 1.642-.6.255-.893.338-1.39.432l-.063.012c-.24.048-.412.107-.774.292-.53.27-.85.738-1.008 1.355q-.085.336-.098.683c-.005.108-.001.242-.01.176l.013.144h11.379c-.06 0 0-.06.003-.065v-.02c.02-.449-.059-.896-.23-1.31-.184-.43-.466-.754-.876-.964-.363-.185-.534-.245-.774-.292l-.063-.012c-.497-.094-.79-.177-1.391-.432-1.155-.49-1.7-1.056-1.57-1.706m5.338-3.135a2 2 0 0 0 .189.652c.058.112.093.151.077.14a.76.76 0 0 1 .315.626l-.01.79a.76.76 0 0 1-1.518-.02l.008-.489a2.5 2.5 0 0 1-.218-.347 3.2 3.2 0 0 1-.256-.683 1.1 1.1 0 0 1-.3-.372 1.8 1.8 0 0 1-.177-.688l-.018-.167a5 5 0 0 1-.021-.25 1.7 1.7 0 0 1 .06-.63q.04-.12.104-.223c-.048-.4-.062-.68-.04-.898.133-1.28 1.364-2.326 2.982-2.4 1.71.07 2.769 1.046 2.908 2.397.023.222.01.483-.042.9q.063.105.102.224c.064.196.074.393.06.632a5 5 0 0 1-.023.25l-.019.162c-.015.24-.068.48-.177.69a1.1 1.1 0 0 1-.3.37q-.097.381-.255.682a2.5 2.5 0 0 1-.219.35l.002.257c.222.093.539.222.969.39s.567.204.806.242l.041.007c.279.045.515.125.955.331.7.328 1.201.873 1.526 1.557.315.663.417 1.308.417 1.773v.922a1.517 1.517 0 0 1-1.517 1.518h-3.08a.758.758 0 1 1 0-1.518h3.08v-.922c0-.053-.008-.173-.034-.334a3 3 0 0 0-.237-.789c-.182-.384-.441-.666-.798-.833-.323-.152-.431-.187-.56-.209l-.03-.005c-.346-.054-.588-.12-1.12-.327-.903-.352-1.36-.55-1.53-.643a.76.76 0 0 1-.4-.66l-.01-1.045a.76.76 0 0 1 .318-.626c-.018.013.017-.026.075-.138.084-.159.15-.371.189-.648a.76.76 0 0 1 .381-.559q.012-.123.028-.248a.76.76 0 0 1-.2-.629c.075-.538.105-.852.093-.966-.061-.597-.499-1-1.394-1.04-.833.04-1.426.543-1.478 1.041-.012.12.018.456.091.967a.75.75 0 0 1-.203.63l.009.082.018.166c.199.111.347.311.381.558"/></g><defs><clipPath id="a"><path fill="#fff" d="M0 3.414h22v15.172H0z"/></clipPath></defs></svg>