<svg xmlns="http://www.w3.org/2000/svg" width="22" height="22" fill="none" viewBox="0 0 22 22"><g clip-path="url(#a)"><g clip-path="url(#b)"><path fill="#444" d="M2.442 14.73a3.835 3.835 0 0 1 .134-7.489c.298-1.155.959-2.11 2.179-3.472l.073-.073C8.129.73 12.65.57 13.666 3.734c.69 2.15-.396 3.503-2.693 3.436a.958.958 0 0 1 .055-1.916c1.006.029 1.09-.075.815-.935-.473-1.47-3.278-1.38-5.697.769-1.485 1.66-1.854 2.39-1.854 4a.958.958 0 0 1-1.888.235 1.917 1.917 0 0 0 .93 3.594.96.96 0 0 1 .958.958c0 2.577 2.953 4.792 6.708 4.792s6.709-2.215 6.709-4.792a.96.96 0 0 1 .958-.958 1.916 1.916 0 0 0 .928-3.594.958.958 0 0 1-1.886-.24c0-2.645-.878-4.225-3.407-5.91a.957.957 0 1 1 1.063-1.595c2.449 1.633 3.711 3.354 4.114 5.675a3.835 3.835 0 0 1 .078 7.477c-.537 3.354-4.206 5.853-8.557 5.853-4.35 0-8.02-2.5-8.558-5.853M8.125 11a.958.958 0 1 1 0-1.917.958.958 0 0 1 0 1.917m5.75 0a.959.959 0 1 1 0-1.917.959.959 0 0 1 0 1.917M11 15.792a.958.958 0 1 1 0-1.917.958.958 0 0 1 0 1.917"/></g></g><defs><clipPath id="a"><path fill="#fff" d="M0 0h22v22H0z"/></clipPath><clipPath id="b"><path fill="#fff" d="M-.5 1.417h23v19.167h-23z"/></clipPath></defs></svg>