<svg xmlns="http://www.w3.org/2000/svg" width="22" height="22" fill="none" viewBox="0 0 22 22"><g clip-path="url(#a)"><g clip-path="url(#b)"><path fill="#444" fill-rule="evenodd" d="M3.55 13.035 5.14 7.26l1.591 5.775zm2.878-6.95a.21.21 0 0 0-.215-.159H4.068c-.1 0-.181.055-.214.159L.009 18.229c-.018.057-.011.085.07.085h1.906c.082 0 .108-.026.125-.08l1.11-3.65h3.845l1.11 3.65c.016.054.041.08.124.08h1.907c.08 0 .087-.027.068-.085zm9.845 8.434.051-4.52c.092-.005.184-.012.277-.012.85 0 1.644.159 2.075.399.43.24-1.126 2.983-2.402 4.134zm-2.67.608c-1.06-.132-1.038-1.006-1.038-1.598 0-.85.36-1.738.963-2.371.377-.394.84-.695 1.353-.88l.09 4.706a3 3 0 0 1-1.367.143m8.125-3.507c-.686-1.877-2.603-2.999-5.127-2.999-.099 0-.193.005-.289.007l-.015-2.266 3.877-.671c.126-.022.147-.13.12-.253-.025-.121-.183-.972-.205-1.073-.031-.144-.114-.141-.228-.122-.115.02-3.576.508-3.576.508s-.012-2.148-.014-2.285c0-.14-.077-.176-.213-.174l-1.128.018c-.116.002-.18.055-.178.165l.037 2.534-3.46.598c-.092.016-.187.06-.166.159.02.096.21 1.2.229 1.289.018.086.079.14.205.119l3.218-.557.038 2.22c-1.185.31-1.98.906-2.481 1.432-.845.89-1.329 2.077-1.329 3.26 0 1.745 1.067 2.781 2.56 2.964 3.48.427 5.632-3.365 6.348-5.186 1.206 1.657.281 4.79-2.304 6.579-.046.033-.106.14-.036.23l.681.83c.087.103.227.064.282.024 2.759-1.9 4.025-4.963 3.154-7.35" clip-rule="evenodd"/></g></g><defs><clipPath id="a"><path fill="#fff" d="M0 0h22v22H0z"/></clipPath><clipPath id="b"><path fill="#fff" d="M0 2.292h22v17.417H0z"/></clipPath></defs></svg>