<svg xmlns="http://www.w3.org/2000/svg" width="24" height="24" fill="none" viewBox="0 0 24 24"><g clip-path="url(#a)"><g clip-path="url(#b)"><mask id="c" width="24" height="24" x="0" y="0" maskUnits="userSpaceOnUse" style="mask-type:luminance"><path fill="#fff" d="M0 0h24v24H0z"/></mask><g fill="#444" fill-rule="evenodd" clip-rule="evenodd" mask="url(#c)"><path d="M12.89 8.707c1.256-.591 1.446-1.144 1.446-1.306 0-.161-.189-.715-1.446-1.306-1.152-.542-2.837-.913-4.769-.913s-3.617.37-4.769.913c-1.256.592-1.446 1.145-1.446 1.306 0 .163.19.715 1.446 1.306 1.151.543 2.837.914 4.77.914s3.617-.371 4.768-.914m-4.769 2.246c4.168 0 7.547-1.59 7.547-3.552S12.288 3.85 8.12 3.85C3.953 3.85.574 5.44.574 7.4c0 1.963 3.38 3.553 7.547 3.553"/><path d="M1.179 7.179c.367 0 .665.298.665.666v3.394c0 .257.074.429.169.52.547.534 1.42.96 2.525 1.245 1.094.281 2.359.408 3.626.388s2.514-.188 3.574-.483c1.073-.3 1.886-.71 2.352-1.17.073-.071.138-.215.138-.462V7.845a.666.666 0 0 1 1.332 0v3.432c0 .445-.115.996-.535 1.41-.698.689-1.761 1.18-2.93 1.505-1.184.329-2.546.509-3.91.531-1.362.023-2.748-.114-3.979-.43-1.22-.313-2.344-.82-3.124-1.58-.433-.424-.57-.991-.57-1.473V7.846c0-.369.298-.667.667-.667"/><path d="M4.254 13.74v-3.461h1.332v3.461zm5.181 0v-3.461h1.332v3.461z"/><path d="M15.449 11.028q.02-.13.02-.264c0-.366-.117-.719-.336-1.051q.514-.035 1.047-.035c4.168 0 7.546 1.591 7.546 3.552q0 .308-.108.602v3.274c0 .446-.114.996-.534 1.41-.698.69-1.762 1.179-2.931 1.505-1.184.33-2.546.51-3.909.53-1.362.023-2.748-.112-3.98-.428-1.219-.314-2.344-.82-3.124-1.582-.432-.423-.569-.99-.569-1.473v-2.766q1.034-.04 2.051-.22c.2.144.456.298.789.454 1.151.542 2.836.913 4.77.913 1.932 0 3.616-.37 4.768-.912.87-.41 1.229-.801 1.367-1.057a.7.7 0 0 1 .059-.137.4.4 0 0 0 .02-.113c0-.162-.19-.715-1.446-1.306-1.152-.542-2.837-.914-4.769-.914q-.372 0-.731.018m2.045 5.7q-.641.052-1.314.053-1.276.002-2.535-.205v2.472a15 15 0 0 0 2.577.173q.638-.01 1.272-.07zm1.331-.171v2.406q.506-.097.971-.226c1.074-.298 1.887-.71 2.352-1.169.073-.07.14-.216.14-.463v-1.788c-.865.56-2.065.995-3.462 1.24m-8.923-1.354c.624.437 1.447.806 2.41 1.077v2.475c-.97-.282-1.742-.678-2.24-1.166-.095-.093-.17-.263-.17-.52z"/></g></g></g><defs><clipPath id="a"><path fill="#fff" d="M0 0h24v24H0z"/></clipPath><clipPath id="b"><path fill="#fff" d="M0 0h24v24H0z"/></clipPath></defs></svg>