<svg xmlns="http://www.w3.org/2000/svg" width="22" height="22" fill="none" viewBox="0 0 22 22"><g clip-path="url(#a)"><path fill="#444" fill-rule="evenodd" d="M3.823.424a1.57 1.57 0 0 0-1.06.822q-.02.04-.037.067l-.014.022c-.111.194-.111.456-.105 7.536v2.195l.007 9.187q0 .149.052.289.26.698.925.971.171.07.356.07h9.202q.181 0 .348-.07c.444-.185.736-.49.922-.963a.8.8 0 0 0 .058-.306l.006-1.922.008-2.08h4.552q.101 0 .184-.057l.01-.007a.4.4 0 0 0 .069-.053c.09-.094.09-.28.09-1.354v-.083c0-1.116-.006-1.276-.04-1.352-.062-.134-.159-.19-.373-.212-.317-.034-.524-.135-.72-.349a1.118 1.118 0 0 1 .25-1.702c.134-.081.215-.106.443-.133.224-.028.294-.058.37-.161a.3.3 0 0 0 .058-.177l.006-1.196c.005-.898-.003-1.314-.02-1.36a.5.5 0 0 0-.1-.14.25.25 0 0 0-.177-.071l-6.027-.013-6.131-.012h-.732l-.635.012c-.623.012-.636.014-.713.073a.35.35 0 0 0-.104.136c-.016.048-.025.528-.025 1.347 0 1.16.004 1.28.043 1.359.06.124.17.18.4.204.864.09 1.276 1.121.717 1.796-.195.235-.423.352-.754.387-.215.024-.296.069-.363.204-.04.08-.043.197-.043 1.356v.085c0 1.077 0 1.262.09 1.356q.027.028.068.053l.01.007a.32.32 0 0 0 .184.057h8.703v1.936H3.31V3.826h10.47v.442c0 .408-.01 2.283.04 2.372.127.234.527.194.656-.042.053-.096.014-1.894.007-3.431l-.006-1.38a1 1 0 0 0-.053-.313l-.005-.011a1.6 1.6 0 0 0-.923-.974.9.9 0 0 0-.348-.07L8.608.418C6.009.415 3.857.419 3.823.424m9.413.755c.164.053.377.243.466.419l.066.129.008.672.008.673H3.342c-.01 0-.02-.303-.02-.673 0-.66.002-.674.06-.785.113-.22.227-.329.437-.418l.139-.059H8.53c4.223 0 4.585.002 4.704.042m1.25 7.753c.005.42.021.48.153.577.103.075.287.078.38.007.155-.12.165-.155.174-.583l.007-.394 1.744.006 1.744.007v1.678l-.116.029a2 2 0 0 0-.674.365c-.28.239-.48.562-.581.936a2.2 2.2 0 0 0-.024.846c.158.672.614 1.185 1.229 1.377l.166.051v1.68h-3.491v-.363c0-.2-.01-.39-.022-.424a.374.374 0 0 0-.487-.205c-.16.066-.186.143-.2.59l-.011.389-.694.007c-.276-.01-1.168.004-1.168.004l.384-.004c.01.004-.636.004-1.622.004H9.224l-3.79.002v-1.68l.163-.054a1.81 1.81 0 0 0 1.17-1.177 2.1 2.1 0 0 0 .038-1.012c-.155-.637-.627-1.148-1.218-1.319l-.152-.043V8.552l1.14-.007q2.262-.006 4.525 0l3.383.006zm.247 1.806a.4.4 0 0 0-.165.11l-.08.09v1.075c0 1.022.004 1.079.049 1.155q.093.159.311.159a.345.345 0 0 0 .325-.247q.026-.093.02-1.103c-.008-.974-.01-1.012-.059-1.079q-.16-.22-.4-.16m-1.383 8.194h.434l-.008.672c-.008.672-.008.673-.072.798a.88.88 0 0 1-.386.387l-.134.066-4.6.006-.932.002c-3.574.005-3.79.006-3.938-.098a.9.9 0 0 1-.375-.492c-.02-.066-.03-.321-.03-.722v-.619l1.58-.006c.87-.004 3.032-.004 4.804 0z" clip-rule="evenodd"/><mask id="b" width="20" height="24" x="1" y="-1" maskUnits="userSpaceOnUse" style="mask-type:luminance"><path fill="#fff" d="M1.605-.584h19v23h-19z"/><path fill="#000" fill-rule="evenodd" d="M3.824.424a1.57 1.57 0 0 0-1.06.822q-.02.04-.037.067l-.014.022c-.111.194-.111.456-.105 7.536v2.195l.007 9.187q0 .149.052.289.26.698.925.971.171.07.356.07h9.202q.18 0 .348-.07c.445-.185.737-.49.922-.963a.9.9 0 0 0 .059-.306l.006-1.922.007-2.08h4.552c.066 0 .13-.02.183-.057l.01-.007a.4.4 0 0 0 .07-.053c.09-.094.09-.28.09-1.354v-.083c0-1.116-.005-1.276-.04-1.352-.062-.134-.159-.19-.372-.212-.317-.034-.526-.135-.72-.349a1.12 1.12 0 0 1 .248-1.702c.135-.081.216-.106.444-.133.224-.028.294-.058.37-.161a.3.3 0 0 0 .057-.177l.006-1.196c.005-.898-.002-1.314-.02-1.36a.5.5 0 0 0-.1-.14.25.25 0 0 0-.175-.071l-6.028-.013-6.131-.012h-.732l-.635.012c-.623.012-.636.014-.713.073a.35.35 0 0 0-.104.136c-.016.048-.025.528-.025 1.347 0 1.16.004 1.28.043 1.359.06.124.17.18.4.204.864.09 1.276 1.121.717 1.796-.195.235-.423.352-.754.387-.215.024-.296.069-.363.204-.04.08-.043.197-.043 1.356v.085c0 1.077 0 1.262.09 1.356q.027.028.068.053l.01.007a.32.32 0 0 0 .184.057h8.703v1.936H3.31V3.826h10.47v.442c0 .408-.01 2.283.04 2.372.127.234.527.194.656-.042.053-.096.014-1.894.008-3.431l-.006-1.38a1 1 0 0 0-.054-.313l-.005-.011a1.6 1.6 0 0 0-.922-.974.9.9 0 0 0-.348-.07L8.608.418C6.01.415 3.858.419 3.824.424m9.413.755c.165.053.377.243.466.419l.067.129.008.672.008.673H3.342c-.01 0-.02-.303-.02-.673 0-.66.002-.674.06-.785.113-.22.227-.329.437-.418l.139-.059h4.574c4.223 0 4.585.002 4.704.042m1.25 7.753c.005.42.021.48.153.577.102.075.287.078.38.007.155-.12.165-.155.174-.583l.006-.394 1.745.006 1.744.007v1.678l-.116.029a2 2 0 0 0-.674.365c-.28.239-.48.562-.582.936a2.2 2.2 0 0 0-.023.846c.157.672.614 1.185 1.229 1.377l.166.051v1.68h-3.492v-.363c0-.2-.01-.39-.021-.424a.374.374 0 0 0-.486-.205c-.16.066-.186.143-.2.59l-.013.389-.693.007c-.277-.01-1.168.004-1.168.004l.385-.004c.01.004-.636.004-1.622.004H9.224l-3.79.002v-1.68l.163-.054a1.81 1.81 0 0 0 1.17-1.177 2.1 2.1 0 0 0 .038-1.012c-.155-.637-.627-1.148-1.218-1.319l-.152-.043V8.552l1.14-.007q2.262-.006 4.525 0l3.383.006zm.248 1.806a.4.4 0 0 0-.165.11l-.08.09v1.075c0 1.022.002 1.079.047 1.155q.094.159.313.159a.345.345 0 0 0 .325-.247q.025-.093.018-1.103c-.008-.974-.01-1.012-.057-1.079q-.16-.22-.401-.16m-1.384 8.194h.434l-.008.672c-.007.672-.007.673-.071.798a.88.88 0 0 1-.387.387l-.135.066-4.6.006-.931.002c-3.574.005-3.79.006-3.938-.098a.9.9 0 0 1-.375-.492c-.02-.066-.03-.321-.03-.722v-.619l1.58-.006c.87-.004 3.032-.004 4.804 0z" clip-rule="evenodd"/></mask><g mask="url(#b)"><path fill="#444" d="M13 15.508v-.2h-.031l-.031.01zm-1.155.384-.062-.19.088.388zm.676-.088.026.198.125-.016.04-.12zM4.037 4.026H8.62v-.4H4.036zm4.536-1.154h-5.23l-.002.4h5.232zM2.407 8.87l.001 2.195h.4V8.87zm16.934 7.48.01-.008-.226-.33-.01.007zm-14.57-.008.01.007.227-.33-.01-.007zm3.812 4.318-.93.002v.4l.93-.002zm-3.657-5.893v-.084h-.4v.085zm14.27-.08v.083h.4v-.083zm-6.259.631-1.154.384.126.38 1.154-.385zm.064.39h.785v-.4H13zM6.155 7.614l-.479.117.095.39.48-.118zm5.716 8.475.676-.088-.052-.397-.675.09zm.84-.225.095-.292-.38-.123-.095.292zM3.823.425 3.753.03zm10.669 15.817v-.4h-.4v.4zm4.863-2.906.364-.167-.363.167m-.37-.212-.043.398zM6.203 7.81v-.4h-.008zM4.77 10.737l.36-.176zm9.013 5.505h.4v-.4h-.4zm0 1.936v.4h.4v-.4zm-10.472 0h-.4v.4h.4zm0-14.352v-.4h-.4v.4zm10.471 0h.4v-.4h-.4zm-.543-2.647L13.36.8l-.125.38zm.532.548.4-.005v-.094l-.044-.083zm.016 1.345v.4h.405l-.006-.405zM3.957 1.137v-.4h-.08L3.8.77l.156.368zM15.201 8.54l.002-.4-.394-.002-.008.394zm3.488.013h.4v-.399h-.4zm0 1.677.098.388.302-.077v-.31zm0 3.605h.4v-.294l-.281-.087zm0 1.68v.4h.4v-.4zm-3.49 0h-.4v.4h.4zm-.71-.402.4.012zm-.012.39.005.4.384-.005.011-.384zm-.693.006-.014.4h.02zm-1.168.004-.006-.4.01.8zm.385-.004.149-.37-.074-.03h-.08zm-7.568.006h-.4v.4h.401zm0-1.68-.126-.38-.273.091v.29zm.001-3.605h-.4v.3l.29.084zm0-1.677-.003-.4-.397.002v.398zm9.049 0 .4-.005-.004-.395h-.396zm.086 2.296-.299-.265.3.266m-.08.09-.299-.266-.1.114v.152zm-.703 7.994.4.005.005-.405h-.405zm-.601 1.923v.4h.091l.084-.04zM3.31 18.932v-.4l-.4.002v.398zM13.5.49l-.154.37.152-.37zM3.752.03c-.23.04-.506.165-.707.303l.454.66q.181-.123.392-.175zm-.707.303c-.279.192-.498.44-.643.738l.72.35q.119-.249.377-.429zm-.838 10.733.006 9.188h.8l-.006-9.188zm.084 9.616c.21.567.595.974 1.147 1.201l.304-.74c-.337-.138-.565-.374-.702-.74zm1.655 1.302h4.6v-.8h-4.6zm4.6 0h4.602v-.8H8.547zm5.105-.1c.55-.23.918-.62 1.14-1.188l-.745-.292c-.148.377-.365.6-.705.74zm1.227-1.639.005-1.92-.8-.004-.005 1.921zm.005-1.92.008-2.08-.8-.004-.008 2.08zm-.393-1.683h2.328v-.8H14.49zm2.328 0h2.225v-.8h-2.226zm2.977-1.954c0-.556 0-.88-.008-1.078-.003-.169-.01-.315-.069-.44l-.727.334c-.023-.05-.01-.079-.003.13.005.182.006.494.006 1.054zm-.076-1.519a.7.7 0 0 0-.294-.328 1 1 0 0 0-.398-.115l-.085.796q.06.007.08.013c.015.004.014.005.006 0a.1.1 0 0 1-.03-.024c-.008-.01-.01-.015-.006-.007zm-.692-.443c-.231-.025-.345-.086-.467-.22l-.593.538c.267.294.57.434.974.478zm-.467-.22a.72.72 0 0 1-.08-.844l-.68-.422a1.515 1.515 0 0 0 .168 1.804zm-.08-.844q.09-.152.24-.246l-.415-.685c-.206.127-.38.303-.506.51zm.24-.246a.4.4 0 0 1 .096-.047 1 1 0 0 1 .19-.032l-.098-.794c-.117.014-.223.03-.323.06q-.148.046-.28.128zm.285-.079a1.2 1.2 0 0 0 .352-.083.7.7 0 0 0 .291-.24l-.646-.47c-.008.01-.006.005.005-.003a.1.1 0 0 1 .03-.02l-.021.005q-.032.007-.107.017zm.779-.732.006-1.197-.8-.004-.006 1.196zm.006-1.197c.002-.45.002-.78-.002-1.008a8 8 0 0 0-.015-.363c0-.01-.007-.078-.033-.14L19 8.194c-.021-.053-.023-.095-.02-.07l.003.047q.004.077.006.24c.003.218.003.543.002.992zm-.05-1.512a.98.98 0 0 0-.19-.274l-.561.57.005.005.014.02v.001l-.002-.005L19 8.195l.744-.299zm-.645-.46-6.028-.014-.002.8 6.027.013zm-6.028-.014L6.935 7.41v.8l6.13.012zM6.195 7.41l-.635.012.016.8.635-.012zm-.635.012c-.3.006-.482.01-.594.021a.8.8 0 0 0-.203.046c-.078.03-.13.073-.152.09l.49.633c.015-.013-.007.006-.04.02-.03.011-.045.01-.014.007.07-.007.206-.01.53-.017zm-.95.157a.76.76 0 0 0-.237.324l.757.256-.017.04-.003.004-.01.01zm-.237.324c-.02.058-.025.118-.026.13q-.01.187-.015.375c-.004.232-.006.56-.006.97h.8c0-.408.002-.73.006-.955l.012-.317c.002-.028.002.007-.014.053zm-.047 1.475c0 .577 0 .905.007 1.098.005.174.014.31.076.437l.72-.352c.023.05.01.085.004-.11a44 44 0 0 1-.007-1.073zm.083 1.535a.7.7 0 0 0 .315.32c.128.065.27.092.403.106l.083-.796a1 1 0 0 1-.097-.015q-.03-.01-.026-.008a.1.1 0 0 1 .041.041zm.718.426c.54.055.812.707.45 1.143l.616.51c.76-.914.208-2.326-.983-2.45zm.45 1.143c-.12.147-.25.22-.487.245l.085.795c.424-.045.75-.207 1.018-.53l-.615-.51m-.487.245a1 1 0 0 0-.39.108.7.7 0 0 0-.29.316l.717.355c.007-.014.007-.01 0-.002a.1.1 0 0 1-.036.03c-.012.005-.015.005 0 .001a1 1 0 0 1 .084-.013zm-.68.424c-.064.13-.072.264-.077.438-.006.192-.007.52-.007 1.095h.8c0-.582.001-.894.007-1.07.006-.196.02-.158-.006-.108zm.668 3.491H9.38v-.8h-4.3zm4.301 0h4.403v-.8H9.378zm4.004-.4v.968h.8v-.968zm0 .968v.968h.8v-.968zm.4.568h-.776v.8h.774zm-.776 0h-8.97v.8h8.97zm-8.97 0H3.31v.8h.726zm-.327.4v-7.176h-.8v7.176zm0-7.176V3.826h-.8v7.176zm-.4-6.776h.726v-.8H3.31zm5.31 0h4.51l-.002-.8H8.62zm4.51 0h.651v-.8h-.652zm.252-.4v.442h.8v-.442zm0 .442c0 .201-.002.776 0 1.308.002.266.005.525.011.725q.004.152.012.257.007.08.02.157c.003.013.014.063.044.116l.702-.383c.026.048.035.09.035.09l.002.01a6 6 0 0 1-.014-.27q-.01-.353-.01-.707c-.004-.53-.002-1.096-.002-1.303zm.088 2.563c.162.298.474.38.71.363a.81.81 0 0 0 .65-.404l-.703-.384c.007-.014.015-.018.011-.016a.1.1 0 0 1-.02.006c-.01 0-.008-.002.002.003a.11.11 0 0 1 .05.049zm1.36-.04a.5.5 0 0 0 .041-.116q.015-.08.02-.163c.005-.07.008-.162.01-.267.005-.212.005-.498.002-.825-.004-.664-.014-1.48-.019-2.255l-.8.004c.005.762.016 1.613.02 2.256.002.327.002.604-.002.805a5 5 0 0 1-.011.276l.002-.013c0-.003.01-.04.034-.087l.701.384zm.054-3.626-.005-1.38-.8.004.005 1.38zm-.082-1.822-.003-.012-.756.264.004.011zm-.003-.012A2 2 0 0 0 13.65.121l-.305.738c.34.14.576.39.697.736l.757-.263m-1.65-1.31L8.608.016v.8L13.15.82zM8.608.016q-2.34 0-4.68.005L3.79.026 3.753.03l.14.788c-.034.006-.066.006-.047.006q.045-.002.09-.002h.284c.247-.003.6-.003 1.033-.004.867-.002 2.055-.002 3.354 0zm4.507 1.542.01.005a.6.6 0 0 1 .223.216l.713-.364a1.3 1.3 0 0 0-.295-.37 1.2 1.2 0 0 0-.405-.248zm.233.221.067.13.712-.365-.066-.13zm.023-.048.008.672.8-.009-.009-.673zm.008.672.008.672.8-.009-.008-.672zm.408.268H8.572v.8h5.214zm-10.444 0a.4.4 0 0 1 .35.21q.032.058.04.123l-.006-.142q-.004-.232-.004-.464h-.8q0 .322.012.645.006.064.018.127.032.113.114.192a.4.4 0 0 0 .274.11zm.38-.273c0-.34.001-.488.007-.569.003-.035.005-.036.002-.025-.004.012-.009.02.005-.008l-.71-.366a.8.8 0 0 0-.095.34c-.009.12-.009.308-.009.628zm.014-.602a.6.6 0 0 1 .103-.152.4.4 0 0 1 .135-.08L3.662.828a1.2 1.2 0 0 0-.375.24c-.112.105-.193.23-.262.363zm.238-.232.14-.06L3.8.77l-.14.06.313.736zm-.017-.028h4.574l.001-.8H3.956zm4.574 0c2.112 0 3.258 0 3.888.006.317.003.498.007.605.012.118.006.115.012.09.004L13.36.8a1.1 1.1 0 0 0-.295-.043 18 18 0 0 0-.638-.013C11.79.737 10.643.737 8.53.737zm5.557 7.4c.002.193.005.37.042.507.04.16.137.298.273.388l.473-.646c-.021-.016-.012-.012 0 .006q.017.021.027.047v-.005a5 5 0 0 1-.016-.308zm.316.895a.74.74 0 0 0 .422.135.7.7 0 0 0 .438-.134l-.489-.634a.2.2 0 0 1 .056-.03c.008-.002.01 0 .01-.002l.002.001q.004 0 .034.018zm.86 0a.7.7 0 0 0 .28-.377c.042-.142.045-.324.05-.515l-.8-.015q-.002.118-.008.235c-.005.055-.01.07-.008.066a.2.2 0 0 1 .03-.05c.005-.009.005-.007-.033.023l.489.634m.33-.892.007-.394-.8-.015-.008.394zm-.394-.002 1.742.007.003-.8-1.742-.006-.003.8m1.742.007 1.744.007.003-.8-1.744-.007zm1.346-.393v.838h.8v-.838zm0 .838v.84h.8v-.84zm.3.452-.114.03.198.774.114-.029-.197-.775m-.114.03a2 2 0 0 0-.433.18c-.14.075-.285.17-.4.268l.519.61c.151-.125.326-.22.512-.284zm-.834.448a2.26 2.26 0 0 0-.709 1.135l.772.21c.082-.3.24-.553.457-.736zm-.709 1.135a2.4 2.4 0 0 0-.067.522c-.005.171.005.366.04.52l.78-.182a1.4 1.4 0 0 1-.02-.316c.005-.142.02-.266.04-.334zm-.027 1.041c.188.797.738 1.431 1.499 1.668l.24-.763c-.468-.146-.832-.54-.96-1.086zm1.499 1.668.166.052.239-.763-.166-.052zm-.114-.33v.84h.8v-.84zm0 .84v.84h.8v-.84zm.4.44h-1.747v.8h1.747zm-1.747 0h-1.745v.8h1.745zm-1.344.4v-.363h-.8v.363zm0-.363a6 6 0 0 0-.017-.413.6.6 0 0 0-.03-.149l-.75.277-.014-.04-.002-.014v.01l.006.076q.008.127.006.253zm-.048-.562a.774.774 0 0 0-1.014-.437l.306.74c-.013.005-.02.002-.02.002s-.013-.006-.021-.028zm-1.014-.437a.62.62 0 0 0-.378.393c-.053.151-.061.347-.069.554l.8.025c.005-.11.009-.188.014-.245.005-.06.011-.078.01-.077a.2.2 0 0 1-.047.07c-.027.024-.046.028-.024.02zm-.447.947-.011.39.8.024.011-.389zm.384.002-.692.007.008.8.693-.007zm-5.25.01-3.79.003.001.8 3.79-.002v-.8m-3.39.403v-.84h-.8v.84zm0-.84v-.84h-.799v.84zm-.273-.46.162-.055-.252-.759-.163.054zm.162-.055a2.21 2.21 0 0 0 1.425-1.429l-.759-.254a1.41 1.41 0 0 1-.918.924zm1.425-1.429c.118-.353.135-.865.045-1.234l-.777.19c.056.23.041.586-.027.79zm.045-1.234c-.185-.764-.756-1.395-1.495-1.608l-.22.77c.44.126.815.52.938 1.027zM5.697 9.888l-.152-.044-.222.77.153.043zm.137.34V9.39h-.8v.838zm0-.838v-.838h-.8v.838zm-.398-.438 1.141-.007-.004-.8-1.142.007zm1.141-.007c.626-.004 2.66-.004 4.522 0l.002-.8a817 817 0 0 0-4.528 0zm4.522 0 3.383.006.002-.8-3.383-.006zm2.983-.389.005.38.8-.01-.005-.38zm.557 1.794a.7.7 0 0 0-.21.097.8.8 0 0 0-.159.136l.598.531q-.003.004 0 0l.005-.003-.002.002a.2.2 0 0 1-.042.014zm-.368.233-.08.09.598.531.08-.09zm-.18.355v1.075h.8v-1.075zm0 1.075c0 .506 0 .787.007.95q.002.119.021.217a.6.6 0 0 0 .075.192l.688-.408a.2.2 0 0 0 .021.055 1 1 0 0 1-.007-.09c-.006-.14-.007-.4-.007-.916h-.8zm.103 1.36c.148.25.4.354.656.354v-.8c-.025 0-.022-.005-.006.004q.023.012.038.034zm.656.354c.327 0 .62-.224.71-.537l-.77-.219a.06.06 0 0 1 .02-.033.06.06 0 0 1 .04-.01zm.71-.537a1 1 0 0 0 .024-.19q.015-.513.008-1.025l-.8.005q.006.503 0 .771-.002.134-.006.203c-.003.065-.006.053.004.017zm.032-1.215q.001-.45-.014-.899a1 1 0 0 0-.026-.216.6.6 0 0 0-.093-.197l-.647.47a.2.2 0 0 1-.037-.077c-.002-.012.002-.003.005.063.008.128.01.368.014.861l.8-.005zm-.133-1.312a.755.755 0 0 0-.82-.314l.19.778c.008-.002.008 0 .002-.002a.1.1 0 0 1-.024-.005q-.015-.006-.013-.007.002 0 .018.02zm-2.108 8.67h.434v-.8h-.434zm.034-.406-.008.672.8.01.008-.672zm-.008.672q.003.287-.013.573c-.003.033-.006.033-.002.023.002-.007.005-.012-.012.024l.71.366c.014-.027.041-.078.063-.142a1 1 0 0 0 .039-.199c.01-.12.011-.31.015-.635zm-.027.62a.48.48 0 0 1-.207.21l.35.72c.245-.12.444-.322.567-.564zm-.207.21-.135.066.352.72.133-.066zm.04.026-4.6.006.001.8 4.6-.006zm-9.314-.07-.008-.008a.6.6 0 0 1-.137-.21l-.77.214c.037.133.106.263.18.368.07.103.168.216.284.295zm-.145-.219c.006.022.005.025.001-.013l-.008-.13a13 13 0 0 1-.007-.47h-.8c0 .201.003.371.008.501q.004.097.01.17a1 1 0 0 0 .026.157zm-.014-.614v-.62h-.8v.62zm-.398-.22 1.58-.006-.003-.8-1.58.006zm1.58-.006c.868-.004 3.03-.004 4.801 0l.001-.8a939 939 0 0 0-4.805 0zm4.801 0 3.658.006v-.8l-3.657-.006zm4.107-4.218c-.15-.006-.453-.005-.708-.002l-.444.005h-.038l.006.4.005.4h.04l.104-.002.335-.003c.26-.003.543-.003.67.001zM8.62 3.425H4.035v.801H8.62zm-5.28.047h5.232v-.8h-5.23zm-.937-2.4-.019.032.684.415q.02-.03.055-.1l-.72-.35zm-.019.032-.018.03.693.4.01-.015zm-.018.03c-.068.118-.098.234-.116.425-.018.181-.028.47-.034.955-.014.98-.012 2.818-.01 6.356h.8c-.002-3.543-.004-5.374.01-6.345.006-.489.016-.745.03-.89a1 1 0 0 1 .016-.108q0-.003-.002.004v.003zM19.464 16.51c.02-.014.079-.053.13-.107l-.577-.554.017-.015-.006.004-.016.011zm.13-.107c.159-.165.18-.379.19-.563.013-.207.012-.538.012-1.068h-.8c0 .545 0 .844-.01 1.022-.012.2-.037.126.031.055zm.201-1.63v-.084h-.8v.083zm-15.469-.088v.085h.8v-.085zm0 .085c0 .53 0 .862.012 1.07.01.184.031.398.19.563l.576-.554c.068.07.044.145.032-.056-.01-.178-.01-.477-.01-1.024zm.201 1.633c.053.055.112.093.131.106l.452-.66-.016-.01-.006-.005.016.015zm3.125 4.06c-1.79.002-2.732.005-3.244-.007q-.23 0-.46-.026c-.052-.007-.03-.01-.006.008l-.456.656c.1.07.203.107.345.128.124.018.3.028.558.034.526.012 1.48.01 3.264.008v-.802m-3.71-.025-.003-.003-.01-.008-.486.637.043.03zm-.014-.01-.059-.044-.45.661.024.02zm1.192-4.57-.01-.009-.452.66.01.007.452-.66zm13.892-.009-.01.007.451.66.01-.006zM3.008 11.066 3.006 8.87h-.799l.001 2.196zm4.645 10.198.931-.003v-.8l-.932.001zM6.203 8.21h.731l.001-.8h-.732zm6.417 7.702.385-.004-.009-.8-.383.004zm.232-.032a.4.4 0 0 1 .123-.77h-.088l-.325.002H11.38v.8l1.604-.003a.396.396 0 0 0 .39-.254.4.4 0 0 0-.223-.518zm-1.473-.769H9.223v.801h2.156zM13.65.121c-.158-.067-.329-.1-.5-.1v.8q.1 0 .195.038zm1.229 1.665q-.001-.227-.076-.443l-.757.264q.031.09.033.182zm4.673 5.836a.65.65 0 0 0-.456-.187l-.003.801a.15.15 0 0 1-.104-.044zm-.508 9.02c.146 0 .289-.043.41-.126l-.453-.66a.1.1 0 0 1 .043-.013zm-14.376-.126c.121.083.264.127.41.126v-.799q.023 0 .043.014zm10.124 4.18c.056-.143.085-.297.087-.45l-.8-.004a.5.5 0 0 1-.032.163l.745.292M3.438 21.884c.16.067.333.1.508.1v-.8a.5.5 0 0 1-.204-.04zm9.71.1c.173 0 .344-.034.503-.1l-.31-.738a.5.5 0 0 1-.193.038v.801m6.5-10.968a.7.7 0 0 0 .136-.41l-.8-.006q0-.03.018-.056zM2.215 20.254q0 .22.078.428l.75-.28a.4.4 0 0 1-.028-.148z"/></g></g><defs><clipPath id="a"><path fill="#fff" d="M2 0h18v22H2z"/></clipPath></defs></svg>