<svg xmlns="http://www.w3.org/2000/svg" width="22" height="22" fill="none" viewBox="0 0 22 22"><g clip-path="url(#a)"><g clip-path="url(#b)"><path fill="#444" fill-rule="evenodd" d="M15.469 12.031H11A1.03 1.03 0 0 1 9.969 11V4.812a1.03 1.03 0 1 1 2.062 0V9.97h3.438a1.03 1.03 0 1 1 0 2.061M11 2.062a8.938 8.938 0 1 0 0 17.875 8.938 8.938 0 0 0 0-17.875M11 22C4.926 22 0 17.075 0 11S4.926 0 11 0s11 4.925 11 11-4.926 11-11 11" clip-rule="evenodd"/></g></g><defs><clipPath id="a"><path fill="#fff" d="M0 0h22v22H0z"/></clipPath><clipPath id="b"><path fill="#fff" d="M0 0h22v22H0z"/></clipPath></defs></svg>