<svg width="18" height="18" viewBox="0 0 18 18" fill="none" xmlns="http://www.w3.org/2000/svg">
<g clip-path="url(#clip0_341_364)">
<path fill-rule="evenodd" clip-rule="evenodd" d="M9 18C15.7705 18 18 13.9705 18 9C18 4.02943 15.7705 0 9 0C2.22943 0 0 4.02943 0 9C0 13.9705 2.22943 18 9 18ZM12.1773 7.6773C12.4409 7.4137 12.4409 6.9863 12.1773 6.7227C11.9137 6.4591 11.4863 6.4591 11.2227 6.7227L8.1 9.84537L6.7773 8.5227C6.5137 8.2591 6.0863 8.2591 5.8227 8.5227C5.5591 8.7863 5.5591 9.21366 5.8227 9.47727L7.6227 11.2773C7.8863 11.5409 8.3137 11.5409 8.5773 11.2773L12.1773 7.6773Z" fill="#60B259"/>
</g>
<defs>
<clipPath id="clip0_341_364">
<rect width="18" height="18" fill="white"/>
</clipPath>
</defs>
</svg>
