<svg width="18" height="18" viewBox="0 0 18 18" fill="none" xmlns="http://www.w3.org/2000/svg">
<g clip-path="url(#clip0_341_366)">
<path fill-rule="evenodd" clip-rule="evenodd" d="M9 18C15.7705 18 18 13.9705 18 9C18 4.02943 15.7705 0 9 0C2.22943 0 0 4.02943 0 9C0 13.9705 2.22943 18 9 18ZM7.8364 6.5636C7.48492 6.21213 6.91508 6.21213 6.5636 6.5636C6.21213 6.91508 6.21213 7.48492 6.5636 7.8364L7.72721 9L6.5636 10.1636C6.21213 10.5151 6.21213 11.0849 6.5636 11.4364C6.91508 11.7878 7.48492 11.7878 7.8364 11.4364L9 10.2728L10.1636 11.4364C10.5151 11.7878 11.0849 11.7878 11.4364 11.4364C11.7878 11.0849 11.7878 10.5151 11.4364 10.1636L10.2728 9L11.4364 7.8364C11.7878 7.48492 11.7878 6.91508 11.4364 6.5636C11.0849 6.21213 10.5151 6.21213 10.1636 6.5636L9 7.72721L7.8364 6.5636Z" fill="#D3D3D5"/>
</g>
<defs>
<clipPath id="clip0_341_366">
<rect width="18" height="18" fill="white"/>
</clipPath>
</defs>
</svg>
