<svg width="22" height="22" viewBox="0 0 22 22" fill="none" xmlns="http://www.w3.org/2000/svg">
<g clip-path="url(#clip0_314_2959)">
<g clip-path="url(#clip1_314_2959)">
<path d="M11.0422 2.80026C11.1494 2.92859 11.5766 3.45568 11.6857 3.58584C13.6327 5.92243 15.554 6.41926 20.262 4.53459C21.362 4.09459 22.5216 5.11393 21.7498 6.23501C16.7988 13.429 14.52 14.6858 11.8608 12.6718C11.7308 12.5726 11.6015 12.4723 11.473 12.3712C9.91192 11.1584 8.2005 11.5975 5.67142 13.6353L8.23442 20.4993L6.64858 21.0117L0 4.15784L2.75917 3.16784C6.90433 0.161177 8.954 0.295927 11.0422 2.80026ZM10.4014 4.65559C10.2841 4.51443 9.85692 3.98826 9.75792 3.87001C8.25183 2.06326 7.18208 2.00276 3.64742 4.58776L3.55025 4.65926L2.18717 5.14876L4.95 12.1521C8.34533 9.32418 10.2502 9.30584 12.4978 11.0521L12.8691 11.3399C14.3761 12.4803 15.6888 11.8991 19.4462 6.61451C15.0003 8.09218 12.5849 7.27634 10.4014 4.65559Z" fill="#444444"/>
</g>
</g>
<defs>
<clipPath id="clip0_314_2959">
<rect width="22" height="22" fill="white"/>
</clipPath>
<clipPath id="clip1_314_2959">
<rect width="22" height="20.1667" fill="white" transform="translate(0 0.916504)"/>
</clipPath>
</defs>
</svg>
