<svg width="22" height="22" viewBox="0 0 22 22" fill="none" xmlns="http://www.w3.org/2000/svg">
<g clip-path="url(#clip0_314_2969)">
<path d="M9.51357 12.2411C9.63039 12.3261 9.84053 12.4429 10.1584 12.5772C10.65 12.7866 10.8412 12.8404 11.2387 12.9155L11.313 12.9299C11.6923 13.0043 11.9965 13.1105 12.4828 13.3586C13.2293 13.7394 13.7489 14.3379 14.0645 15.0768C14.3604 15.7694 14.4438 16.4681 14.4165 17.0538C14.4135 17.1114 14.4135 17.1114 14.4143 17.069C14.4143 17.8503 13.6708 18.5862 12.897 18.5862H1.5177C0.762117 18.5862 0.0361174 17.8837 0.00197948 17.1251C-0.0298826 16.8217 0.00653121 16.2239 0.143842 15.689C0.401773 14.6816 0.970738 13.8486 1.93191 13.3586C2.41743 13.1105 2.72239 13.0043 3.1017 12.9299L3.17529 12.9155C3.57357 12.8404 3.76474 12.7866 4.25632 12.5772C4.62577 12.4209 4.86853 12.2859 5.00129 12.1857L5.00888 11.371C4.90462 11.2273 4.8142 11.0742 4.73881 10.9135C4.61012 10.6385 4.51339 10.3496 4.45053 10.0525C4.3041 9.93494 4.18719 9.78478 4.10915 9.614C4.00294 9.38641 3.94908 9.12241 3.93239 8.85538C3.92655 8.78269 3.91947 8.7101 3.91115 8.63765C3.90091 8.53949 3.89307 8.4411 3.88763 8.34255C3.87322 8.07552 3.8846 7.85855 3.94605 7.65221C3.97791 7.546 4.02343 7.44738 4.08108 7.35938C4.02191 6.83896 4.00294 6.48469 4.02798 6.22145C4.16757 4.74517 5.50957 3.50559 7.30067 3.41455C9.20177 3.49952 10.348 4.6511 10.496 6.21993C10.5218 6.48393 10.502 6.81696 10.4383 7.36014C10.496 7.44814 10.5415 7.54676 10.5726 7.65221C10.634 7.85931 10.6447 8.07703 10.6303 8.34331C10.6244 8.44212 10.616 8.54077 10.6052 8.63917L10.5825 8.85159C10.5728 9.11444 10.5128 9.373 10.4057 9.61324C10.323 9.78772 10.2077 9.93793 10.0658 10.0494C10.0027 10.3458 9.90568 10.6339 9.77681 10.9082C9.68957 11.0903 9.59777 11.242 9.50522 11.3664L9.51281 12.2411H9.51357ZM7.99632 12.2684L7.9857 11.0865C7.98467 10.9697 8.01062 10.8542 8.06154 10.749C8.11247 10.6439 8.18699 10.552 8.27929 10.4803C8.27474 10.4834 8.33012 10.4174 8.40826 10.2528C8.51295 10.035 8.59563 9.74752 8.64267 9.38034C8.65852 9.25489 8.70557 9.13541 8.77952 9.03283C8.85347 8.93025 8.95196 8.84785 9.06598 8.79317L9.06901 8.76055C9.07281 8.69683 9.08115 8.62021 9.09632 8.48138C9.10543 8.39565 9.1115 8.3289 9.11453 8.26745C9.02544 8.18549 8.95741 8.08326 8.91621 7.96943C8.87501 7.8556 8.86185 7.73351 8.87784 7.61352C8.96736 6.92848 9.0015 6.53248 8.98557 6.36407C8.90667 5.53034 8.36046 4.9811 7.30674 4.93103C6.32812 4.98262 5.60591 5.65021 5.53839 6.36634C5.5217 6.54083 5.5566 6.96338 5.64157 7.61503C5.65775 7.73552 5.64454 7.85813 5.60306 7.9724C5.56158 8.08667 5.49307 8.1892 5.40336 8.27124C5.40639 8.33193 5.41246 8.39869 5.42081 8.48593C5.43294 8.58936 5.44256 8.69307 5.44964 8.79696C5.56399 8.85169 5.66276 8.93428 5.73686 9.03714C5.81096 9.14001 5.85802 9.25985 5.8737 9.38565C5.91998 9.75283 6.00267 10.0403 6.10812 10.2603C6.18625 10.425 6.24163 10.4925 6.2386 10.4894C6.33014 10.5612 6.40395 10.6531 6.45434 10.7579C6.50472 10.8627 6.53031 10.9778 6.52915 11.0941L6.51777 12.3329C6.57694 12.9481 6.02922 13.4739 4.84881 13.9746C4.24798 14.2302 3.95515 14.3129 3.4575 14.407L3.39453 14.4191C3.15481 14.4669 2.98336 14.5261 2.62074 14.7112C2.09046 14.9812 1.77108 15.4486 1.61329 16.0661C1.55693 16.2896 1.52388 16.5184 1.51467 16.7488C1.51012 16.8566 1.51391 16.9908 1.50405 16.9248L1.5177 17.069H12.897C12.8363 17.069 12.897 17.0083 12.9 17.0037L12.9008 16.984C12.9202 16.5354 12.8412 16.088 12.6694 15.6731C12.4858 15.2445 12.2044 14.9198 11.794 14.7097C11.4314 14.5253 11.2599 14.4654 11.0202 14.4183L10.9572 14.4062C10.4596 14.3121 10.1667 14.2294 9.56591 13.9738C8.41129 13.4845 7.86508 12.9178 7.99557 12.2684H7.99632ZM13.334 9.13303C13.3719 9.41069 13.4394 9.62386 13.5229 9.78469C13.5813 9.89696 13.6162 9.93641 13.5995 9.92427C13.6987 9.9956 13.7791 10.0898 13.8341 10.1989C13.889 10.308 13.9168 10.4288 13.9151 10.5509L13.9045 11.3414C13.9016 11.5426 13.819 11.7344 13.6748 11.8747C13.5305 12.015 13.3364 12.0922 13.1352 12.0894C12.934 12.0866 12.7422 12.0039 12.6019 11.8597C12.4616 11.7154 12.3844 11.5213 12.3872 11.3201L12.3948 10.8323C12.3127 10.7228 12.2399 10.6065 12.1771 10.4849C12.0657 10.2679 11.9797 10.0388 11.9207 9.80214C11.7952 9.70077 11.6927 9.57378 11.6203 9.42965C11.5157 9.21455 11.4558 8.98048 11.4443 8.74159C11.4391 8.68586 11.433 8.63022 11.426 8.57469C11.4168 8.4917 11.4097 8.40847 11.4048 8.3251C11.3912 8.0869 11.4018 7.89041 11.4655 7.69545C11.4913 7.61579 11.5262 7.54069 11.5687 7.47165C11.5209 7.0711 11.5065 6.79269 11.5292 6.57421C11.662 5.29365 12.8932 4.24827 14.5106 4.17317C16.2213 4.24372 17.2796 5.22007 17.4192 6.57117C17.4419 6.79345 17.4283 7.05441 17.3767 7.47165C17.4192 7.54069 17.4533 7.61579 17.4791 7.69545C17.5428 7.89117 17.5534 8.08765 17.539 8.32662C17.5337 8.41026 17.5261 8.49374 17.5163 8.57696C17.5011 8.69986 17.498 8.72869 17.4973 8.73931C17.4821 8.97827 17.429 9.21952 17.3205 9.42965C17.2447 9.57607 17.143 9.70276 17.0209 9.79986C16.9556 10.0532 16.8692 10.2808 16.7645 10.4811C16.7015 10.6033 16.6284 10.7201 16.546 10.8301L16.5483 11.088C16.7698 11.1813 17.0869 11.3095 17.517 11.4772C17.9479 11.6456 18.0845 11.682 18.3234 11.7199L18.3644 11.7268C18.6428 11.7723 18.8787 11.8519 19.3187 12.0583C20.0197 12.386 20.5204 12.9307 20.8451 13.615C21.1599 14.278 21.2623 14.9228 21.2623 15.3879V16.3103C21.2623 16.7127 21.1025 17.0987 20.8179 17.3832C20.5334 17.6677 20.1475 17.8276 19.7451 17.8276H16.6651C16.4639 17.8276 16.2709 17.7477 16.1287 17.6054C15.9864 17.4631 15.9065 17.2702 15.9065 17.069C15.9065 16.8678 15.9864 16.6748 16.1287 16.5325C16.2709 16.3903 16.4639 16.3103 16.6651 16.3103H19.7451V15.3879C19.7451 15.3348 19.7367 15.2149 19.7109 15.0541C19.6699 14.7812 19.5902 14.5155 19.4743 14.2651C19.2922 13.8812 19.0327 13.599 18.6762 13.4321C18.353 13.2804 18.2445 13.2448 18.1163 13.2235L18.086 13.2182C17.74 13.1636 17.498 13.0983 16.9663 12.8912C16.0627 12.5392 15.6068 12.3405 15.4354 12.2479C15.3158 12.1837 15.2156 12.0886 15.1453 11.9726C15.075 11.8565 15.0371 11.7236 15.0356 11.5879L15.0257 10.5426C15.0245 10.4205 15.0527 10.2999 15.1081 10.1911C15.1634 10.0822 15.2442 9.98837 15.3436 9.91745C15.3261 9.92958 15.361 9.89089 15.4194 9.77938C15.5029 9.62007 15.5696 9.40765 15.6076 9.13076C15.6235 9.01446 15.6662 8.90347 15.7325 8.80656C15.7987 8.70965 15.8866 8.62949 15.9892 8.57241C15.9974 8.4896 16.0068 8.40691 16.0172 8.32434C15.9382 8.24166 15.879 8.14206 15.8441 8.03309C15.8093 7.92413 15.7997 7.80866 15.8162 7.69545C15.892 7.15683 15.9224 6.84276 15.9103 6.72896C15.8488 6.13193 15.4111 5.72834 14.5159 5.6889C13.6829 5.7291 13.0897 6.23207 13.0381 6.73048C13.026 6.84959 13.0563 7.18565 13.1292 7.69696C13.1454 7.81047 13.1356 7.92619 13.1003 8.03531C13.0651 8.14443 13.0054 8.24406 12.9258 8.32662L12.9349 8.40855L12.9532 8.57545C13.1519 8.68621 13.2998 8.88648 13.334 9.13303Z" fill="#444444"/>
</g>
<defs>
<clipPath id="clip0_314_2969">
<rect width="22" height="15.1724" fill="white" transform="translate(0 3.41357)"/>
</clipPath>
</defs>
</svg>
