<svg width="22" height="22" viewBox="0 0 22 22" fill="none" xmlns="http://www.w3.org/2000/svg">
<g clip-path="url(#clip0_314_2989)">
<g clip-path="url(#clip1_314_2989)">
<path d="M2.44228 14.7298C1.59306 14.526 0.838832 14.0385 0.304294 13.3479C-0.230245 12.6573 -0.513075 11.8049 -0.497431 10.9317C-0.481787 10.0585 -0.168604 9.21684 0.39033 8.54581C0.949265 7.87478 1.72048 7.41461 2.57644 7.24137C2.87448 6.08562 3.53478 5.13112 4.75473 3.76933L4.82757 3.69554C8.12903 0.730456 12.6514 0.571373 13.6663 3.73387C14.3563 5.88342 13.2705 7.23658 10.9734 7.1695C10.7217 7.15887 10.4843 7.04959 10.3126 6.86529C10.1409 6.68099 10.0487 6.43649 10.0558 6.1847C10.063 5.93291 10.1691 5.69407 10.351 5.51986C10.5329 5.34564 10.7761 5.25006 11.028 5.25379C12.0342 5.28254 12.1176 5.17904 11.8426 4.31942C11.3701 2.84933 8.56507 2.93941 6.14623 5.088C4.66082 6.74879 4.29186 7.47712 4.29186 9.08712C4.29254 9.3212 4.20753 9.54744 4.05286 9.72314C3.89818 9.89884 3.68456 10.0119 3.45228 10.0409C3.22 10.0699 2.98514 10.0129 2.79201 9.88059C2.59888 9.74831 2.46084 9.54993 2.40394 9.32287C2.03201 9.52866 1.73904 9.85223 1.57111 10.2427C1.40317 10.6332 1.3698 11.0684 1.47625 11.4799C1.5827 11.8915 1.82292 12.2559 2.15913 12.516C2.49534 12.7761 2.90846 12.917 3.33353 12.9166C3.58769 12.9166 3.83145 13.0176 4.01117 13.1973C4.19089 13.377 4.29186 13.6208 4.29186 13.875C4.29186 16.4519 7.24544 18.6666 11.0002 18.6666C14.7549 18.6666 17.7085 16.4519 17.7085 13.875C17.7085 13.6208 17.8095 13.377 17.9892 13.1973C18.1689 13.0176 18.4127 12.9166 18.6669 12.9166C19.0918 12.9168 19.5048 12.7757 19.8409 12.5155C20.1769 12.2554 20.417 11.8909 20.5233 11.4795C20.6296 11.068 20.5962 10.6329 20.4282 10.2425C20.2603 9.85211 19.9673 9.52862 19.5955 9.32287C19.5377 9.54938 19.3992 9.74696 19.2059 9.87845C19.0127 10.0099 18.778 10.0663 18.5461 10.0368C18.3143 10.0074 18.1011 9.89421 17.9469 9.71859C17.7926 9.54298 17.7078 9.31704 17.7085 9.08329C17.7085 6.43829 16.8307 4.858 14.3017 3.17229C14.1969 3.10244 14.107 3.01266 14.037 2.90806C13.967 2.80346 13.9183 2.68609 13.8936 2.56266C13.869 2.43924 13.8689 2.31216 13.8933 2.18869C13.9178 2.06523 13.9663 1.94779 14.0362 1.84308C14.106 1.73837 14.1958 1.64845 14.3004 1.57844C14.405 1.50843 14.5224 1.45971 14.6458 1.43506C14.7692 1.41041 14.8963 1.41032 15.0198 1.43478C15.1433 1.45924 15.2607 1.50778 15.3654 1.57762C17.8139 3.21062 19.0761 4.93179 19.4786 7.25287C20.3279 7.43683 21.0895 7.90384 21.6387 8.57738C22.1878 9.25091 22.4919 10.091 22.501 10.96C22.5101 11.829 22.2238 12.6753 21.6889 13.3602C21.1541 14.0451 20.4024 14.528 19.5572 14.7298C19.0195 18.084 15.351 20.5833 11.0002 20.5833C6.64936 20.5833 2.98086 18.083 2.44228 14.7298ZM8.12519 11C7.87103 11 7.62727 10.899 7.44755 10.7193C7.26783 10.5395 7.16686 10.2958 7.16686 10.0416C7.16686 9.78746 7.26783 9.5437 7.44755 9.36398C7.62727 9.18426 7.87103 9.08329 8.12519 9.08329C8.37936 9.08329 8.62311 9.18426 8.80284 9.36398C8.98256 9.5437 9.08353 9.78746 9.08353 10.0416C9.08353 10.2958 8.98256 10.5395 8.80284 10.7193C8.62311 10.899 8.37936 11 8.12519 11ZM13.8752 11C13.621 11 13.3773 10.899 13.1975 10.7193C13.0178 10.5395 12.9169 10.2958 12.9169 10.0416C12.9169 9.78746 13.0178 9.5437 13.1975 9.36398C13.3773 9.18426 13.621 9.08329 13.8752 9.08329C14.1294 9.08329 14.3731 9.18426 14.5528 9.36398C14.7326 9.5437 14.8335 9.78746 14.8335 10.0416C14.8335 10.2958 14.7326 10.5395 14.5528 10.7193C14.3731 10.899 14.1294 11 13.8752 11ZM11.0002 15.7916C10.746 15.7916 10.5023 15.6907 10.3225 15.5109C10.1428 15.3312 10.0419 15.0875 10.0419 14.8333C10.0419 14.5791 10.1428 14.3354 10.3225 14.1556C10.5023 13.9759 10.746 13.875 11.0002 13.875C11.2544 13.875 11.4981 13.9759 11.6778 14.1556C11.8576 14.3354 11.9585 14.5791 11.9585 14.8333C11.9585 15.0875 11.8576 15.3312 11.6778 15.5109C11.4981 15.6907 11.2544 15.7916 11.0002 15.7916Z" fill="#444444"/>
</g>
</g>
<defs>
<clipPath id="clip0_314_2989">
<rect width="22" height="22" fill="white"/>
</clipPath>
<clipPath id="clip1_314_2989">
<rect width="23" height="19.1667" fill="white" transform="translate(-0.5 1.4165)"/>
</clipPath>
</defs>
</svg>
