<svg width="22" height="22" viewBox="0 0 22 22" fill="none" xmlns="http://www.w3.org/2000/svg">
<g clip-path="url(#clip0_314_2984)">
<g clip-path="url(#clip1_314_2984)">
<path fill-rule="evenodd" clip-rule="evenodd" d="M3.54964 13.0349L5.14098 7.2599L6.73231 13.0349H3.54964ZM6.42798 6.08474C6.41568 6.0378 6.3877 5.99648 6.34868 5.96763C6.30966 5.93879 6.26196 5.92415 6.21348 5.92615H4.06848C3.96764 5.92615 3.88698 5.98115 3.85398 6.08474L0.00947554 18.2287C-0.0088578 18.2856 -0.00244113 18.314 0.0782255 18.314H1.98489C2.06739 18.314 2.09306 18.2883 2.11048 18.2333L3.21964 14.5832H7.06506L8.17423 18.2333C8.19073 18.2883 8.21639 18.314 8.29889 18.314H10.2056C10.2862 18.314 10.2926 18.2865 10.2743 18.2287L6.42798 6.08474ZM16.273 14.519L16.3243 9.9989C16.416 9.99432 16.5076 9.98699 16.6011 9.98699C17.4518 9.98699 18.2447 10.1456 18.6756 10.3857C19.1055 10.6259 17.5499 13.3686 16.2739 14.5199L16.273 14.519ZM13.6036 15.1267C12.5421 14.9947 12.5651 14.1212 12.5651 13.529C12.5651 12.6783 12.9253 11.791 13.5276 11.1576C13.9052 10.7644 14.3681 10.4633 14.8806 10.2776L14.9713 14.9837C14.5326 15.1364 14.0645 15.1854 13.6036 15.1267ZM21.7281 11.6196C21.0424 9.74315 19.1247 8.62115 16.6011 8.62115C16.5021 8.62115 16.4077 8.62574 16.3124 8.62757L16.2968 6.36157L20.1743 5.69057C20.2999 5.66857 20.321 5.56132 20.2944 5.43757C20.2687 5.31657 20.1111 4.4659 20.0891 4.36507C20.0579 4.22115 19.9754 4.2239 19.8608 4.24315C19.7462 4.26332 16.2849 4.75099 16.2849 4.75099C16.2849 4.75099 16.273 2.60324 16.2711 2.46574C16.2711 2.3264 16.1941 2.28974 16.0576 2.29157L14.9301 2.3099C14.8136 2.31174 14.7495 2.3649 14.7522 2.4749L14.7889 5.00857L11.3285 5.60715C11.2368 5.62274 11.1415 5.66674 11.1626 5.76574C11.1836 5.86199 11.3734 6.96657 11.3917 7.05457C11.4101 7.14074 11.4706 7.19574 11.5971 7.17374L14.8146 6.61732L14.8531 8.83657C13.6678 9.14732 12.8721 9.74315 12.3716 10.2693C11.5274 11.1585 11.0434 12.3456 11.0434 13.529C11.0434 15.2743 12.1104 16.3102 13.6036 16.4926C17.0824 16.9197 19.2347 13.1284 19.9506 11.307C21.157 12.9643 20.2321 16.0966 17.6471 17.8859C17.6012 17.9189 17.5407 18.0262 17.6113 18.1151C17.6819 18.2003 18.2062 18.842 18.2924 18.9456C18.3795 19.0492 18.5188 19.0097 18.5738 18.9703C21.333 17.0692 22.5989 14.0066 21.7281 11.6196Z" fill="#444444"/>
</g>
</g>
<defs>
<clipPath id="clip0_314_2984">
<rect width="22" height="22" fill="white"/>
</clipPath>
<clipPath id="clip1_314_2984">
<rect width="22" height="17.4167" fill="white" transform="translate(0 2.2915)"/>
</clipPath>
</defs>
</svg>
