<svg width="24" height="24" viewBox="0 0 24 24" fill="none" xmlns="http://www.w3.org/2000/svg">
<g clip-path="url(#clip0_314_2994)">
<g clip-path="url(#clip1_314_2994)">
<mask id="mask0_314_2994" style="mask-type:luminance" maskUnits="userSpaceOnUse" x="0" y="0" width="24" height="24">
<path d="M0 0H24V24H0V0Z" fill="white"/>
</mask>
<g mask="url(#mask0_314_2994)">
<path fill-rule="evenodd" clip-rule="evenodd" d="M12.8905 8.70704C14.1462 8.11561 14.3356 7.56275 14.3356 7.40075C14.3356 7.23961 14.1471 6.68589 12.8905 6.09532C11.7385 5.55275 10.0534 5.18161 8.12136 5.18161C6.1885 5.18161 4.50422 5.55275 3.35222 6.09532C2.09565 6.68675 1.90622 7.23961 1.90622 7.40075C1.90622 7.56361 2.09565 8.11647 3.35222 8.70704C4.50336 9.24961 6.1885 9.62075 8.12136 9.62075C10.0542 9.62075 11.7385 9.24961 12.8905 8.70704ZM8.12136 10.9528C12.2888 10.9528 15.6676 9.36275 15.6676 7.40075C15.6676 5.43961 12.2888 3.84961 8.12136 3.84961C3.95308 3.84961 0.574219 5.43961 0.574219 7.40075C0.574219 9.36275 3.95308 10.9528 8.12136 10.9528Z" fill="#444444"/>
<path fill-rule="evenodd" clip-rule="evenodd" d="M1.1787 7.17871C1.54641 7.17871 1.84384 7.477 1.84384 7.84471V11.239C1.84384 11.4961 1.91755 11.6676 2.0127 11.7593C2.55955 12.2933 3.43298 12.7193 4.53784 13.0039C5.63155 13.285 6.8967 13.4119 8.16355 13.3921C9.43127 13.3716 10.6784 13.2036 11.7378 12.9087C12.811 12.6096 13.6236 12.199 14.0898 11.7396C14.1627 11.6676 14.2278 11.5236 14.2278 11.2767V7.84471C14.2278 7.66808 14.298 7.49868 14.4229 7.37378C14.5478 7.24888 14.7172 7.17871 14.8938 7.17871C15.0705 7.17871 15.2399 7.24888 15.3648 7.37378C15.4897 7.49868 15.5598 7.66808 15.5598 7.84471V11.2767C15.5598 11.7224 15.445 12.2727 15.025 12.6876C14.3273 13.3759 13.2636 13.8661 12.0944 14.1919C10.9107 14.521 9.5487 14.701 8.18584 14.7233C6.82298 14.7456 5.43698 14.6093 4.20612 14.293C2.98641 13.9801 1.86184 13.4736 1.08184 12.7124C0.648981 12.289 0.512695 11.7216 0.512695 11.2399V7.84557C0.512695 7.477 0.810124 7.17871 1.1787 7.17871Z" fill="#444444"/>
<path fill-rule="evenodd" clip-rule="evenodd" d="M4.25391 13.74V10.2788H5.58591V13.74H4.25391ZM9.43534 13.74V10.2788H10.7665V13.74H9.43534Z" fill="#444444"/>
<path fill-rule="evenodd" clip-rule="evenodd" d="M15.449 11.0282C15.4627 10.9417 15.4696 10.8534 15.4696 10.7642C15.4696 10.3982 15.3521 10.0451 15.1327 9.71251C15.4756 9.69022 15.8244 9.67822 16.1801 9.67822C20.3476 9.67822 23.7264 11.2691 23.7264 13.2302C23.7264 13.4359 23.6896 13.6365 23.6184 13.8319V17.1062C23.6184 17.5519 23.5036 18.1022 23.0836 18.5162C22.3859 19.2054 21.3221 19.6948 20.153 20.0205C18.9693 20.3505 17.6073 20.5305 16.2444 20.5519C14.8816 20.5742 13.4956 20.4388 12.2647 20.1225C11.045 19.8088 9.92043 19.3022 9.14043 18.5411C8.70757 18.1177 8.57129 17.5502 8.57129 17.0685V14.3025C9.25926 14.2764 9.9446 14.2028 10.6224 14.0822C10.8213 14.2262 11.0784 14.3797 11.411 14.5365C12.5621 15.0782 14.2473 15.4494 16.1801 15.4494C18.113 15.4494 19.7973 15.0782 20.9493 14.5365C21.8193 14.1268 22.1776 13.7359 22.3156 13.4805C22.3301 13.4327 22.3499 13.3867 22.3747 13.3434C22.3868 13.3068 22.3934 13.2687 22.3944 13.2302C22.3944 13.0682 22.2059 12.5154 20.9493 11.9239C19.7973 11.3822 18.1121 11.0102 16.1801 11.0102C15.9316 11.0102 15.6881 11.0162 15.449 11.0282ZM17.4941 16.7282C17.0673 16.7625 16.6284 16.7814 16.1801 16.7814C15.3308 16.7829 14.4827 16.7141 13.6447 16.5757V19.0477C14.465 19.1779 15.3427 19.2345 16.2221 19.2208C16.6469 19.2141 17.0712 19.1907 17.4941 19.1505V16.7274V16.7282ZM18.8253 16.5568V18.9628C19.1621 18.8985 19.487 18.8239 19.7964 18.7374C20.8704 18.4391 21.683 18.0277 22.1484 17.5682C22.2213 17.4971 22.2873 17.3522 22.2873 17.1054V15.3174C21.4233 15.8762 20.2233 16.3117 18.8261 16.5577L18.8253 16.5568ZM9.90243 15.2025C10.5256 15.6397 11.3493 16.0091 12.3127 16.2799V18.7554C11.3416 18.4734 10.5701 18.0765 10.0713 17.5888C9.977 17.4962 9.90243 17.3257 9.90243 17.0685V15.2025Z" fill="#444444"/>
</g>
</g>
</g>
<defs>
<clipPath id="clip0_314_2994">
<rect width="24" height="24" fill="white"/>
</clipPath>
<clipPath id="clip1_314_2994">
<rect width="24" height="24" fill="white"/>
</clipPath>
</defs>
</svg>
