<svg width="22" height="22" viewBox="0 0 22 22" fill="none" xmlns="http://www.w3.org/2000/svg">
<g clip-path="url(#clip0_314_2974)">
<path fill-rule="evenodd" clip-rule="evenodd" d="M3.82254 0.424026C3.62559 0.467709 3.43887 0.548848 3.27254 0.663026C3.05453 0.809463 2.87869 1.01047 2.76254 1.24603C2.74954 1.27403 2.73654 1.29403 2.72554 1.31303L2.71154 1.33503C2.60054 1.52903 2.60054 1.79103 2.60654 8.87103L2.60754 11.066L2.61354 20.253C2.61354 20.352 2.63154 20.449 2.66554 20.542C2.83954 21.009 3.14554 21.33 3.59054 21.513C3.70354 21.56 3.82454 21.583 3.94654 21.583H13.1485C13.2685 21.583 13.3865 21.56 13.4965 21.513C13.9415 21.328 14.2335 21.023 14.4185 20.55C14.457 20.4526 14.477 20.3488 14.4775 20.244L14.4835 18.322L14.4905 16.242H19.0425C19.1085 16.242 19.1725 16.222 19.2265 16.185L19.2365 16.178C19.2613 16.1628 19.2844 16.145 19.3055 16.125C19.3955 16.031 19.3955 15.845 19.3955 14.771V14.688C19.3955 13.572 19.3905 13.412 19.3555 13.336C19.2935 13.202 19.1975 13.146 18.9835 13.124C18.6665 13.09 18.4585 12.989 18.2635 12.775C18.1537 12.6529 18.0722 12.5081 18.0247 12.351C17.9771 12.1938 17.9648 12.0281 17.9886 11.8656C18.0124 11.7031 18.0716 11.5479 18.1622 11.4109C18.2527 11.2739 18.3724 11.1585 18.5125 11.073C18.6475 10.992 18.7285 10.967 18.9565 10.94C19.1805 10.912 19.2505 10.882 19.3255 10.779C19.363 10.7276 19.3833 10.6657 19.3835 10.602L19.3895 9.40603C19.3945 8.50803 19.3875 8.09203 19.3695 8.04603C19.3443 7.9941 19.3105 7.94678 19.2695 7.90603C19.2225 7.86015 19.1593 7.83464 19.0935 7.83503L13.0655 7.82203L6.93454 7.81003H6.20254L5.56754 7.82203C4.94454 7.83403 4.93154 7.83603 4.85454 7.89503C4.80921 7.93111 4.77349 7.97782 4.75054 8.03103C4.73454 8.07903 4.72554 8.55903 4.72554 9.37803C4.72554 10.538 4.72954 10.658 4.76854 10.737C4.82854 10.861 4.93854 10.917 5.16854 10.941C6.03254 11.031 6.44454 12.062 5.88554 12.737C5.69054 12.972 5.46254 13.089 5.13154 13.124C4.91654 13.148 4.83554 13.193 4.76854 13.328C4.72854 13.408 4.72554 13.525 4.72554 14.684V14.769C4.72554 15.846 4.72554 16.031 4.81554 16.125C4.83354 16.145 4.85554 16.16 4.88354 16.178L4.89354 16.185C4.94768 16.2222 5.01185 16.2421 5.07754 16.242H13.7805V18.178H3.30954V3.82603H13.7805V4.26803C13.7805 4.67603 13.7705 6.55103 13.8195 6.64003C13.9465 6.87403 14.3475 6.83403 14.4765 6.59803C14.5295 6.50203 14.4905 4.70403 14.4835 3.16703L14.4775 1.78703C14.477 1.68042 14.4587 1.57465 14.4235 1.47403L14.4195 1.46303C14.3457 1.24334 14.2249 1.04239 14.0655 0.874169C13.9061 0.705952 13.7119 0.574518 13.4965 0.489026C13.3862 0.443224 13.268 0.419444 13.1485 0.419026L8.60654 0.418026C6.00854 0.415026 3.85654 0.419026 3.82254 0.424026ZM13.2355 1.17903C13.4005 1.23203 13.6125 1.42203 13.7025 1.59803L13.7685 1.72703L13.7765 2.39903L13.7845 3.07203H3.34054C3.33054 3.07203 3.32154 2.76903 3.32154 2.39903C3.32154 1.73903 3.32254 1.72503 3.38054 1.61403C3.49354 1.39403 3.60754 1.28503 3.81754 1.19603L3.95654 1.13703H8.53054C12.7535 1.13703 13.1155 1.13903 13.2355 1.17903ZM14.4855 8.93203C14.4915 9.35203 14.5075 9.41203 14.6395 9.50903C14.7415 9.58403 14.9255 9.58703 15.0185 9.51603C15.1735 9.39603 15.1835 9.36103 15.1925 8.93303L15.1995 8.53903L16.9435 8.54503L18.6875 8.55203V10.23L18.5715 10.259C18.3262 10.3371 18.0978 10.461 17.8985 10.624C17.6185 10.863 17.4185 11.186 17.3165 11.56C17.2543 11.8379 17.2462 12.1251 17.2925 12.406C17.4505 13.078 17.9075 13.591 18.5215 13.783L18.6875 13.834V15.514H15.1965V15.151C15.1965 14.951 15.1865 14.761 15.1745 14.727C15.1371 14.6356 15.0649 14.5627 14.9738 14.5243C14.8828 14.4858 14.7802 14.485 14.6885 14.522C14.5285 14.588 14.5025 14.665 14.4885 15.112L14.4765 15.501L13.7835 15.508C13.5065 15.498 12.6145 15.512 12.6145 15.512L12.9995 15.508C13.0095 15.512 12.3635 15.512 11.3775 15.512H9.22254L5.43254 15.514V13.834L5.59554 13.78C5.87048 13.6915 6.12024 13.5385 6.32396 13.3337C6.52767 13.129 6.67943 12.8784 6.76654 12.603C6.86247 12.274 6.87519 11.9262 6.80354 11.591C6.64854 10.954 6.17654 10.443 5.58554 10.272L5.43354 10.229V8.55203L6.57354 8.54503C8.08187 8.54129 9.59021 8.54129 11.0985 8.54503L14.4815 8.55103L14.4865 8.93103L14.4855 8.93203ZM14.7335 10.738C14.6699 10.7598 14.6131 10.7977 14.5685 10.848L14.4885 10.938V12.013C14.4885 13.035 14.4915 13.092 14.5365 13.168C14.5995 13.274 14.7025 13.327 14.8485 13.327C14.9219 13.3258 14.993 13.3012 15.0515 13.2568C15.1099 13.2123 15.1527 13.1504 15.1735 13.08C15.1905 13.018 15.1975 12.65 15.1925 11.977C15.1845 11.003 15.1825 10.965 15.1345 10.898C15.0275 10.752 14.8945 10.698 14.7335 10.738ZM13.3495 18.932H13.7845L13.7765 19.604C13.7685 20.276 13.7685 20.277 13.7045 20.402C13.6201 20.569 13.4845 20.7046 13.3175 20.789L13.1835 20.855L8.58354 20.861L7.65154 20.863C4.07754 20.868 3.86154 20.869 3.71354 20.765C3.53498 20.6498 3.40233 20.4757 3.33854 20.273C3.31954 20.207 3.30954 19.952 3.30954 19.551V18.932L4.88954 18.926C5.75954 18.922 7.92054 18.922 9.69254 18.926L13.3495 18.932Z" fill="#444444"/>
<mask id="mask0_314_2974" style="mask-type:luminance" maskUnits="userSpaceOnUse" x="1" y="-1" width="20" height="24">
<path d="M1.60547 -0.583984H20.6055V22.416H1.60547V-0.583984Z" fill="white"/>
<path fill-rule="evenodd" clip-rule="evenodd" d="M3.82352 0.424026C3.62656 0.467709 3.43984 0.548848 3.27352 0.663026C3.0555 0.809463 2.87966 1.01047 2.76352 1.24603C2.75052 1.27403 2.73752 1.29403 2.72652 1.31303L2.71252 1.33503C2.60152 1.52903 2.60152 1.79103 2.60752 8.87103L2.60852 11.066L2.61452 20.253C2.61452 20.352 2.63252 20.449 2.66652 20.542C2.84052 21.009 3.14652 21.33 3.59152 21.513C3.70452 21.56 3.82552 21.583 3.94752 21.583H13.1495C13.2695 21.583 13.3875 21.56 13.4975 21.513C13.9425 21.328 14.2345 21.023 14.4195 20.55C14.4579 20.4526 14.4779 20.3488 14.4785 20.244L14.4845 18.322L14.4915 16.242H19.0435C19.1095 16.242 19.1735 16.222 19.2275 16.185L19.2375 16.178C19.2623 16.1628 19.2854 16.145 19.3065 16.125C19.3965 16.031 19.3965 15.845 19.3965 14.771V14.688C19.3965 13.572 19.3915 13.412 19.3565 13.336C19.2945 13.202 19.1985 13.146 18.9845 13.124C18.6675 13.09 18.4595 12.989 18.2645 12.775C18.1547 12.6529 18.0732 12.5081 18.0256 12.351C17.9781 12.1938 17.9658 12.0281 17.9896 11.8656C18.0133 11.7031 18.0726 11.5479 18.1632 11.4109C18.2537 11.2739 18.3733 11.1585 18.5135 11.073C18.6485 10.992 18.7295 10.967 18.9575 10.94C19.1815 10.912 19.2515 10.882 19.3265 10.779C19.364 10.7276 19.3843 10.6657 19.3845 10.602L19.3905 9.40603C19.3955 8.50803 19.3885 8.09203 19.3705 8.04603C19.3452 7.9941 19.3114 7.94678 19.2705 7.90603C19.2235 7.86015 19.1602 7.83464 19.0945 7.83503L13.0665 7.82203L6.93552 7.81003H6.20352L5.56852 7.82203C4.94552 7.83403 4.93252 7.83603 4.85552 7.89503C4.81019 7.93111 4.77446 7.97782 4.75152 8.03103C4.73552 8.07903 4.72652 8.55903 4.72652 9.37803C4.72652 10.538 4.73052 10.658 4.76952 10.737C4.82952 10.861 4.93952 10.917 5.16952 10.941C6.03352 11.031 6.44552 12.062 5.88652 12.737C5.69152 12.972 5.46352 13.089 5.13252 13.124C4.91752 13.148 4.83652 13.193 4.76952 13.328C4.72952 13.408 4.72652 13.525 4.72652 14.684V14.769C4.72652 15.846 4.72652 16.031 4.81652 16.125C4.83452 16.145 4.85652 16.16 4.88452 16.178L4.89452 16.185C4.94866 16.2222 5.01283 16.2421 5.07852 16.242H13.7815V18.178H3.31052V3.82603H13.7815V4.26803C13.7815 4.67603 13.7715 6.55103 13.8205 6.64003C13.9475 6.87403 14.3485 6.83403 14.4775 6.59803C14.5305 6.50203 14.4915 4.70403 14.4845 3.16703L14.4785 1.78703C14.478 1.68042 14.4597 1.57465 14.4245 1.47403L14.4205 1.46303C14.3467 1.24334 14.2259 1.04239 14.0665 0.874169C13.9071 0.705952 13.7129 0.574518 13.4975 0.489026C13.3872 0.443224 13.269 0.419444 13.1495 0.419026L8.60752 0.418026C6.00952 0.415026 3.85752 0.419026 3.82352 0.424026ZM13.2365 1.17903C13.4015 1.23203 13.6135 1.42203 13.7035 1.59803L13.7695 1.72703L13.7775 2.39903L13.7855 3.07203H3.34152C3.33152 3.07203 3.32252 2.76903 3.32252 2.39903C3.32252 1.73903 3.32352 1.72503 3.38152 1.61403C3.49452 1.39403 3.60852 1.28503 3.81852 1.19603L3.95752 1.13703H8.53152C12.7545 1.13703 13.1165 1.13903 13.2365 1.17903ZM14.4865 8.93203C14.4925 9.35203 14.5085 9.41203 14.6405 9.50903C14.7425 9.58403 14.9265 9.58703 15.0195 9.51603C15.1745 9.39603 15.1845 9.36103 15.1935 8.93303L15.2005 8.53903L16.9445 8.54503L18.6885 8.55203V10.23L18.5725 10.259C18.3272 10.3371 18.0988 10.461 17.8995 10.624C17.6195 10.863 17.4195 11.186 17.3175 11.56C17.2553 11.8379 17.2472 12.1251 17.2935 12.406C17.4515 13.078 17.9085 13.591 18.5225 13.783L18.6885 13.834V15.514H15.1975V15.151C15.1975 14.951 15.1875 14.761 15.1755 14.727C15.138 14.6356 15.0659 14.5627 14.9748 14.5243C14.8837 14.4858 14.7812 14.485 14.6895 14.522C14.5295 14.588 14.5035 14.665 14.4895 15.112L14.4775 15.501L13.7845 15.508C13.5075 15.498 12.6155 15.512 12.6155 15.512L13.0005 15.508C13.0105 15.512 12.3645 15.512 11.3785 15.512H9.22352L5.43352 15.514V13.834L5.59652 13.78C5.87146 13.6915 6.12122 13.5385 6.32493 13.3337C6.52865 13.129 6.6804 12.8784 6.76752 12.603C6.86345 12.274 6.87616 11.9262 6.80452 11.591C6.64952 10.954 6.17752 10.443 5.58652 10.272L5.43452 10.229V8.55203L6.57452 8.54503C8.08285 8.54129 9.59119 8.54129 11.0995 8.54503L14.4825 8.55103L14.4875 8.93103L14.4865 8.93203ZM14.7345 10.738C14.6709 10.7598 14.6141 10.7977 14.5695 10.848L14.4895 10.938V12.013C14.4895 13.035 14.4925 13.092 14.5375 13.168C14.6005 13.274 14.7035 13.327 14.8495 13.327C14.9229 13.3258 14.994 13.3012 15.0525 13.2568C15.1109 13.2123 15.1537 13.1504 15.1745 13.08C15.1915 13.018 15.1985 12.65 15.1935 11.977C15.1855 11.003 15.1835 10.965 15.1355 10.898C15.0285 10.752 14.8955 10.698 14.7345 10.738ZM13.3505 18.932H13.7855L13.7775 19.604C13.7695 20.276 13.7695 20.277 13.7055 20.402C13.6211 20.569 13.4855 20.7046 13.3185 20.789L13.1845 20.855L8.58452 20.861L7.65252 20.863C4.07852 20.868 3.86252 20.869 3.71452 20.765C3.53596 20.6498 3.40331 20.4757 3.33952 20.273C3.32052 20.207 3.31052 19.952 3.31052 19.551V18.932L4.89052 18.926C5.76052 18.922 7.92152 18.922 9.69352 18.926L13.3505 18.932Z" fill="black"/>
</mask>
<g mask="url(#mask0_314_2974)">
<path d="M13.0005 15.5082V15.3082H12.9685L12.9375 15.3182L13.0005 15.5082ZM11.8455 15.8922L11.7825 15.7022L11.8715 16.0902L11.8455 15.8922ZM12.5215 15.8042L12.5475 16.0022L12.6725 15.9862L12.7125 15.8662L12.5215 15.8042ZM4.03649 4.02623H8.62049V3.62623H4.03649V4.02623ZM8.57249 2.87223C6.96816 2.87224 5.36383 2.87224 3.75949 2.87223H3.34249L3.34049 3.27223H8.57249V2.87223ZM2.40749 8.87022L2.40849 11.0652H2.80849L2.80749 8.87022H2.40749ZM19.3405 16.3502L19.3505 16.3422L19.1245 16.0122L19.1145 16.0192L19.3405 16.3502ZM4.77149 16.3422L4.78149 16.3492L5.00849 16.0192L4.99749 16.0122L4.77149 16.3422ZM8.58349 20.6602L7.65249 20.6622V21.0622L8.58349 21.0602V20.6602ZM4.92649 14.7672V14.6832H4.52649V14.7682L4.92649 14.7672ZM19.1965 14.6872V14.7702H19.5965V14.6872H19.1965ZM12.9375 15.3182L11.7825 15.7022L11.9085 16.0812L13.0635 15.6972L12.9375 15.3182ZM13.0005 15.7072H13.7855V15.3072L13.0005 15.3082V15.7072ZM6.15549 7.61523L5.67649 7.73223L5.77149 8.12123L6.25049 8.00423L6.15549 7.61523ZM11.8715 16.0902L12.5475 16.0022L12.4955 15.6052L11.8195 15.6942L11.8715 16.0902ZM12.7115 15.8652L12.8065 15.5732L12.4255 15.4502L12.3305 15.7422L12.7115 15.8652ZM3.82349 0.425225L3.75349 0.0302254L3.82349 0.424225V0.425225ZM14.4915 16.2422V15.8422H14.0925L14.0915 16.2422H14.4915ZM19.3555 13.3362L19.7195 13.1692L19.3565 13.3362H19.3555ZM18.9855 13.1242L18.9425 13.5222L18.9845 13.1242H18.9855ZM6.20349 7.81023V7.41023H6.19549L6.20349 7.81023ZM4.76949 10.7372L5.12849 10.5612L4.76849 10.7372H4.76949ZM13.7815 16.2422H14.1815V15.8422H13.7815V16.2422ZM13.7815 18.1782V18.5782H14.1815V18.1782H13.7815ZM3.31049 18.1782H2.91049V18.5782H3.31049V18.1782ZM3.31049 3.82623V3.42623H2.91049V3.82623H3.31049ZM13.7815 3.82623H14.1815V3.42623H13.7815V3.82623ZM13.2375 1.17923L13.3605 0.799225L13.2365 1.17923H13.2375ZM13.7695 1.72723L14.1695 1.72223V1.62823L14.1255 1.54523L13.7695 1.72723ZM13.7855 3.07223V3.47223H14.1905L14.1855 3.06723L13.7855 3.07223ZM3.95749 1.13723V0.737225H3.87649L3.80049 0.770225L3.95649 1.13823L3.95749 1.13723ZM15.2005 8.53922L15.2025 8.13923L14.8085 8.13723L14.8005 8.53123L15.2005 8.53922ZM18.6885 8.55223H19.0885V8.15322L18.6895 8.15223L18.6885 8.55223ZM18.6885 10.2292L18.7865 10.6172L19.0885 10.5402V10.2302L18.6885 10.2292ZM18.6885 13.8342H19.0885V13.5402L18.8075 13.4532L18.6885 13.8342ZM18.6885 15.5142V15.9142H19.0885V15.5142H18.6885ZM15.1985 15.5142H14.7985V15.9142H15.1985V15.5142ZM14.4895 15.1122L14.8895 15.1242L14.4895 15.1112V15.1122ZM14.4775 15.5012L14.4815 15.9012L14.8655 15.8972L14.8775 15.5132L14.4775 15.5012ZM13.7845 15.5082L13.7705 15.9082H13.7895L13.7845 15.5082ZM12.6155 15.5122L12.6095 15.1122L12.6195 15.9122L12.6155 15.5122ZM13.0005 15.5082L13.1495 15.1372L13.0765 15.1072L12.9965 15.1082L13.0005 15.5082ZM5.43349 15.5142H5.03349V15.9142H5.43449L5.43349 15.5142ZM5.43349 13.8342L5.30749 13.4542L5.03449 13.5452V13.8342H5.43349ZM5.43449 10.2292H5.03449V10.5292L5.32349 10.6132L5.43449 10.2292ZM5.43449 8.55223L5.43149 8.15223L5.03449 8.15423V8.55223H5.43449ZM14.4825 8.55122L14.8825 8.54722L14.8785 8.15223H14.4835V8.55223L14.4825 8.55122ZM14.5695 10.8482L14.2705 10.5832L14.5695 10.8492V10.8482ZM14.4895 10.9382L14.1905 10.6722L14.0905 10.7862V10.9382H14.4895ZM13.7855 18.9322L14.1855 18.9372L14.1905 18.5322H13.7855V18.9322ZM13.1845 20.8552V21.2552H13.2765L13.3595 21.2142L13.1845 20.8552ZM3.31049 18.9322L3.30949 18.5322L2.91049 18.5342V18.9322H3.31049ZM13.4985 0.489225L13.3455 0.859225L13.4975 0.489225H13.4985ZM3.75349 0.0302254C3.52349 0.0702254 3.24749 0.195225 3.04649 0.333225L3.50049 0.992225C3.61954 0.910963 3.75237 0.852006 3.89249 0.818225L3.75349 0.0302254ZM3.04649 0.333225C2.76749 0.525225 2.54849 0.773225 2.40349 1.07123L3.12349 1.42123C3.20349 1.25523 3.32749 1.11223 3.50049 0.992225L3.04649 0.333225ZM2.20849 11.0662L2.21449 20.2542H3.01449L3.00849 11.0662H2.20849ZM2.29249 20.6822C2.50249 21.2492 2.88749 21.6562 3.43949 21.8832L3.74349 21.1432C3.40649 21.0052 3.17849 20.7692 3.04149 20.4022L2.29249 20.6822ZM3.94749 21.9842H8.54649V21.1842H3.94649V21.9842H3.94749ZM8.54649 21.9842H13.1495V21.1842H8.54649V21.9842ZM13.6515 21.8832C14.2015 21.6532 14.5705 21.2632 14.7915 20.6962L14.0475 20.4042C13.8995 20.7812 13.6825 21.0032 13.3425 21.1442L13.6515 21.8832ZM14.8785 20.2452L14.8845 18.3242L14.0845 18.3212L14.0785 20.2422L14.8785 20.2452ZM14.8845 18.3242L14.8915 16.2442L14.0915 16.2412L14.0845 18.3212L14.8845 18.3242ZM14.4915 16.6422H16.8185V15.8422H14.4905V16.6422H14.4915ZM16.8185 16.6422H19.0435V15.8422H16.8185V16.6422ZM19.7955 14.6882C19.7955 14.1322 19.7955 13.8072 19.7885 13.6102C19.7845 13.4412 19.7775 13.2952 19.7195 13.1692L18.9925 13.5042C18.9695 13.4542 18.9825 13.4252 18.9895 13.6342C18.9945 13.8162 18.9955 14.1282 18.9955 14.6882H19.7955ZM19.7195 13.1692C19.6589 13.0317 19.5558 12.9161 19.4255 12.8412C19.3022 12.7757 19.1667 12.7366 19.0275 12.7262L18.9425 13.5222C18.9825 13.5262 19.0085 13.5312 19.0225 13.5352C19.0375 13.5392 19.0365 13.5402 19.0285 13.5352C19.0173 13.5289 19.0071 13.5208 18.9985 13.5112C18.9905 13.5012 18.9895 13.4962 18.9925 13.5042L19.7195 13.1692ZM19.0275 12.7262C18.7965 12.7012 18.6825 12.6402 18.5605 12.5062L17.9685 13.0442C18.2355 13.3382 18.5385 13.4782 18.9425 13.5222L19.0275 12.7262ZM18.5605 12.5062C18.4593 12.3922 18.397 12.249 18.3826 12.0973C18.3682 11.9456 18.4025 11.7932 18.4805 11.6622L17.8005 11.2402C17.6306 11.5191 17.5552 11.8444 17.5855 12.1696C17.6157 12.4947 17.7501 12.8015 17.9685 13.0442L18.5605 12.5062ZM18.4805 11.6622C18.5402 11.5626 18.6224 11.4784 18.7205 11.4162L18.3065 10.7312C18.1003 10.8585 17.9269 11.0335 17.8005 11.2402L18.4805 11.6622ZM18.7205 11.4162C18.7502 11.3962 18.7825 11.3804 18.8165 11.3692C18.8789 11.3535 18.9424 11.3428 19.0065 11.3372L18.9095 10.5432C18.7915 10.5572 18.6855 10.5732 18.5855 10.6032C18.487 10.6334 18.3938 10.6765 18.3065 10.7312L18.7205 11.4162ZM19.0065 11.3372C19.1195 11.3242 19.2445 11.3042 19.3575 11.2542C19.4751 11.2026 19.5761 11.1196 19.6495 11.0142L19.0035 10.5432C18.9955 10.5532 18.9975 10.5492 19.0075 10.5412C19.0165 10.5332 19.0266 10.5265 19.0375 10.5212L19.0165 10.5262C18.9935 10.5312 18.9605 10.5362 18.9095 10.5432L19.0065 11.3372ZM19.7845 10.6052L19.7905 9.40823L18.9905 9.40423L18.9845 10.6002L19.7845 10.6052ZM19.7905 9.40823C19.7925 8.95823 19.7925 8.62722 19.7895 8.40022C19.7874 8.27912 19.7824 8.15809 19.7745 8.03722C19.7735 8.02623 19.7675 7.95923 19.7415 7.89623L18.9995 8.19522C18.9785 8.14222 18.9765 8.10023 18.9795 8.12523L18.9825 8.17222C18.9855 8.22423 18.9875 8.30223 18.9895 8.41222C18.9925 8.63023 18.9925 8.95522 18.9905 9.40423L19.7905 9.40823ZM19.7415 7.89623C19.7185 7.84235 19.6893 7.79134 19.6545 7.74423C19.6235 7.70081 19.5891 7.66001 19.5515 7.62223L18.9895 8.19223L18.9945 8.19722C18.9998 8.20363 19.0048 8.21031 19.0095 8.21723V8.21823L19.0075 8.21323C19.0049 8.20733 19.0016 8.20132 18.9995 8.19522L19.7425 7.89623H19.7415ZM19.0955 7.43523L13.0675 7.42223L13.0655 8.22223L19.0935 8.23522L19.0955 7.43523ZM13.0675 7.42223L6.93549 7.41023L6.93449 8.21023L13.0655 8.22223L13.0675 7.42223ZM6.19549 7.41023L5.56049 7.42223L5.57649 8.22223L6.21149 8.21023L6.19549 7.41023ZM5.56049 7.42223C5.26049 7.42823 5.07849 7.43223 4.96649 7.44323C4.89701 7.44898 4.82867 7.46447 4.76349 7.48923C4.68549 7.51923 4.63349 7.56223 4.61149 7.57923L5.10049 8.21222C5.11649 8.19923 5.09449 8.21823 5.06049 8.23223C5.03049 8.24323 5.01649 8.24223 5.04749 8.23923C5.11749 8.23223 5.25349 8.22923 5.57649 8.22223L5.56049 7.42223ZM4.61049 7.57923C4.50388 7.66403 4.42203 7.77594 4.37349 7.90323L5.13049 8.15923C5.12599 8.17302 5.1203 8.18641 5.11349 8.19923L5.11049 8.20323L5.10049 8.21222L4.61049 7.57923ZM4.37349 7.90323C4.35349 7.96123 4.34849 8.02122 4.34749 8.03222C4.34012 8.15745 4.33512 8.28281 4.33249 8.40823C4.32849 8.64023 4.32649 8.96823 4.32649 9.37823H5.12649C5.12649 8.97023 5.12849 8.64823 5.13249 8.42323C5.13467 8.3175 5.13867 8.21181 5.14449 8.10623C5.14649 8.07823 5.14649 8.11323 5.13049 8.15923L4.37349 7.90323ZM4.32649 9.37823C4.32649 9.95522 4.32649 10.2832 4.33349 10.4762C4.33849 10.6502 4.34749 10.7852 4.40949 10.9132L5.12849 10.5612C5.15249 10.6102 5.13849 10.6462 5.13349 10.4512C5.12679 10.0936 5.12446 9.73591 5.12649 9.37823H4.32649ZM4.40949 10.9132C4.47613 11.0519 4.58693 11.1644 4.72449 11.2332C4.85249 11.2982 4.99449 11.3252 5.12749 11.3392L5.21049 10.5432C5.17786 10.5404 5.14546 10.5353 5.11349 10.5282C5.09249 10.5222 5.08549 10.5182 5.08749 10.5202C5.09634 10.525 5.10443 10.5311 5.11149 10.5382C5.11823 10.545 5.12396 10.5528 5.12849 10.5612L4.40949 10.9132ZM5.12749 11.3392C5.66649 11.3942 5.93949 12.0462 5.57749 12.4822L6.19349 12.9922C6.95249 12.0782 6.40149 10.6662 5.21049 10.5422L5.12749 11.3392ZM5.57749 12.4822C5.45649 12.6292 5.32749 12.7022 5.09049 12.7272L5.17549 13.5222C5.59949 13.4772 5.92549 13.3152 6.19349 12.9922L5.57849 12.4822H5.57749ZM5.09049 12.7272C4.95414 12.7361 4.82106 12.7728 4.69949 12.8352C4.57272 12.908 4.47173 13.0185 4.41049 13.1512L5.12749 13.5062C5.13449 13.4922 5.13449 13.4952 5.12749 13.5042C5.11735 13.5163 5.10516 13.5264 5.09149 13.5342C5.07949 13.5392 5.07649 13.5392 5.09049 13.5352C5.11852 13.5291 5.14691 13.5247 5.17549 13.5222L5.09049 12.7272ZM4.41049 13.1512C4.34649 13.2802 4.33849 13.4152 4.33349 13.5892C4.32749 13.7812 4.32649 14.1082 4.32649 14.6842H5.12649C5.12649 14.1022 5.12749 13.7902 5.13349 13.6142C5.13949 13.4182 5.15249 13.4562 5.12749 13.5062L4.41049 13.1512ZM5.07849 16.6422H9.37949V15.8422H5.07849V16.6422ZM9.37949 16.6422H13.7815V15.8422H9.37949V16.6422ZM13.3825 16.2422V17.2102H14.1825V16.2422H13.3825ZM13.3825 17.2102V18.1782H14.1825V17.2102H13.3825ZM13.7825 17.7782H13.0065V18.5782H13.7815L13.7825 17.7782ZM13.0065 17.7782H4.03749L4.03649 18.5782H13.0065V17.7782ZM4.03749 17.7782H3.31049V18.5782H4.03649L4.03749 17.7782ZM3.71049 18.1782V11.0022H2.91049V18.1782H3.71049ZM3.71049 11.0022V3.82623H2.91049V11.0022H3.71049ZM3.31049 4.22623H4.03649V3.42623H3.31049V4.22623ZM8.61949 4.22623H13.1295L13.1285 3.42623H8.62049L8.61949 4.22623ZM13.1295 4.22623H13.7815V3.42623H13.1285L13.1295 4.22623ZM13.3825 3.82623V4.26823H14.1825V3.82623H13.3825ZM13.3825 4.26823C13.3825 4.46923 13.3795 5.04423 13.3825 5.57623C13.3845 5.84223 13.3875 6.10123 13.3935 6.30123C13.3965 6.40123 13.4005 6.48923 13.4055 6.55823C13.4096 6.61085 13.4163 6.66324 13.4255 6.71523C13.4285 6.72823 13.4395 6.77823 13.4695 6.83123L14.1705 6.44823C14.1965 6.49623 14.2055 6.53823 14.2055 6.53823L14.2075 6.54823C14.2007 6.45802 14.196 6.36766 14.1935 6.27723C14.1871 6.04194 14.1838 5.80659 14.1835 5.57123C14.1795 5.04123 14.1815 4.47523 14.1815 4.26823H13.3815H13.3825ZM13.4695 6.83123C13.6315 7.12923 13.9445 7.21123 14.1795 7.19423C14.3128 7.18585 14.4419 7.14457 14.5554 7.07406C14.6688 7.00356 14.763 6.90604 14.8295 6.79023L14.1265 6.40623C14.1345 6.39223 14.1425 6.38823 14.1385 6.39023C14.1323 6.39348 14.1255 6.39552 14.1185 6.39623C14.1085 6.39623 14.1095 6.39423 14.1205 6.39923C14.1296 6.40359 14.1381 6.40932 14.1455 6.41623C14.1555 6.42523 14.1645 6.43623 14.1705 6.44823L13.4695 6.83123ZM14.8295 6.79023C14.8484 6.75387 14.8625 6.71521 14.8715 6.67523C14.8814 6.62133 14.888 6.5669 14.8915 6.51223C14.8965 6.44123 14.8995 6.35023 14.9015 6.24523C14.9055 6.03323 14.9055 5.74723 14.9035 5.42023C14.8995 4.75623 14.8885 3.94023 14.8845 3.16523L14.0845 3.16923C14.0885 3.93123 14.0995 4.78223 14.1035 5.42523C14.1055 5.75223 14.1055 6.02923 14.1015 6.23023C14.1002 6.32231 14.0966 6.41434 14.0905 6.50623L14.0925 6.49323C14.0935 6.49023 14.1025 6.45223 14.1265 6.40623L14.8285 6.79023H14.8295ZM14.8845 3.16523L14.8785 1.78523L14.0785 1.78923L14.0845 3.16923L14.8845 3.16523ZM14.8025 1.34323L14.7985 1.33123L14.0425 1.59523L14.0465 1.60623L14.8025 1.34323ZM14.7985 1.33123C14.706 1.05843 14.5554 0.808919 14.3573 0.599865C14.1591 0.390811 13.918 0.227178 13.6505 0.120225L13.3455 0.859225C13.6855 0.999225 13.9215 1.24923 14.0425 1.59523L14.7985 1.33223V1.33123ZM13.1495 0.0202254L8.60749 0.0172254V0.817225L13.1495 0.820225V0.0202254ZM8.60749 0.0172254C7.04749 0.0165788 5.48749 0.0182455 3.92749 0.0222254C3.88148 0.0232197 3.83548 0.0245531 3.78949 0.0262254C3.77775 0.0267954 3.76506 0.0281316 3.75349 0.0302254L3.89249 0.818225C3.85949 0.824225 3.82749 0.824225 3.84649 0.824225C3.87645 0.822351 3.90648 0.821683 3.93649 0.822225L4.22049 0.821225C4.46749 0.819225 4.82049 0.819225 5.25349 0.818225C6.12049 0.816225 7.30849 0.816225 8.60749 0.817225V0.0172254ZM13.1135 1.55923L13.1245 1.56423C13.1628 1.58557 13.1987 1.61106 13.2315 1.64023C13.2905 1.69323 13.3315 1.74723 13.3475 1.78023L14.0595 1.41623C13.9844 1.27604 13.8848 1.15041 13.7655 1.04523C13.6487 0.936258 13.5109 0.852218 13.3605 0.798225L13.1135 1.55923ZM13.3475 1.78023L13.4135 1.91023L14.1255 1.54523L14.0595 1.41523L13.3475 1.78023ZM13.3695 1.73223L13.3775 2.40423L14.1775 2.39523L14.1695 1.72223L13.3695 1.73223ZM13.3775 2.40423L13.3855 3.07623L14.1855 3.06723L14.1775 2.39523L13.3775 2.40423ZM13.7855 2.67223H8.57249V3.47223H13.7855V2.67223ZM3.34249 2.67223C3.41431 2.67258 3.48471 2.69227 3.54629 2.72922C3.60788 2.76617 3.65838 2.81902 3.69249 2.88223C3.71331 2.9204 3.72687 2.96211 3.73249 3.00523C3.72963 2.95793 3.72763 2.91059 3.72649 2.86323C3.72318 2.70858 3.72184 2.5539 3.72249 2.39923H2.92249C2.92282 2.61428 2.92682 2.82931 2.93449 3.04423C2.93781 3.0869 2.94382 3.12931 2.95249 3.17123C2.97209 3.2445 3.01154 3.31094 3.06649 3.36323C3.14061 3.43313 3.23861 3.47211 3.34049 3.47223L3.34249 2.67223ZM3.72249 2.39923C3.72249 2.05923 3.72349 1.91123 3.72949 1.83023C3.73249 1.79523 3.73449 1.79423 3.73149 1.80523C3.72749 1.81723 3.72249 1.82523 3.73649 1.79723L3.02649 1.43123C3.00097 1.47734 2.9802 1.52592 2.96449 1.57623C2.94639 1.63982 2.93532 1.70521 2.93149 1.77123C2.92249 1.89023 2.92249 2.07923 2.92249 2.39923H3.72249ZM3.73649 1.79723C3.76207 1.74115 3.79688 1.68976 3.83949 1.64523C3.87911 1.61037 3.9249 1.58324 3.97449 1.56523L3.66249 0.828225C3.52383 0.884103 3.3967 0.965131 3.28749 1.06723C3.17549 1.17323 3.09449 1.29723 3.02549 1.43123L3.73649 1.79723ZM3.97449 1.56523L4.11449 1.50523L3.80049 0.770225L3.66049 0.829225L3.97349 1.56623L3.97449 1.56523ZM3.95749 1.53723H8.53149L8.53249 0.737225H3.95649V1.53723H3.95749ZM8.53149 1.53723C10.6435 1.53723 11.7885 1.53723 12.4195 1.54323C12.7365 1.54623 12.9175 1.55023 13.0245 1.55523C13.1415 1.56123 13.1385 1.56723 13.1135 1.55923L13.3605 0.799225C13.2642 0.771886 13.1646 0.757426 13.0645 0.756225C12.8519 0.74803 12.6392 0.743696 12.4265 0.743225C11.7905 0.737225 10.6425 0.737225 8.53049 0.737225L8.53149 1.53723ZM14.0875 8.93723C14.0895 9.13023 14.0925 9.30623 14.1295 9.44423C14.1691 9.60329 14.2668 9.74173 14.4035 9.83222L14.8765 9.18622C14.8545 9.17023 14.8635 9.17423 14.8765 9.19223C14.8879 9.20622 14.8967 9.22214 14.9025 9.23923V9.23423C14.8941 9.13175 14.8891 9.02903 14.8875 8.92622L14.0875 8.93622V8.93723ZM14.4035 9.83222C14.5274 9.91935 14.675 9.96646 14.8265 9.96723C14.983 9.97272 15.1369 9.92553 15.2635 9.83323L14.7755 9.19923C14.792 9.18565 14.811 9.17546 14.8315 9.16922C14.8395 9.16722 14.8415 9.16823 14.8405 9.16722L14.8425 9.16823C14.8455 9.16923 14.8585 9.17323 14.8765 9.18622L14.4035 9.83222ZM15.2635 9.83222C15.3975 9.74236 15.4967 9.60931 15.5445 9.45522C15.5865 9.31322 15.5895 9.13122 15.5935 8.94022L14.7935 8.92523C14.7927 9.00361 14.79 9.08196 14.7855 9.16022C14.7815 9.21523 14.7765 9.23022 14.7775 9.22622C14.7841 9.20745 14.7943 9.19013 14.8075 9.17523C14.8135 9.16722 14.8135 9.16923 14.7755 9.19923L15.2635 9.83323V9.83222ZM15.5935 8.94022L15.6005 8.54622L14.8005 8.53123L14.7935 8.92523L15.5935 8.94022ZM15.1995 8.93822L16.9425 8.94522L16.9455 8.14523L15.2025 8.13923L15.1995 8.93923V8.93822ZM16.9425 8.94522L18.6865 8.95222L18.6895 8.15223L16.9455 8.14523L16.9425 8.94522ZM18.2885 8.55223V9.39023H19.0885V8.55223H18.2885ZM18.2885 9.39023V10.2302H19.0885V9.39023H18.2885ZM18.5885 9.84223L18.4735 9.87222L18.6715 10.6462L18.7865 10.6172L18.5895 9.84223H18.5885ZM18.4735 9.87222C18.3335 9.90722 18.1765 9.97822 18.0405 10.0522C17.9005 10.1272 17.7555 10.2222 17.6405 10.3202L18.1595 10.9292C18.3115 10.805 18.4856 10.7091 18.6715 10.6462L18.4735 9.87222ZM17.6405 10.3202C17.2948 10.6183 17.0483 11.0139 16.9315 11.4552L17.7035 11.6652C17.7845 11.3652 17.9435 11.1122 18.1595 10.9292L17.6395 10.3202H17.6405ZM16.9315 11.4552C16.89 11.6262 16.8669 11.8013 16.8645 11.9772C16.8595 12.1482 16.8685 12.3432 16.9045 12.4962L17.6835 12.3152C17.6652 12.2109 17.6585 12.105 17.6635 11.9992C17.6685 11.8572 17.6835 11.7332 17.7035 11.6652L16.9315 11.4552ZM16.9045 12.4962C17.0915 13.2932 17.6425 13.9272 18.4025 14.1642L18.6425 13.4012C18.1755 13.2552 17.8115 12.8612 17.6835 12.3152L16.9045 12.4962ZM18.4025 14.1642L18.5685 14.2162L18.8075 13.4532L18.6425 13.4012L18.4025 14.1642ZM18.2885 13.8342V14.6742H19.0885V13.8342H18.2885ZM18.2885 14.6742V15.5142H19.0885V14.6742H18.2885ZM18.6885 15.1142H16.9425V15.9142H18.6885V15.1142ZM16.9425 15.1142H15.1975V15.9142H16.9425V15.1142ZM15.5975 15.5142V15.1512H14.7975V15.5142H15.5975ZM15.5975 15.1512C15.597 15.0134 15.5916 14.8757 15.5815 14.7382C15.5778 14.6875 15.5667 14.6374 15.5505 14.5892L14.8005 14.8662C14.7952 14.8529 14.7909 14.8392 14.7875 14.8252L14.7855 14.8122V14.8212L14.7915 14.8982C14.7958 14.9825 14.7978 15.0669 14.7975 15.1512H15.5975ZM15.5505 14.5892C15.5134 14.4934 15.4575 14.4059 15.3862 14.3319C15.3149 14.2579 15.2295 14.1988 15.1351 14.1581C15.0407 14.1174 14.9392 14.096 14.8364 14.0949C14.7336 14.0939 14.6317 14.1134 14.5365 14.1522L14.8415 14.8922C14.8295 14.8972 14.8215 14.8942 14.8215 14.8942C14.8215 14.8942 14.8085 14.8882 14.8005 14.8662L15.5505 14.5892ZM14.5365 14.1522C14.4473 14.1843 14.3677 14.2365 14.3018 14.3046C14.236 14.3727 14.1866 14.455 14.1575 14.5452C14.1045 14.6962 14.0965 14.8922 14.0895 15.0992L14.8895 15.1242C14.8935 15.0142 14.8975 14.9362 14.9025 14.8792C14.9085 14.8192 14.9145 14.8012 14.9135 14.8022C14.9031 14.8289 14.8866 14.8529 14.8655 14.8722C14.8395 14.8962 14.8205 14.9002 14.8415 14.8922L14.5365 14.1522ZM14.0895 15.0992L14.0775 15.4892L14.8775 15.5132L14.8895 15.1242L14.0895 15.0992ZM14.4735 15.1012L13.7815 15.1082L13.7895 15.9082L14.4815 15.9012L14.4735 15.1012ZM9.22349 15.1112L5.43349 15.1142L5.43449 15.9142L9.22349 15.9122V15.1122V15.1112ZM5.83349 15.5142V14.6742H5.03349V15.5142H5.83349ZM5.83349 14.6742V13.8342H5.03449L5.03349 14.6742H5.83349ZM5.56049 14.2142L5.72249 14.1592L5.47049 13.4002L5.30749 13.4542L5.56049 14.2142ZM5.72249 14.1592C6.05641 14.0513 6.35983 13.8654 6.60763 13.6169C6.85543 13.3684 7.04049 13.0644 7.14749 12.7302L6.38849 12.4762C6.32105 12.6927 6.20239 12.8897 6.04258 13.0506C5.88277 13.2114 5.68653 13.3314 5.47049 13.4002L5.72249 14.1592ZM7.14749 12.7302C7.26549 12.3772 7.28249 11.8652 7.19249 11.4962L6.41549 11.6852C6.47149 11.9152 6.45649 12.2722 6.38849 12.4762L7.14749 12.7302ZM7.19249 11.4962C7.00749 10.7322 6.43649 10.1012 5.69749 9.88822L5.47649 10.6572C5.91749 10.7842 6.29249 11.1772 6.41549 11.6852L7.19249 11.4962ZM5.69749 9.88822L5.54549 9.84422L5.32349 10.6132L5.47649 10.6572L5.69749 9.88822ZM5.83449 10.2282V9.39023H5.03449V10.2282H5.83449ZM5.83449 9.39023V8.55223H5.03449V9.39023H5.83449ZM5.43649 8.95222L6.57749 8.94522L6.57349 8.14523L5.43149 8.15223L5.43649 8.95222ZM6.57749 8.94522C7.20349 8.94123 9.23749 8.94123 11.0985 8.94522L11.1005 8.14523C9.5915 8.14105 8.08249 8.14105 6.57349 8.14523L6.57749 8.94522ZM11.0985 8.94522L14.4825 8.95123L14.4835 8.15123L11.1005 8.14523L11.0985 8.94522ZM14.0825 8.55622L14.0875 8.93622L14.8875 8.92622L14.8825 8.54622L14.0825 8.55622ZM14.6395 10.3502C14.5641 10.3701 14.4927 10.4029 14.4285 10.4472C14.3704 10.4858 14.3173 10.5315 14.2705 10.5832L14.8685 11.1142C14.8655 11.1162 14.8665 11.1172 14.8685 11.1142C14.8701 11.1128 14.8718 11.1125 14.8735 11.1112L14.8705 11.1132C14.8576 11.1191 14.8432 11.1238 14.8295 11.1272L14.6395 10.3502ZM14.2705 10.5832L14.1905 10.6732L14.7885 11.2042L14.8685 11.1142L14.2705 10.5832ZM14.0905 10.9382V12.0132H14.8905V10.9382H14.0905ZM14.0905 12.0132C14.0905 12.5192 14.0905 12.8002 14.0975 12.9622C14.1005 13.0422 14.1055 13.1142 14.1195 13.1802C14.1329 13.248 14.1579 13.313 14.1935 13.3722L14.8815 12.9642C14.8815 12.9642 14.8875 12.9742 14.8935 12.9892C14.8977 12.9989 14.901 13.009 14.9035 13.0192C14.8991 12.9894 14.8967 12.9594 14.8965 12.9292C14.8905 12.7882 14.8895 12.5292 14.8895 12.0132H14.0895H14.0905ZM14.1935 13.3732C14.3425 13.6232 14.5935 13.7272 14.8495 13.7272V12.9272C14.8245 12.9272 14.8275 12.9222 14.8435 12.9312C14.8587 12.9393 14.8718 12.951 14.8815 12.9652L14.1935 13.3722V13.3732ZM14.8495 13.7272C15.1765 13.7272 15.4695 13.5032 15.5595 13.1902L14.7895 12.9712C14.7923 12.9583 14.7994 12.9467 14.8095 12.9382C14.8212 12.9302 14.8353 12.9263 14.8495 12.9272V13.7272ZM15.5595 13.1902C15.5744 13.1276 15.5828 13.0636 15.5845 12.9992C15.5933 12.658 15.596 12.3166 15.5925 11.9752L14.7925 11.9802C14.7955 12.3162 14.7955 12.5722 14.7925 12.7512C14.7905 12.8412 14.7885 12.9082 14.7855 12.9542C14.7825 13.0192 14.7795 13.0072 14.7895 12.9712L15.5595 13.1902ZM15.5925 11.9752C15.5931 11.6755 15.5884 11.3758 15.5785 11.0762C15.5763 11.0035 15.5673 10.9312 15.5515 10.8602C15.5338 10.7891 15.5022 10.7221 15.4585 10.6632L14.8115 11.1332C14.795 11.1099 14.7828 11.0838 14.7755 11.0562C14.7725 11.0442 14.7765 11.0532 14.7805 11.1192C14.7875 11.2472 14.7895 11.4872 14.7935 11.9802L15.5935 11.9752H15.5925ZM15.4585 10.6632C15.3717 10.5318 15.246 10.4309 15.0989 10.3745C14.9519 10.3182 14.7908 10.3094 14.6385 10.3492L14.8295 11.1272C14.8375 11.1252 14.8375 11.1262 14.8315 11.1252C14.8233 11.1249 14.8152 11.1232 14.8075 11.1202C14.7975 11.1172 14.7935 11.1132 14.7945 11.1132C14.7945 11.1142 14.8015 11.1192 14.8115 11.1332L15.4585 10.6632ZM13.3505 19.3322H13.7855V18.5322H13.3505V19.3322ZM13.3855 18.9272L13.3775 19.5992L14.1775 19.6092L14.1855 18.9372L13.3855 18.9272ZM13.3775 19.5992C13.3785 19.7903 13.3742 19.9814 13.3645 20.1722C13.3615 20.2052 13.3585 20.2052 13.3625 20.1952C13.3645 20.1882 13.3675 20.1832 13.3495 20.2192L14.0605 20.5852C14.0745 20.5582 14.1015 20.5072 14.1225 20.4432C14.1431 20.3786 14.1561 20.3118 14.1615 20.2442C14.1715 20.1242 14.1735 19.9342 14.1775 19.6092L13.3775 19.5992ZM13.3495 20.2192C13.3044 20.3093 13.2319 20.3828 13.1425 20.4292L13.4935 21.1492C13.7385 21.0292 13.9365 20.8272 14.0605 20.5852L13.3495 20.2192ZM13.1425 20.4292L13.0085 20.4952L13.3595 21.2142L13.4935 21.1492L13.1425 20.4292ZM13.1825 20.4552L8.58249 20.4612L8.58449 21.2612L13.1845 21.2552L13.1825 20.4552ZM3.86949 20.3842L3.86149 20.3772C3.8006 20.318 3.75378 20.2459 3.72449 20.1662L2.95449 20.3812C2.99149 20.5142 3.06049 20.6442 3.13349 20.7492C3.20449 20.8522 3.30249 20.9652 3.41849 21.0442L3.86949 20.3842ZM3.72449 20.1662C3.73049 20.1882 3.72949 20.1912 3.72549 20.1532C3.72178 20.1096 3.71912 20.0659 3.71749 20.0222C3.7122 19.8656 3.70987 19.7089 3.71049 19.5522H2.91049C2.91049 19.7542 2.91349 19.9242 2.91849 20.0542C2.92149 20.1182 2.92449 20.1762 2.92849 20.2242C2.9324 20.2772 2.9411 20.3298 2.95449 20.3812L3.72449 20.1662ZM3.71049 19.5522V18.9322H2.91049V19.5522H3.71049ZM3.31249 19.3322L4.89249 19.3262L4.88949 18.5262L3.30949 18.5322L3.31249 19.3322ZM4.89249 19.3262C5.76049 19.3222 7.92149 19.3222 9.69349 19.3262L9.69449 18.5262C8.09283 18.5221 6.49116 18.5221 4.88949 18.5262L4.89249 19.3262ZM9.69349 19.3262L13.3505 19.3322V18.5322L9.69449 18.5262L9.69249 19.3252L9.69349 19.3262ZM13.7995 15.1082C13.6495 15.1022 13.3475 15.1032 13.0925 15.1062C12.9445 15.1075 12.7965 15.1092 12.6485 15.1112H12.6095L12.6155 15.5112L12.6215 15.9112H12.6605L12.7645 15.9092L13.0995 15.9062C13.3595 15.9032 13.6425 15.9032 13.7695 15.9072L13.7995 15.1082ZM8.61949 3.42523H4.03649V4.22623L8.62049 4.22523L8.61949 3.42523ZM3.34049 3.47223H8.57249V2.67223H3.34149L3.34049 3.47223ZM2.40349 1.07123C2.39774 1.08287 2.3914 1.09322 2.38449 1.10423L3.06849 1.51923C3.08049 1.49923 3.10049 1.46623 3.12349 1.41923L2.40349 1.06923V1.07123ZM2.38449 1.10423L2.36649 1.13423L3.05949 1.53423C3.06244 1.52919 3.06544 1.52419 3.06849 1.51923L2.38449 1.10423ZM2.36649 1.13423C2.29849 1.25223 2.26849 1.36823 2.25049 1.55923C2.23249 1.74023 2.22249 2.02923 2.21649 2.51423C2.20249 3.49323 2.20449 5.33222 2.20649 8.87022H3.00649C3.00449 5.32722 3.00249 3.49623 3.01649 2.52523C3.02249 2.03623 3.03249 1.78023 3.04649 1.63523C3.04916 1.59888 3.0545 1.56278 3.06249 1.52723C3.06249 1.52423 3.06249 1.52723 3.06049 1.53123L3.05949 1.53423L2.36649 1.13423ZM19.4635 16.5102C19.4835 16.4962 19.5425 16.4572 19.5945 16.4032L19.0175 15.8492L19.0335 15.8342L19.0275 15.8382L19.0115 15.8492L19.4635 16.5102ZM19.5945 16.4032C19.7525 16.2382 19.7735 16.0242 19.7845 15.8402C19.7965 15.6332 19.7955 15.3022 19.7955 14.7722H18.9955C18.9955 15.3172 18.9955 15.6162 18.9855 15.7942C18.9735 15.9942 18.9495 15.9202 19.0175 15.8492L19.5945 16.4032ZM19.7955 14.7722V14.6892H18.9955V14.7722H19.7955ZM4.32649 14.6852V14.7702H5.12649V14.6852H4.32649ZM4.32649 14.7702C4.32649 15.3002 4.32649 15.6322 4.33849 15.8402C4.34849 16.0242 4.36949 16.2382 4.52749 16.4032L5.10449 15.8492C5.17249 15.9192 5.14849 15.9942 5.13649 15.7932C5.12649 15.6152 5.12649 15.3162 5.12649 14.7692H4.32649V14.7702ZM4.52749 16.4032C4.58049 16.4582 4.63949 16.4962 4.65849 16.5092L5.11049 15.8492L5.09449 15.8392C5.0925 15.8375 5.0905 15.8359 5.08849 15.8342L5.10449 15.8492L4.52749 16.4032ZM7.65249 20.4622C5.86149 20.4652 4.92049 20.4682 4.40849 20.4562C4.2548 20.4558 4.10125 20.4471 3.94849 20.4302C3.89649 20.4232 3.91749 20.4202 3.94249 20.4382L3.48649 21.0942C3.58649 21.1642 3.68949 21.2012 3.83149 21.2222C3.95549 21.2402 4.13049 21.2502 4.38949 21.2562C4.91549 21.2682 5.86949 21.2662 7.65349 21.2642L7.65249 20.4642V20.4622ZM3.94249 20.4382L3.93949 20.4352C3.93581 20.4326 3.93214 20.4299 3.92849 20.4272L3.44349 21.0642L3.48649 21.0942L3.94249 20.4382ZM3.92849 20.4272L3.86949 20.3842L3.41949 21.0452C3.42766 21.0513 3.43567 21.0577 3.44349 21.0642L3.92849 20.4272ZM5.12049 15.8572L5.11049 15.8492L4.65849 16.5092L4.66849 16.5162L5.12049 15.8562V15.8572ZM19.0115 15.8492L19.0015 15.8562L19.4535 16.5162L19.4635 16.5102L19.0115 15.8492ZM3.00849 11.0662L3.00649 8.87022H2.20749L2.20849 11.0662H3.00849ZM7.65349 21.2642L8.58449 21.2612L8.58349 20.4612L7.65249 20.4622V21.2632L7.65349 21.2642ZM6.20349 8.21023H6.93449L6.93549 7.41023H6.20349V8.21023ZM12.6195 15.9122L13.0045 15.9082L12.9965 15.1082L12.6125 15.1122L12.6195 15.9122ZM12.8515 15.8802C12.7675 15.8463 12.6976 15.7849 12.653 15.7061C12.6085 15.6273 12.592 15.5356 12.6063 15.4462C12.6206 15.3568 12.6648 15.2749 12.7316 15.2139C12.7985 15.1528 12.8841 15.1163 12.9745 15.1102H12.8865L12.5625 15.1122H11.3785V15.9122C11.9132 15.9119 12.4478 15.9109 12.9825 15.9092C13.0136 15.9081 13.0446 15.9054 13.0755 15.9012C13.1392 15.8892 13.1989 15.8617 13.2495 15.8212C13.3042 15.7776 13.3465 15.7205 13.3723 15.6554C13.398 15.5904 13.4062 15.5197 13.3961 15.4505C13.3859 15.3813 13.3579 15.3159 13.3146 15.2609C13.2713 15.206 13.2144 15.1633 13.1495 15.1372L12.8515 15.8792V15.8802ZM11.3785 15.1112H9.22349V15.9122H11.3785V15.1112ZM13.6505 0.120225C13.4916 0.0544854 13.3214 0.0205121 13.1495 0.0202254V0.820225C13.2165 0.820225 13.2835 0.833225 13.3455 0.859225L13.6505 0.120225ZM14.8785 1.78623C14.8785 1.63623 14.8515 1.48523 14.8025 1.34323L14.0465 1.60723C14.0665 1.66723 14.0785 1.72623 14.0785 1.78923L14.8785 1.78623ZM19.5515 7.62223C19.4299 7.50245 19.2661 7.43528 19.0955 7.43523L19.0935 8.23623C19.0545 8.23604 19.0172 8.2196 18.9895 8.19223L19.5515 7.62223ZM19.0435 16.6422C19.1899 16.6426 19.3329 16.5993 19.4535 16.5162L19.0015 15.8562C19.0142 15.8477 19.0282 15.8431 19.0435 15.8432V16.6422ZM4.66849 16.5162C4.78907 16.5993 4.93209 16.6426 5.07849 16.6422V15.8432C5.09349 15.8432 5.10849 15.8482 5.12149 15.8572L4.66849 16.5162ZM14.7915 20.6962C14.8475 20.5532 14.8775 20.3992 14.8785 20.2452L14.0785 20.2422C14.0785 20.2982 14.0675 20.3532 14.0475 20.4052L14.7925 20.6972L14.7915 20.6962ZM3.43949 21.8842C3.59949 21.9512 3.77249 21.9842 3.94749 21.9842V21.1842C3.87753 21.1844 3.80822 21.1698 3.74349 21.1432L3.43949 21.8842ZM13.1495 21.9842C13.3215 21.9842 13.4925 21.9502 13.6515 21.8842L13.3425 21.1462C13.2814 21.1718 13.2158 21.1841 13.1495 21.1842V21.9852V21.9842ZM19.6495 11.0162C19.7364 10.8971 19.7837 10.7537 19.7845 10.6062L18.9845 10.6002C18.9845 10.5802 18.9905 10.5612 19.0025 10.5442L19.6495 11.0162ZM2.21449 20.2542C2.21449 20.4002 2.24149 20.5452 2.29249 20.6822L3.04249 20.4022C3.02435 20.3546 3.01486 20.3052 3.01449 20.2542H2.21449Z" fill="#444444"/>
</g>
</g>
<defs>
<clipPath id="clip0_314_2974">
<rect width="18" height="22" fill="white" transform="translate(2)"/>
</clipPath>
</defs>
</svg>
