<svg width="22" height="22" viewBox="0 0 22 22" fill="none" xmlns="http://www.w3.org/2000/svg">
<g clip-path="url(#clip0_314_2964)">
<g clip-path="url(#clip1_314_2964)">
<path fill-rule="evenodd" clip-rule="evenodd" d="M15.469 12.031H11C10.8646 12.0311 10.7304 12.0046 10.6053 11.9528C10.4802 11.901 10.3664 11.8251 10.2707 11.7293C10.1749 11.6336 10.099 11.5198 10.0472 11.3947C9.99545 11.2696 9.96887 11.1354 9.969 11V4.812C9.969 4.53856 10.0776 4.27632 10.271 4.08297C10.4643 3.88962 10.7266 3.781 11 3.781C11.2734 3.781 11.5357 3.88962 11.729 4.08297C11.9224 4.27632 12.031 4.53856 12.031 4.812V9.97H15.469C15.7424 9.97 16.0047 10.0786 16.198 10.272C16.3914 10.4653 16.5 10.7276 16.5 11.001C16.5 11.2744 16.3914 11.5367 16.198 11.73C16.0047 11.9234 15.7424 12.031 15.469 12.031ZM11 2.062C8.62963 2.062 6.35634 3.00363 4.68023 4.67973C3.00413 6.35584 2.0625 8.62913 2.0625 10.9995C2.0625 13.3699 3.00413 15.6432 4.68023 17.3193C6.35634 18.9954 8.62963 19.937 11 19.937C13.3702 19.937 15.6434 18.9954 17.3194 17.3194C18.9954 15.6434 19.937 13.3702 19.937 11C19.937 8.62976 18.9954 6.3566 17.3194 4.68059C15.6434 3.00457 13.3702 2.062 11 2.062ZM11 22C4.926 22 0 17.075 0 11C0 4.925 4.926 0 11 0C17.074 0 22 4.925 22 11C22 17.075 17.074 22 11 22Z" fill="#444444"/>
</g>
</g>
<defs>
<clipPath id="clip0_314_2964">
<rect width="22" height="22" fill="white"/>
</clipPath>
<clipPath id="clip1_314_2964">
<rect width="22" height="22" fill="white"/>
</clipPath>
</defs>
</svg>
