<svg xmlns="http://www.w3.org/2000/svg" width="313" height="351" fill="none" viewBox="0 0 313 351"><path fill="#f1f1f1" d="m162.698 14.683-42.073 18.394a8.48 8.48 0 0 0-5.08 7.678c-.14 13.322-8.108 25.373-20.298 30.702s-26.447 2.994-36.321-5.95a8.48 8.48 0 0 0-9.086-1.484L7.767 82.417A8.477 8.477 0 0 0 3.396 93.58L112.51 343.165a8.477 8.477 0 0 0 11.163 4.372l42.072-18.394a8.48 8.48 0 0 0 5.081-7.678c.139-13.321 8.107-25.373 20.297-30.702s26.448-2.994 36.321 5.949a8.48 8.48 0 0 0 9.087 1.485l42.073-18.394a8.477 8.477 0 0 0 4.371-11.163L173.861 19.055a8.477 8.477 0 0 0-11.163-4.372M22.326 94.555 51.92 81.617c14.458 10.431 33.557 12.615 50.117 5.374 16.562-7.24 27.929-22.743 30.089-40.439l29.595-12.939 21.422 49-139.396 60.942zm241.721 173.109-29.596 12.939c-14.457-10.431-33.557-12.614-50.118-5.374-16.56 7.24-27.927 22.743-30.088 40.439l-29.596 12.939-74.11-169.518 139.398-60.942z"/><path fill="#f1f1f1" d="m264.047 267.664-29.596 12.939c-14.457-10.431-33.557-12.614-50.118-5.374-16.56 7.24-27.927 22.743-30.088 40.439l-29.596 12.939-74.11-169.518 139.398-60.942zM22.326 94.556 51.92 81.617c14.458 10.431 33.557 12.615 50.117 5.374 16.562-7.24 27.929-22.743 30.089-40.439l29.595-12.939 21.422 49-139.396 60.942z"/><path fill="#e4e2e2" d="m162.698 14.683-42.073 18.394a8.48 8.48 0 0 0-5.08 7.678c-.14 13.322-8.108 25.373-20.298 30.702s-26.447 2.994-36.321-5.95a8.48 8.48 0 0 0-9.086-1.484L7.767 82.417A8.477 8.477 0 0 0 3.396 93.58L112.51 343.165a8.477 8.477 0 0 0 11.163 4.372l42.072-18.394a8.48 8.48 0 0 0 5.081-7.678c.139-13.321 8.107-25.373 20.297-30.702s26.448-2.994 36.321 5.949a8.48 8.48 0 0 0 9.087 1.485l42.073-18.394a8.477 8.477 0 0 0 4.371-11.163L173.861 19.055a8.477 8.477 0 0 0-11.163-4.372M22.326 94.555 51.92 81.617c14.458 10.431 33.557 12.615 50.117 5.374 16.562-7.24 27.929-22.743 30.089-40.439l29.595-12.939 21.422 49-139.396 60.942zm241.721 173.109-29.596 12.939c-14.457-10.431-33.557-12.614-50.118-5.374-16.56 7.24-27.927 22.743-30.088 40.439l-29.596 12.939-74.11-169.518 139.398-60.942z"/><path fill="#fff8db" d="m304.528 5.713-45.894-1.477a8.48 8.48 0 0 0-7.888 4.749c-5.852 11.968-18.226 19.424-31.524 18.996s-25.166-8.666-30.237-20.985a8.48 8.48 0 0 0-7.566-5.246L135.525.273a8.477 8.477 0 0 0-8.745 8.2l-8.764 272.254a8.476 8.476 0 0 0 8.199 8.745l45.894 1.478a8.48 8.48 0 0 0 7.888-4.749c5.852-11.968 18.226-19.425 31.524-18.997 13.297.428 25.166 8.665 30.237 20.985a8.48 8.48 0 0 0 7.566 5.246l45.894 1.478a8.477 8.477 0 0 0 8.745-8.2l8.765-272.254a8.48 8.48 0 0 0-8.2-8.746M143.453 17.491l32.283 1.039c8.57 15.633 24.876 25.814 42.94 26.396 18.066.581 34.993-8.53 44.55-23.58l32.284 1.04-1.721 53.45-152.057-4.895zm143.839 260.204-32.284-1.04c-8.57-15.633-24.876-25.814-42.941-26.395-18.065-.582-34.992 8.53-44.55 23.579l-32.283-1.039 5.952-184.914 152.059 4.895z"/><path fill="#fff8db" d="m287.292 277.695-32.284-1.04c-8.57-15.633-24.876-25.814-42.941-26.395-18.065-.582-34.992 8.53-44.55 23.579l-32.283-1.039 5.952-184.914 152.059 4.895zM143.453 17.49l32.283 1.04c8.57 15.633 24.876 25.814 42.94 26.396 18.066.581 34.993-8.53 44.55-23.58l32.284 1.04-1.721 53.45-152.057-4.895z"/><path fill="#f6eec3" d="m304.528 5.713-45.894-1.477a8.48 8.48 0 0 0-7.888 4.749c-5.852 11.968-18.226 19.424-31.524 18.996s-25.166-8.666-30.237-20.985a8.48 8.48 0 0 0-7.566-5.246L135.525.273a8.477 8.477 0 0 0-8.745 8.2l-8.764 272.254a8.476 8.476 0 0 0 8.199 8.745l45.894 1.478a8.48 8.48 0 0 0 7.888-4.749c5.852-11.968 18.226-19.425 31.524-18.997 13.297.428 25.166 8.665 30.237 20.985a8.48 8.48 0 0 0 7.566 5.246l45.894 1.478a8.477 8.477 0 0 0 8.745-8.2l8.765-272.254a8.48 8.48 0 0 0-8.2-8.746M143.453 17.491l32.283 1.039c8.57 15.633 24.876 25.814 42.94 26.396 18.066.581 34.993-8.53 44.55-23.58l32.284 1.04-1.721 53.45-152.057-4.895zm143.839 260.204-32.284-1.04c-8.57-15.633-24.876-25.814-42.941-26.395-18.065-.582-34.992 8.53-44.55 23.579l-32.283-1.039 5.952-184.914 152.059 4.895z"/></svg>