<svg width="20" height="20" viewBox="0 0 20 20" fill="none" xmlns="http://www.w3.org/2000/svg">
<path fill-rule="evenodd" clip-rule="evenodd" d="M18.109 14.9999L11.4423 3.33319C11.297 3.0767 11.0862 2.86335 10.8314 2.71492C10.5767 2.56649 10.2872 2.48828 9.99234 2.48828C9.69752 2.48828 9.40797 2.56649 9.15324 2.71492C8.8985 2.86335 8.6877 3.0767 8.54234 3.33319L1.87567 14.9999C1.72874 15.2543 1.6517 15.5431 1.65235 15.837C1.653 16.1308 1.73132 16.4192 1.87938 16.673C2.02744 16.9269 2.23996 17.137 2.49542 17.2822C2.75088 17.4274 3.04018 17.5025 3.33401 17.4999H16.6673C16.9598 17.4996 17.2469 17.4223 17.5001 17.2759C17.7532 17.1295 17.9634 16.9191 18.1094 16.6658C18.2555 16.4125 18.3324 16.1252 18.3323 15.8328C18.3322 15.5404 18.2552 15.2531 18.109 14.9999ZM9.25068 10.8329V7.49986C9.25068 7.08565 9.58646 6.74986 10.0007 6.74986C10.4149 6.74986 10.7507 7.08565 10.7507 7.49986V10.8329C10.7507 11.2471 10.4149 11.5829 10.0007 11.5829C9.58646 11.5829 9.25068 11.2471 9.25068 10.8329ZM10.7595 14.1665C10.7595 13.7525 10.4235 13.4168 10.0095 13.4165H10.0007C9.58646 13.4165 9.25068 13.7523 9.25068 14.1665C9.25068 14.5807 9.58646 14.9165 10.0007 14.9165H10.0095C10.4235 14.9163 10.7595 14.5806 10.7595 14.1665Z" fill="#F54545"/>
</svg>
