<svg width="15" height="15" viewBox="0 0 15 15" fill="none" xmlns="http://www.w3.org/2000/svg">
<path d="M4.16992 4.44629C4.25387 3.97018 4.3798 3.25602 4.5477 2.3038C4.72374 1.30541 5.67581 0.638773 6.67419 0.814815L12.0974 1.77108C13.0958 1.94712 13.7624 2.89918 13.5864 3.89757L12.6301 9.32079C12.4541 10.3192 11.502 10.9858 10.5036 10.8098C10.2684 10.7683 10.092 10.7372 9.97438 10.7165" stroke="#222222" stroke-width="1.57339"/>
<path d="M2.62274 4.43506H8.12962C9.14341 4.43506 9.96524 5.2569 9.96524 6.27069V11.7776C9.96524 12.7914 9.14341 13.6132 8.12962 13.6132H2.62274C1.60895 13.6132 0.787109 12.7914 0.787109 11.7776V6.27069C0.787109 5.2569 1.60895 4.43506 2.62274 4.43506Z" stroke="#222222" stroke-width="1.57339"/>
</svg>
