<svg width="41" height="41" viewBox="0 0 41 41" fill="none" xmlns="http://www.w3.org/2000/svg">
<circle cx="20.5" cy="20.5" r="20.5" transform="matrix(-1 0 0 1 41 0)" fill="white"/>
<path d="M25.3536 19.6464C25.5488 19.8417 25.5488 20.1583 25.3536 20.3536L22.1716 23.5355C21.9763 23.7308 21.6597 23.7308 21.4645 23.5355C21.2692 23.3403 21.2692 23.0237 21.4645 22.8284L24.2929 20L21.4645 17.1716C21.2692 16.9763 21.2692 16.6597 21.4645 16.4645C21.6597 16.2692 21.9763 16.2692 22.1716 16.4645L25.3536 19.6464ZM17 20L17 19.5L25 19.5L25 20L25 20.5L17 20.5L17 20Z" fill="#303030"/>
</svg>
