<svg width="20" height="14" viewBox="0 0 20 14" fill="none" xmlns="http://www.w3.org/2000/svg">
<path d="M15.0833 4.89945L14.8957 4.83225L13.3069 1.85339C13.0085 1.29358 12.5635 0.825415 12.0196 0.498958C11.4757 0.172501 10.8532 3.38205e-05 10.2188 2.91593e-09H6.2181C5.48342 -2.99791e-05 4.76737 0.231151 4.17142 0.660782C3.57546 1.09041 3.12983 1.6967 2.89767 2.39373L2.14036 4.66567C1.50589 4.9331 0.964395 5.38174 0.583675 5.95543C0.202956 6.52913 -7.51104e-05 7.20238 2.08441e-08 7.89091V9.44893C2.08441e-08 10.4428 0.592133 11.2967 1.44184 11.6817C1.55187 12.3121 1.87459 12.8859 2.35623 13.3073C2.83787 13.7287 3.44936 13.9724 4.08885 13.9978C4.72833 14.0232 5.3572 13.8287 5.87072 13.4467C6.38423 13.0648 6.75138 12.5184 6.91102 11.8987H12.6868C12.8464 12.5184 13.2136 13.0648 13.7271 13.4467C14.2406 13.8287 14.8695 14.0232 15.5089 13.9978C16.1484 13.9724 16.7599 13.7287 17.2416 13.3073C17.7232 12.8859 18.0459 12.3121 18.1559 11.6817C18.5856 11.4877 18.9502 11.1739 19.206 10.7778C19.4617 10.3818 19.5978 9.92037 19.5978 9.44893V8.97439C19.5977 8.25196 19.374 7.54727 18.9574 6.95702C18.5409 6.36678 17.9519 5.91992 17.2712 5.67776L15.1575 4.92604V4.89945H15.0833ZM6.2181 1.39984H7.69913V4.89945H3.5374L4.22472 2.83608C4.36408 2.41768 4.63163 2.05378 4.98942 1.79598C5.34722 1.53819 5.7771 1.39959 6.2181 1.39984ZM9.09897 1.39984H10.2188C10.5995 1.39971 10.973 1.50306 11.2995 1.69883C11.626 1.89461 11.8931 2.17545 12.0722 2.51132L13.3461 4.89945H9.09897V1.39984ZM14.8425 6.29929L16.8023 6.99641C17.2106 7.14175 17.564 7.40989 17.8139 7.76403C18.0637 8.11817 18.1979 8.54096 18.1979 8.97439V9.44893C18.1979 9.6939 18.114 9.91928 17.974 10.0985C17.7447 9.56026 17.3525 9.10741 16.8527 8.80351C16.3528 8.49961 15.7703 8.35994 15.1869 8.40411C14.6036 8.44829 14.0487 8.67408 13.6003 9.04978C13.1519 9.42549 12.8324 9.93222 12.6868 10.4988H6.91102C6.76538 9.93222 6.44591 9.42549 5.99749 9.04978C5.54906 8.67408 4.99421 8.44829 4.41087 8.40411C3.82753 8.35994 3.24501 8.49961 2.74513 8.80351C2.24524 9.10741 1.85311 9.56026 1.62382 10.0985C1.47813 9.91336 1.39921 9.68449 1.39984 9.44893V7.89091C1.39984 7.26098 1.67981 6.68704 2.12776 6.29929H14.8425ZM2.79968 11.1987C2.79968 10.8275 2.94717 10.4714 3.20969 10.2089C3.47221 9.94637 3.82826 9.79889 4.19952 9.79889C4.57079 9.79889 4.92684 9.94637 5.18936 10.2089C5.45188 10.4714 5.59937 10.8275 5.59937 11.1987C5.59937 11.57 5.45188 11.926 5.18936 12.1886C4.92684 12.4511 4.57079 12.5986 4.19952 12.5986C3.82826 12.5986 3.47221 12.4511 3.20969 12.1886C2.94717 11.926 2.79968 11.57 2.79968 11.1987ZM15.3983 9.79889C15.7695 9.79889 16.1256 9.94637 16.3881 10.2089C16.6506 10.4714 16.7981 10.8275 16.7981 11.1987C16.7981 11.57 16.6506 11.926 16.3881 12.1886C16.1256 12.4511 15.7695 12.5986 15.3983 12.5986C15.027 12.5986 14.6709 12.4511 14.4084 12.1886C14.1459 11.926 13.9984 11.57 13.9984 11.1987C13.9984 10.8275 14.1459 10.4714 14.4084 10.2089C14.6709 9.94637 15.027 9.79889 15.3983 9.79889Z" fill="#495560"/>
</svg>
