<svg width="18" height="18" viewBox="0 0 18 18" fill="none" xmlns="http://www.w3.org/2000/svg">
<path fill-rule="evenodd" clip-rule="evenodd" d="M1 9C1 4.58172 2.98172 0.999999 9 1C15.0183 1 17 4.58172 17 9C17 13.4183 15.0183 17 9 17C2.98172 17 1 13.4183 1 9ZM9 11.292C8.50294 11.292 8.1 11.6949 8.1 12.192V12.1995C8.1 12.6965 8.50294 13.0995 9 13.0995C9.49706 13.0995 9.9 12.6965 9.9 12.1995V12.192C9.9 11.6949 9.49706 11.292 9 11.292ZM9.7 5.80002V9.00002C9.7 9.38662 9.3866 9.70002 9 9.70002C8.6134 9.70002 8.3 9.38662 8.3 9.00002V5.80002C8.3 5.41342 8.6134 5.10002 9 5.10002C9.3866 5.10002 9.7 5.41342 9.7 5.80002Z" fill="#BF9130"/>
</svg>
