<svg width="20" height="20" viewBox="0 0 20 20" fill="none" xmlns="http://www.w3.org/2000/svg">
<g clip-path="url(#clip0_2104_621)">
<path d="M8.23319 8.2334C7.98757 8.46227 7.79056 8.73827 7.65392 9.04494C7.51729 9.3516 7.44381 9.68265 7.43789 10.0183C7.43197 10.354 7.49372 10.6874 7.61945 10.9987C7.74519 11.31 7.93234 11.5928 8.16973 11.8302C8.40713 12.0676 8.68991 12.2547 9.0012 12.3805C9.3125 12.5062 9.64593 12.568 9.9816 12.562C10.3173 12.5561 10.6483 12.4826 10.955 12.346C11.2617 12.2094 11.5377 12.0124 11.7665 11.7667" stroke="#171519" stroke-width="1.5" stroke-linecap="round" stroke-linejoin="round"/>
<path d="M8.94141 4.23317C9.2925 4.18943 9.64593 4.16716 9.99974 4.1665C15.8331 4.1665 18.3331 9.99984 18.3331 9.99984C17.9605 10.7974 17.4933 11.5473 16.9414 12.2332" stroke="#171519" stroke-width="1.5" stroke-linecap="round" stroke-linejoin="round"/>
<path d="M5.50768 5.50879C3.85039 6.63764 2.52424 8.18817 1.66602 10.0005C1.66602 10.0005 4.16602 15.8338 9.99935 15.8338C11.5959 15.8381 13.1583 15.3714 14.491 14.4921" stroke="#171519" stroke-width="1.5" stroke-linecap="round" stroke-linejoin="round"/>
<path d="M1.66602 1.6665L18.3327 18.3332" stroke="#171519" stroke-width="1.5" stroke-linecap="round" stroke-linejoin="round"/>
</g>
<defs>
<clipPath id="clip0_2104_621">
<rect width="20" height="20" fill="white"/>
</clipPath>
</defs>
</svg>
