<svg width="20" height="14" viewBox="0 0 20 14" fill="none" xmlns="http://www.w3.org/2000/svg">
<path d="M13.5979 7.98875C14.7868 8.8025 15.6198 9.905 15.6198 11.375V14H19.0909V11.375C19.0909 9.4675 15.993 8.33875 13.5979 7.98875ZM12.1488 7C14.0665 7 15.6198 5.43375 15.6198 3.5C15.6198 1.56625 14.0665 0 12.1488 0C11.7409 0 11.3591 0.0874998 10.9946 0.21C11.7414 1.14119 12.1487 2.30248 12.1487 3.5C12.1487 4.69752 11.7414 5.85881 10.9946 6.79C11.3591 6.9125 11.7409 7 12.1488 7ZM6.94215 7C8.85992 7 10.4132 5.43375 10.4132 3.5C10.4132 1.56625 8.85992 0 6.94215 0C5.02438 0 3.47107 1.56625 3.47107 3.5C3.47107 5.43375 5.02438 7 6.94215 7ZM6.94215 1.75C7.8967 1.75 8.67769 2.5375 8.67769 3.5C8.67769 4.4625 7.8967 5.25 6.94215 5.25C5.9876 5.25 5.20661 4.4625 5.20661 3.5C5.20661 2.5375 5.9876 1.75 6.94215 1.75ZM6.94215 7.875C4.62521 7.875 0 9.0475 0 11.375V14H13.8843V11.375C13.8843 9.0475 9.25909 7.875 6.94215 7.875ZM12.1488 12.25H1.73554V11.3837C1.90909 10.7537 4.59917 9.625 6.94215 9.625C9.28512 9.625 11.9752 10.7537 12.1488 11.375V12.25Z" fill="#495560"/>
</svg>
