<svg width="18" height="18" viewBox="0 0 18 18" fill="none" xmlns="http://www.w3.org/2000/svg">
<path fill-rule="evenodd" clip-rule="evenodd" d="M8.25 2.25C4.93629 2.25 2.25 4.93629 2.25 8.25C2.25 11.5637 4.93629 14.25 8.25 14.25C11.5637 14.25 14.25 11.5637 14.25 8.25C14.25 4.93629 11.5637 2.25 8.25 2.25ZM0.75 8.25C0.75 4.10786 4.10786 0.75 8.25 0.75C12.3921 0.75 15.75 4.10786 15.75 8.25C15.75 12.3921 12.3921 15.75 8.25 15.75C4.10786 15.75 0.75 12.3921 0.75 8.25Z" fill="white"/>
<path fill-rule="evenodd" clip-rule="evenodd" d="M13.5001 12.4395L16.2804 15.2198C16.5733 15.5127 16.5733 15.9876 16.2804 16.2805C15.9876 16.5734 15.5127 16.5734 15.2198 16.2805L12.4395 13.5002L13.5001 12.4395Z" fill="white"/>
</svg>
