<svg width="27" height="39" viewBox="0 0 27 39" fill="none" xmlns="http://www.w3.org/2000/svg">
<path fill-rule="evenodd" clip-rule="evenodd" d="M12.9721 38.9989C8.7171 38.9989 4.81518 36.9216 2.26676 33.2999C-2.75855 26.1578 2.51539 14.3623 2.74208 13.8634C2.9258 13.4592 3.52612 13.5314 3.60747 13.9697C3.76126 14.8013 4.29256 16.7777 5.15293 17.7804C5.10151 14.7923 5.50964 5.77298 11.837 0.116507C12.0555 -0.0786462 12.5434 -0.0724762 12.6046 0.488989C12.7694 2.00817 13.5182 7.07255 16.2396 8.45371C16.5072 8.5899 19.041 11.7857 19.4825 14.7514C19.9265 14.1744 20.5412 12.9297 20.8221 10.318C20.8639 9.92901 21.3458 9.76996 21.6118 10.0559C21.708 10.1594 31.1506 20.5468 24.5663 32.057C22.0801 36.4043 17.7461 38.9989 12.9721 38.9989Z" fill="#FFA725"/>
<path fill-rule="evenodd" clip-rule="evenodd" d="M13.6808 35.7818C16.2031 35.7818 18.5162 34.5506 20.0269 32.4037C23.0058 28.1697 19.8795 21.1776 19.7451 20.8819C19.6361 20.6422 19.2803 20.6851 19.2321 20.945C19.1409 21.4379 18.826 22.6095 18.316 23.2038C18.3464 21.4324 18.1046 16.086 14.3538 12.7328C14.2242 12.6171 13.9351 12.6208 13.8988 12.9535C13.801 13.8541 13.3572 16.8561 11.7439 17.6749C11.5853 17.7556 10.0832 19.6502 9.82136 21.4082C9.5581 21.0661 9.19362 20.3282 9.02726 18.78C9.00235 18.5494 8.71671 18.455 8.55926 18.6246C8.50213 18.6861 2.90484 24.8437 6.80791 31.6667C8.28184 34.2437 10.8507 35.7818 13.6808 35.7818Z" fill="#FF871E"/>
</svg>
