<svg width="18" height="18" viewBox="0 0 18 18" fill="none" xmlns="http://www.w3.org/2000/svg">
<path fill-rule="evenodd" clip-rule="evenodd" d="M8.85022 3C9.31966 3 9.70022 3.38056 9.70022 3.85V8.00022H13.8504C14.3199 8.00022 14.7004 8.38078 14.7004 8.85022C14.7004 9.31966 14.3199 9.70022 13.8504 9.70022H9.70022V13.8504C9.70022 14.3199 9.31966 14.7004 8.85022 14.7004C8.38078 14.7004 8.00022 14.3199 8.00022 13.8504V9.70022H3.85C3.38056 9.70022 3 9.31966 3 8.85022C3 8.38078 3.38056 8.00022 3.85 8.00022H8.00022V3.85C8.00022 3.38056 8.38078 3 8.85022 3Z" fill="black"/>
</svg>
