<svg width="20" height="20" viewBox="0 0 20 20" fill="none" xmlns="http://www.w3.org/2000/svg">
<path fill-rule="evenodd" clip-rule="evenodd" d="M3.66294 2.47431C4.64534 2.25138 6.52018 2 10 2C13.4798 2 15.3546 2.25138 16.337 2.47431C17.1783 2.66489 17.6576 3.3728 17.7469 4.13262C17.9227 5.65425 18.007 7.18506 17.9993 8.7168C17.9798 12.1379 16.1699 15.3366 13.1235 16.9494C12.5782 17.2381 12.0246 17.4973 11.5022 17.6854C10.9863 17.8713 10.4669 18 10 18C9.53312 18 9.01368 17.8713 8.49816 17.6854C7.97546 17.4973 7.42186 17.2381 6.8768 16.9494C3.82969 15.3366 2.01991 12.1379 2.00035 8.7168L2 8.50664C2 6.6464 2.14258 5.072 2.25315 4.13262C2.34205 3.3728 2.82205 2.66489 3.66294 2.47431Z" fill="#60B259"/>
<path d="M12.1328 8.57764L9.1462 11.422L7.86621 10.203" fill="#60B259"/>
<path d="M12.1328 8.57764L9.1462 11.422L7.86621 10.203" stroke="white" stroke-width="1.6" stroke-linecap="round" stroke-linejoin="round"/>
</svg>
