<svg xmlns="http://www.w3.org/2000/svg" width="32" height="32" fill="none" viewBox="0 0 32 32"><g clip-path="url(#a)"><g clip-path="url(#b)"><mask id="c" width="32" height="32" x="0" y="0" maskUnits="userSpaceOnUse" style="mask-type:luminance"><path fill="#fff" d="M32 0H0v32h32z"/></mask><g mask="url(#c)"><mask id="d" width="32" height="32" x="0" y="0" maskUnits="userSpaceOnUse" style="mask-type:luminance"><path fill="#fff" d="M32 0H0v32h32z"/></mask><g mask="url(#d)"><path fill="#2f80ed" d="M24 0H8a8 8 0 0 0-8 8v16a8 8 0 0 0 8 8h16a8 8 0 0 0 8-8V8a8 8 0 0 0-8-8"/><path fill="#fff" fill-rule="evenodd" d="M32 16.177v-.353c-7.085-.214-10.325-.39-12.909-2.915-2.523-2.583-2.7-5.823-2.914-12.908h-.354c-.214 7.085-.391 10.325-2.914 12.908C10.325 15.433 7.085 15.61 0 15.824v.353c7.085.215 10.325.392 12.909 2.915 2.523 2.584 2.7 5.824 2.914 12.909h.354c.214-7.085.391-10.325 2.914-12.91 2.584-2.523 5.824-2.7 12.909-2.914" clip-rule="evenodd"/></g></g></g></g><defs><clipPath id="a"><path fill="#fff" d="M0 0h32v32H0z"/></clipPath><clipPath id="b"><path fill="#fff" d="M0 0h32v32H0z"/></clipPath></defs></svg>