<svg xmlns="http://www.w3.org/2000/svg" width="885" height="380" fill="none" viewBox="0 0 885 380"><path fill="#fae051" d="M0 173.561c185.5 6.519 494.5-11.481 885-84.48v212.881c-160.962 1.101-264.816 11.4-469.883 44.181C222.622 377.107 131.855 383.513 0 376.517z"/><path fill="#fae051" d="M492 0C310.724 33.588 224.83 42.918 111 35.952v158.713c27.207 26.09 115.586 23.406 381-7.015z"/><path fill="#000" fill-rule="evenodd" d="M849.001 119.197c0 1.59-5.763 78.066-6.366 84.475-.224 2.385-.796 4.691-1.271 5.123s-5.656 1.041-11.513 1.352l-10.651.565-.56-3.189c-.883-5.028-7.865-86.796-7.447-87.214.435-.435 23.588-2.118 32.058-2.33 4.256-.107 5.75.21 5.75 1.218m-47 88.559v50.92l-2.75.523c-1.513.287-8.48.818-15.484 1.179l-12.734.657-.266-27.657-.266-27.656-11.412 21.307c-21.36 39.876-18.451 35.468-23.859 36.149-2.601.327-9.346.898-14.988 1.27l-10.259.674.259-51.393.259-51.394 6-.628c3.3-.346 10.38-.935 15.733-1.309l9.734-.681.266 26.309.267 26.309 7.603-14c4.182-7.7 10.844-19.945 14.805-27.212l7.202-13.212 8.695-.332a3441 3441 0 0 1 14.945-.538l6.25-.206zm-103.5 7.079v51.5l-13.5 1.673c-7.425.921-14.732 1.708-16.238 1.75l-2.737.077-.263-36.247-.262-36.246-4 .266c-2.2.147-6.138.525-8.75.841l-4.75.574-.006 13.656c-.011 26.869-5.033 46.76-14.154 56.063-6.366 6.493-19.745 10.459-29.259 8.674l-3.633-.681.276-15.184.276-15.184 3.698-.6c4.344-.705 6.317-2.161 8.618-6.359 1.448-2.643 1.754-7.618 2.184-35.573l.5-32.5 5.5-.811c8.169-1.206 72.179-7.509 74.5-7.337 1.972.146 2 .864 2 51.648m-124.269-33.208c8.373 4.123 13.122 9.522 15.98 18.166 2.049 6.199 2.166 8.42 2.226 42.387.035 19.715-.167 35.987-.447 36.161-1.328.822-30.125 4.529-30.996 3.99-.547-.338-.994-2.878-.994-5.645v-5.031l-3.981 5.037c-5.07 6.414-10.894 9.808-20.142 11.736-12.865 2.682-22.176.205-29.39-7.819-5.89-6.551-7.882-13.171-7.276-24.183.333-6.069 1.118-9.501 3.139-13.734 7.103-14.877 25.57-23.758 46.95-22.58l9.819.541-.678-3.159c-1.011-4.713-2.232-6.561-5.755-8.709-6.328-3.858-19.166-2.147-32.441 4.324-3.44 1.677-6.448 2.857-6.683 2.621-.235-.235-2.219-5.448-4.408-11.586l-3.98-11.158 3.685-2.439c13.193-8.731 28.34-12.766 46.664-12.431 11.358.207 12.393.401 18.708 3.511m-83.231 59.577v52.37l-13.75 2.162c-7.562 1.19-15.212 2.423-17 2.742l-3.25.58v-19.112c0-18.478-.067-19.111-2.011-19.111-1.973 0-18.83 2.505-24.239 3.601l-2.75.558v19.42c0 10.682-.239 19.421-.531 19.421s-7.756 1.161-16.587 2.58-16.354 2.282-16.719 1.917c-.364-.365-.764-24.044-.888-52.621-.175-40.307.049-52.036 1-52.305 2.729-.774 28.49-4.571 31.013-4.571h2.712v17c0 12.924.3 17.004 1.25 17.018.688.01 7.212-.958 14.5-2.151l13.25-2.17v-35.358l13.25-2.052c7.288-1.128 14.938-2.105 17-2.169l3.75-.118zm-313.827 22.115c-.179 38.475-.505 70.244-.724 70.598s-5.696.945-12.173 1.314-14.364.939-17.526 1.267l-5.75.595V228.799l-24.25.268-24.25.268-.259 53.75-.258 53.75H54.988l.256-70.75.257-70.75 16 .5c25.008.781 69.398.063 87-1.408 8.8-.735 16.675-1.275 17.5-1.2 1.321.121 1.461 8.479 1.173 70.092m207.827-42.563v15.92l-2.75.512c-1.512.281-11.413 1.745-22 3.252l-19.25 2.742-.214 29.076c-.117 15.992-.23 32.298-.25 36.235s-.375 7.501-.789 7.92c-.632.639-28.645 5.284-32.497 5.388-.985.027-1.25-11.099-1.25-52.387v-52.42l2.75-.558c1.512-.307 8.15-1.257 14.75-2.11s22.35-3.286 35-5.407 23.788-3.907 24.75-3.97c1.598-.104 1.75 1.267 1.75 15.807m452.685.146c6.711 2.542 11.315 9.943 11.315 18.187 0 4.248-.662 6.429-3.25 10.712-3.987 6.598-8.937 9.463-16.349 9.463-15.354 0-23.126-20.095-12.606-32.597 4.859-5.775 14.119-8.331 20.89-5.765m-575.484 2.043c12.671 2.653 24.816 11.982 30.201 23.198 2.791 5.813 5.607 18.377 5.581 24.9-.03 7.427-2.809 17.865-7.016 26.358-7.404 14.948-19.491 25.54-35.467 31.084-6.981 2.422-9.528 2.78-20 2.813-13.953.043-19.085-1.335-28.573-7.671-7.769-5.188-15.153-15.458-18.152-25.246-4.633-15.124-2.293-33.778 5.93-47.274 8.492-13.936 22.137-23.611 39.103-27.725 7.021-1.703 21.3-1.923 28.393-.437m282.635 15.79c-11.058 2.285-16.899 14.764-10.096 21.568 2.439 2.438 3.311 2.692 7.928 2.31 6.422-.533 11.277-3.968 14.23-10.067 2.705-5.588 2.913-13.706.352-13.722-.962-.006-3.325-.199-5.25-.429s-5.149-.077-7.164.34m-309.984 18.06c-4.812 2.616-10.247 9.076-11.691 13.898-3.297 11.004.702 22.359 9.24 26.237 5.507 2.5 10.079 2.36 16.216-.497 8.349-3.888 12.931-11.813 12.776-22.098-.181-12.084-5.942-18.69-16.763-19.222-4.641-.228-7.016.18-9.778 1.682" clip-rule="evenodd"/><path fill="#000" d="M458.71 55.647c-3.171-6.457-8.037-11.164-14.659-14.18-3.638-1.655-6.959-2.126-16.551-2.35-17.329-.4-26.565 2.31-41 12.036-7.304 4.92-17.5 15.089-17.499 17.45 0 .95 3.678 5.1 8.173 9.226 12.5 11.472 11.017 11.076 17.678 4.722 8.933-8.52 17.271-11.86 25.676-10.283 2.864.538 3.913 1.373 5.005 3.985 2.49 5.96.507 9.846-10.501 20.576-8.097 7.892-10.109 10.479-11.889 15.288-2.017 5.448-3.048 17.712-1.489 17.712 3.173 0 27.994-5.43 28.49-6.233.354-.574.932-2.842 1.284-5.04.554-3.467 2.162-5.461 12.129-15.038C458.582 89.082 461.5 83.688 461.5 70.35c0-7.848-.363-9.76-2.79-14.703M362.215 82.829c.432 0 .785-6.975.785-15.5 0-15.44-.009-15.5-2.25-15.393-1.238.058-10.575 1.434-20.75 3.056s-31.1 4.404-46.5 6.18l-28 3.232-.257 64.259-.258 64.259 3.258-.548c1.791-.301 13.382-1.678 25.757-3.059 20.509-2.289 61.542-7.758 68.25-9.096l2.75-.549v-15.42c0-12.884-.241-15.421-1.466-15.421-.807 0-13.969 1.799-29.25 3.998-15.281 2.198-29.264 3.998-31.073 4l-3.289.002.289-8.749.289-8.748 16.5-2.179c9.075-1.198 21.45-3.012 27.5-4.032l11-1.854.279-13.89c.154-7.639-.071-14.188-.5-14.554-.428-.365-11.804.832-25.279 2.661s-25.587 3.218-26.916 3.086c-2.314-.231-2.428-.59-2.702-8.484-.333-9.62-2.465-8.316 17.618-10.762 7.425-.904 20.234-2.735 28.465-4.07 8.231-1.333 15.319-2.425 15.75-2.425M252 193.553V65.829l-5.25.136c-2.887.075-6.15.277-7.25.45-1.1.172-6.838.604-12.75.96L216 68.02v50.899l-2.519 2.519c-3.683 3.683-11.004 6.586-17.92 7.107-8.031.605-13.914-2.353-17.258-8.677-2.21-4.178-2.303-5.28-2.303-27.23 0-17.42-.298-22.967-1.25-23.27-.687-.217-9.012-.586-18.5-.82L139 68.124l.017 25.603c.019 27.827.871 34.81 5.476 44.867 5.068 11.071 11.611 16.871 24.087 21.352 12.143 4.362 32.687 2.378 43.903-4.239l3.517-2.076v42.493l10.75-.662c5.912-.364 14.012-.942 18-1.285zM432.598 160.446c4.397-9.444 2.244-20.304-4.888-24.652-4.591-2.8-13.1-2.65-18.735.33-7.866 4.16-12.927 14.359-11.339 22.853 3.268 17.483 27.04 18.482 34.962 1.469"/></svg>