<svg xmlns="http://www.w3.org/2000/svg" width="36" height="22" fill="none" viewBox="0 0 36 22"><path fill="#ff5f00" d="M12.332 2.321h10.446v17.061H12.332z"/><path fill="#eb001b" d="M13.408 10.853a10.83 10.83 0 0 1 4.145-8.528 10.85 10.85 0 1 0 0 17.06 10.83 10.83 0 0 1-4.145-8.533z"/><path fill="#f79e1b" d="M34.143 18.377v-1.012h.205v-.21h-.484v.21h.19v1.012zm.942 0v-1.221h-.147l-.17.872-.172-.873h-.146v1.222h.106v-.925l.158.794h.11l.16-.794v.925zm.023-7.524a10.85 10.85 0 0 1-17.556 8.53 10.85 10.85 0 0 0 0-17.062 10.849 10.849 0 0 1 17.556 8.53z"/></svg>