<svg xmlns="http://www.w3.org/2000/svg" width="63" height="18" fill="none" viewBox="0 0 63 18"><path fill="#319b42" d="M31.122 10.174h-.391V0h-5.478v17.217H29.9c1.221 0 2.332-.71 2.843-1.818L36.6 7.043h.392v10.175h5.478V0h-4.65c-1.22 0-2.33.71-2.841 1.818zm-17.4-7.911-2.331 7.91h-.4l-2.33-7.91C8.264.923 7.014 0 5.587 0H0v17.217h5.596V7.043h.399l3.198 10.175h3.997l3.198-10.175h.4v10.175h5.595V0h-5.588c-1.425 0-2.678.923-3.073 2.263m31.044 5.771v9.183h5.577V11.86h6c2.606 0 4.817-1.598 5.64-3.826z"/><mask id="a" width="19" height="7" x="44" y="0" maskUnits="userSpaceOnUse" style="mask-type:luminance"><path fill="#fff" d="M56.677.049H44.242c.756 3.754 4.35 6.6 8.675 6.6h9.656q.119-.534.12-1.1c0-3.037-2.694-5.5-6.016-5.5"/></mask><g mask="url(#a)"><path fill="url(#b)" d="M56.677.049H44.242c.756 3.754 4.35 6.6 8.675 6.6h9.656q.119-.534.12-1.1c0-3.037-2.694-5.5-6.016-5.5"/></g><defs><linearGradient id="b" x1="44.242" x2="1889.38" y1="330.049" y2="330.049" gradientUnits="userSpaceOnUse"><stop stop-color="#00a3e1"/><stop offset=".593" stop-color="#008cd8"/><stop offset="1" stop-color="#0076cf"/></linearGradient></defs></svg>