<svg xmlns="http://www.w3.org/2000/svg" width="43" height="22" fill="none" viewBox="0 0 43 22"><path fill="#000" d="M37.889 6.28v5.38h-1.92V7.885h-1.851v3.773h-1.92V6.28z"/><path fill="#000" fill-rule="evenodd" d="M28.253 11.85c1.72 0 2.996-1.053 2.996-2.65 0-1.548-.942-2.553-2.516-2.553-.726 0-1.327.257-1.778.698.108-.913.88-1.579 1.728-1.579l1.672-.003.834-1.596s-1.852.042-2.714.042c-1.968.034-3.296 1.822-3.296 3.995 0 2.53 1.297 3.646 3.074 3.646m.011-3.788c.638 0 1.08.42 1.08 1.136 0 .646-.393 1.177-1.08 1.18-.659 0-1.1-.493-1.1-1.169 0-.717.441-1.147 1.1-1.147" clip-rule="evenodd"/><path fill="#000" d="M23.616 9.858s-.453.26-1.13.31c-.78.023-1.474-.469-1.474-1.342 0-.852.613-1.342 1.454-1.342.515 0 1.197.358 1.197.358s.499-.916.757-1.374c-.473-.359-1.103-.556-1.837-.556-1.85 0-3.283 1.207-3.283 2.903 0 1.716 1.346 2.895 3.283 2.86.542-.02 1.288-.21 1.744-.503z"/><path fill="#5b57a2" d="m0 4.788 2.664 4.763v2.904L.002 17.207z"/><path fill="#d90751" d="m10.23 7.818 2.496-1.53 5.109-.005-7.606 4.66z"/><path fill="#fab718" d="m10.214 4.76.014 6.305-2.67-1.64V0z"/><path fill="#ed6f26" d="m17.834 6.283-5.11.005-2.51-1.527L7.558 0z"/><path fill="#63b22f" d="M10.228 17.235v-3.06l-2.67-1.609L7.56 22z"/><path fill="#1487c9" d="M12.72 15.719 2.662 9.55 0 4.788l17.823 10.923z"/><path fill="#017f36" d="m7.56 22 2.67-4.766 2.49-1.516 5.104-.006z"/><path fill="#984995" d="m.003 17.208 7.579-4.642-2.549-1.563-2.368 1.452z"/><path fill="#000" d="M21.013 15.28a.55.55 0 0 1-.229.168.85.85 0 0 1-.598.007.65.65 0 0 1-.383-.367.77.77 0 0 1 .144-.793.7.7 0 0 1 .498-.207q.166 0 .304.04c.089.026.17.073.235.138l-.112.19a.5.5 0 0 0-.188-.11.7.7 0 0 0-.206-.031.47.47 0 0 0-.47.484.48.48 0 0 0 .147.352.4.4 0 0 0 .157.095q.09.034.192.033a.5.5 0 0 0 .223-.048.6.6 0 0 0 .17-.127l.116.174zm.317.194v-1.357h.244v1.012l.793-1.012h.244v1.357h-.244v-1.012l-.792 1.012zm2.896-.196a.55.55 0 0 1-.229.17.85.85 0 0 1-.598.007.65.65 0 0 1-.383-.367.76.76 0 0 1 .144-.793.7.7 0 0 1 .22-.15.7.7 0 0 1 .279-.058q.164 0 .303.042.136.038.237.137l-.114.19a.5.5 0 0 0-.187-.11.7.7 0 0 0-.205-.031.47.47 0 0 0-.433.286.5.5 0 0 0-.038.198.48.48 0 0 0 .146.352.4.4 0 0 0 .157.095.55.55 0 0 0 .415-.015.6.6 0 0 0 .17-.127zm.126-1.161h1.25v.24H25.1v1.117h-.244v-1.116h-.502v-.242h-.002"/><path fill="#000" fill-rule="evenodd" d="M26.742 15.46a.6.6 0 0 0 .238-.134l-.073-.189a.6.6 0 0 1-.178.1.7.7 0 0 1-.244.042.5.5 0 0 1-.333-.107.41.41 0 0 1-.146-.3h1.056a.73.73 0 0 0-.037-.417.6.6 0 0 0-.338-.323.78.78 0 0 0-.55.01.64.64 0 0 0-.358.376.8.8 0 0 0-.05.277q.002.161.053.292a.64.64 0 0 0 .38.367c.187.064.39.067.58.007m-.617-1.044a.43.43 0 0 1 .302-.103q.179 0 .284.096a.37.37 0 0 1 .112.265h-.833c.012-.1.06-.191.134-.258z" clip-rule="evenodd"/><path fill="#000" d="M27.407 14.116h.223l.527.672.5-.672h.215v1.358h-.243v-.99l-.475.63h-.01l-.493-.63v.99h-.244z"/><path fill="#000" fill-rule="evenodd" d="M29.536 14.12a.8.8 0 0 0-.21.091l.064.193q.083-.042.168-.07a.6.6 0 0 1 .21-.03.35.35 0 0 1 .165.032q.06.03.093.087a.4.4 0 0 1 .044.136q.012.079.011.174a.4.4 0 0 0-.167-.069.76.76 0 0 0-.38.011.5.5 0 0 0-.166.082.4.4 0 0 0-.148.32.4.4 0 0 0 .115.31q.116.11.306.11a.55.55 0 0 0 .275-.06.6.6 0 0 0 .165-.137v.176h.228v-.834q0-.264-.118-.41-.116-.145-.408-.145a1 1 0 0 0-.247.034m.407 1.1a.37.37 0 0 1-.217.058.27.27 0 0 1-.184-.057.2.2 0 0 1-.065-.156q0-.056.026-.1a.2.2 0 0 1 .066-.07.3.3 0 0 1 .093-.04.52.52 0 0 1 .417.077v.171a.7.7 0 0 1-.136.118m2.519-1.58a.4.4 0 0 0 .138-.119l-.132-.19a.27.27 0 0 1-.116.095 1 1 0 0 1-.142.04l-.047.007-.13.022a1 1 0 0 0-.215.067.7.7 0 0 0-.264.193.9.9 0 0 0-.154.272q-.054.156-.072.316-.02.165-.02.316 0 .195.051.352a.7.7 0 0 0 .146.266q.095.11.228.168a.7.7 0 0 0 .302.06.69.69 0 0 0 .705-.698.8.8 0 0 0-.044-.277.56.56 0 0 0-.329-.35.659.659 0 0 0-.72.139.5.5 0 0 0-.087.13h-.008q.007-.094.026-.193a1 1 0 0 1 .06-.187.7.7 0 0 1 .103-.162.5.5 0 0 1 .16-.114.9.9 0 0 1 .212-.07l.048-.008.138-.026a.8.8 0 0 0 .163-.05m-.858 1.303a.8.8 0 0 1-.034-.238.46.46 0 0 1 .156-.24.5.5 0 0 1 .316-.108q.217 0 .328.132a.5.5 0 0 1 .113.33.5.5 0 0 1-.033.18.43.43 0 0 1-.236.243.45.45 0 0 1-.517-.119.6.6 0 0 1-.093-.18m3.006-.826h-.243v1.357h.243zm-1.518 0h.244v.406h.226q.157.001.261.04a.45.45 0 0 1 .166.103.36.36 0 0 1 .089.15.6.6 0 0 1 .026.176q0 .091-.029.176a.4.4 0 0 1-.094.154.45.45 0 0 1-.176.11.8.8 0 0 1-.272.044h-.442zm.244.634v.497h.177q.184 0 .258-.064.075-.063.074-.184 0-.124-.075-.187-.078-.066-.254-.066h-.18z" clip-rule="evenodd"/><path fill="#000" d="M36.223 15.28a.55.55 0 0 1-.229.168.85.85 0 0 1-.598.007.66.66 0 0 1-.383-.367.77.77 0 0 1 .143-.793.7.7 0 0 1 .5-.208q.164 0 .303.042.135.038.236.137l-.113.19a.5.5 0 0 0-.187-.11.7.7 0 0 0-.206-.031.47.47 0 0 0-.47.484.48.48 0 0 0 .146.352.4.4 0 0 0 .157.095.55.55 0 0 0 .415-.015.6.6 0 0 0 .17-.127l.116.174zm.124-1.163H37.6v.24h-.503v1.117h-.244v-1.116h-.503v-.242h-.002"/><path fill="#000" fill-rule="evenodd" d="M38.108 14.116h-.244v1.961h.244v-.666q.075.048.176.07a1 1 0 0 0 .212.022.7.7 0 0 0 .518-.21.7.7 0 0 0 .145-.231.84.84 0 0 0 .007-.566.7.7 0 0 0-.128-.217.55.55 0 0 0-.198-.142.6.6 0 0 0-.264-.052.7.7 0 0 0-.27.055.5.5 0 0 0-.199.135zm.17.252a.525.525 0 0 1 .418-.022.4.4 0 0 1 .226.247.6.6 0 0 1-.004.39.44.44 0 0 1-.442.296.6.6 0 0 1-.368-.106V14.5a.6.6 0 0 1 .17-.132m2.802-.253h-.245v1.358h.245zm-1.52 0h.244v.408h.225q.16 0 .262.04a.45.45 0 0 1 .167.103.36.36 0 0 1 .088.15.6.6 0 0 1-.003.351.4.4 0 0 1-.095.155.45.45 0 0 1-.176.11.8.8 0 0 1-.27.043h-.444v-1.36zm.246.636v.497h.177c.12 0 .209-.022.257-.065q.074-.064.074-.184 0-.124-.075-.187-.077-.066-.253-.066h-.18z" clip-rule="evenodd"/><path fill="#000" d="m42.249 14.77.521.705h-.299l-.402-.55-.41.55h-.283l.518-.693-.488-.666h.3l.371.513.379-.513h.283zm-21.417 2.382h-.748v1.132h-.243v-1.358h1.235v1.358h-.243zm1.628.014h-.48l-.017.23q-.016.236-.072.468a.9.9 0 0 1-.119.275.34.34 0 0 1-.162.13.6.6 0 0 1-.198.033l-.02-.235a.2.2 0 0 0 .091-.02.25.25 0 0 0 .1-.098.9.9 0 0 0 .088-.22q.045-.186.053-.379l.025-.422h.955v1.357h-.244z"/><path fill="#000" fill-rule="evenodd" d="M23.399 16.93a1 1 0 0 0-.235.09l.072.192q.095-.04.187-.07a.8.8 0 0 1 .238-.029.5.5 0 0 1 .183.032q.067.028.106.087a.4.4 0 0 1 .049.135q.012.087.01.174a.5.5 0 0 0-.186-.068.9.9 0 0 0-.428.01.5.5 0 0 0-.184.083.38.38 0 0 0-.165.32.38.38 0 0 0 .129.31q.128.11.342.11a.6.6 0 0 0 .492-.197v.176h.258v-.834q0-.265-.132-.41-.131-.145-.459-.145-.14 0-.277.034m.459 1.1a.45.45 0 0 1-.243.058.32.32 0 0 1-.207-.059.2.2 0 0 1-.073-.155q0-.056.028-.099a.24.24 0 0 1 .075-.07.4.4 0 0 1 .105-.042.63.63 0 0 1 .468.077v.172a.8.8 0 0 1-.153.117" clip-rule="evenodd"/><path fill="#000" d="M24.374 16.926h1.25v.242h-.503v1.116h-.243v-1.116h-.503v-.242z"/><path fill="#000" fill-rule="evenodd" d="M26.763 18.27a.6.6 0 0 0 .239-.134l-.074-.19a.6.6 0 0 1-.178.101.7.7 0 0 1-.243.041.5.5 0 0 1-.334-.107.41.41 0 0 1-.146-.3h1.056a.74.74 0 0 0-.036-.417.6.6 0 0 0-.34-.323.78.78 0 0 0-.55.01.64.64 0 0 0-.358.376.8.8 0 0 0-.048.277.8.8 0 0 0 .052.292.65.65 0 0 0 .38.368c.187.064.39.066.579.006zm-.62-1.046a.43.43 0 0 1 .303-.103q.181 0 .284.096a.37.37 0 0 1 .113.266h-.834c.012-.1.06-.192.135-.26m1.073-.297h.308l.471.653-.503.704h-.299l.528-.704zm.84 0h.244v1.357h-.245zm1.115 1.357-.537-.704.502-.654h-.303l-.473.654.508.704zm1.114-.014a.6.6 0 0 0 .239-.134l-.074-.19a.6.6 0 0 1-.178.101.7.7 0 0 1-.243.041.5.5 0 0 1-.333-.107.41.41 0 0 1-.147-.3h1.055a.73.73 0 0 0-.035-.417.6.6 0 0 0-.34-.323.78.78 0 0 0-.55.01.64.64 0 0 0-.357.376.8.8 0 0 0-.049.277.8.8 0 0 0 .052.292.64.64 0 0 0 .38.368.93.93 0 0 0 .58.006m-.62-1.046a.43.43 0 0 1 .303-.103.4.4 0 0 1 .284.096.37.37 0 0 1 .114.266h-.834c.011-.1.06-.192.134-.26m1.944-.754q-.216 0-.235-.239h-.23q0 .092.031.169.03.076.088.132a.505.505 0 0 0 .343.122.48.48 0 0 0 .33-.121.43.43 0 0 0 .123-.301h-.228q-.018.238-.223.238m-.66.456v1.358h.245l.792-1.012v1.012h.244v-1.358h-.243l-.793 1.012v-1.012z" clip-rule="evenodd"/></svg>