<svg xmlns="http://www.w3.org/2000/svg" width="46" height="22" fill="none" viewBox="0 0 46 22"><path fill="#219f38" d="M34.925 22H11a11 11 0 1 1 0-22h23.925a11 11 0 1 1 0 22"/><path fill="#fff" d="M22.746 12.093v2.466H21.35V6.642h2.602c2.467 0 3.515.894 3.515 2.68 0 1.844-1.229 2.771-3.515 2.771zm0-4.15v2.851h1.306c1.294 0 1.964-.431 1.964-1.505 0-.972-.58-1.346-1.943-1.346zm5.458 1.356c.369-.284 1.038-.508 1.999-.508 1.631 0 2.435.564 2.435 2.035v3.732H31.41v-1.017c-.269.656-.95 1.109-1.843 1.109-1.127 0-1.798-.645-1.798-1.754 0-1.289.926-1.652 2.299-1.652h1.262v-.249c0-.804-.379-1.052-1.127-1.052-1.027 0-1.618.407-1.999 1.007zm3.127 3.27v-.464h-1.105c-.77 0-1.14.147-1.14.657 0 .429.313.7.894.7.882 0 1.294-.509 1.35-.894m1.953-3.664h1.463l1.53 3.879 1.25-3.879h1.384l-2.233 6.255c-.492 1.357-.995 1.662-1.73 1.662-.347 0-.727-.101-.894-.25V15.34a.98.98 0 0 0 .669.283c.403 0 .704-.27.916-1.04l-2.354-5.678m-24.715.4v1.737l2.274 1.443 5.442-4.061a6 6 0 0 0-.717-1.203l-4.725 3.527z"/><path fill="#fff" d="M15.432 10.793q.004.061.003.124c0 2.565-2.06 4.65-4.592 4.65-2.53 0-4.593-2.085-4.593-4.65s2.06-4.652 4.591-4.652c.96 0 1.851.3 2.588.814l1.16-.869a5.9 5.9 0 0 0-3.75-1.342c-3.298 0-5.97 2.71-5.97 6.05s2.673 6.05 5.971 6.05 5.97-2.71 5.97-6.05q0-.556-.096-1.083l-1.282.957"/></svg>