<svg xmlns="http://www.w3.org/2000/svg" width="32" height="32" fill="none" viewBox="0 0 32 32"><g clip-path="url(#a)"><g clip-path="url(#b)"><mask id="c" width="32" height="32" x="0" y="0" maskUnits="userSpaceOnUse" style="mask-type:luminance"><path fill="#fff" d="M32 0H0v32h32z"/></mask><g mask="url(#c)"><path fill="#2f80ed" d="M25.905 0H6.095A6.095 6.095 0 0 0 0 6.095v19.81A6.095 6.095 0 0 0 6.095 32h19.81A6.095 6.095 0 0 0 32 25.905V6.095A6.095 6.095 0 0 0 25.905 0"/><path fill="#fff" d="m7.308 15.446 10.663-4.393c1.052-.458 4.622-1.922 4.622-1.922s1.647-.64 1.51.915c-.046.64-.412 2.883-.778 5.308l-1.144 7.184s-.092 1.053-.871 1.236c-.78.183-2.06-.64-2.288-.824-.183-.137-3.432-2.197-4.622-3.203-.32-.275-.686-.824.046-1.465a175 175 0 0 0 4.805-4.576c.549-.549 1.098-1.83-1.19-.274l-6.452 4.347s-.732.458-2.105.046-2.975-.96-2.975-.96-1.098-.687.778-1.42z"/></g></g></g><defs><clipPath id="a"><path fill="#fff" d="M0 0h32v32H0z"/></clipPath><clipPath id="b"><path fill="#fff" d="M0 0h32v32H0z"/></clipPath></defs></svg>