<svg xmlns="http://www.w3.org/2000/svg" width="55" height="22" fill="none" viewBox="0 0 55 22"><mask id="a" width="55" height="22" x="0" y="0" maskUnits="userSpaceOnUse" style="mask-type:luminance"><path fill="#fff" d="M0 0h54.313v22H0z"/></mask><g mask="url(#a)"><path fill="#333" d="M43.33-.026H10.982C4.901-.026-.035 4.909-.035 10.99S4.9 22.01 10.982 22.01H43.33c6.082 0 11.018-4.936 11.018-11.018S49.412-.026 43.33-.026"/></g><mask id="b" width="55" height="22" x="0" y="0" maskUnits="userSpaceOnUse" style="mask-type:luminance"><path fill="#fff" d="M0 0h54.313v22H0z"/></mask><g mask="url(#b)"><path fill="#fff" fill-rule="evenodd" d="m19.268 10.638.264-.704-.704.088c-.088 0-.53 0-.883-.352h.088c.44 0 .793-.265.97-.618l.265-.616c-.352 0-.706-.088-.706-.088s-.264 0-.527-.353q-.354-.352-.795-.352-.264 0-.352.088v-.177c.088-.616-.264-1.058-.264-1.058l-.53-.704-.352.792s-.088.176-.176.265c-.088-.264-.176-.44-.441-.705-.44-.44-.97-.528-1.234-.528h-.264l-.617.176c.088-.176.176-.441.264-.617l.352-.53-.88.089-.264-.618-.53.264-.528-.44-.442.44-.616-.264-.265.616-.882-.088.352.53c.177.177.265.44.265.617l-.616-.176h-.266c-.264 0-.793.088-1.234.528-.176.265-.352.442-.352.706-.176-.088-.264-.264-.264-.264l-.265-.794-.528.705c-.088.088-.441.529-.353 1.058q-.001.088.088.176a.8.8 0 0 0-.352-.088q-.443 0-.795.352c-.352.353-.616.353-.616.353s-.265.088-.706.088l.264.617c.176.352.617.617 1.058.617h.088c-.44.352-.88.352-.88.352L3.4 9.933l.176.705c.088.353.44.97 1.146.97-.088.352-.176.704-.617.882l-.528.176.352.529c.176.264.528.529 1.057.529h.352q0 .176.088.352c.178.529 0 .794 0 .794l-.264.616.618.088s.176.088.352.088a.8.8 0 0 0 .353-.088h.176q.089.177.265.353.528.528 1.586.528h.441l-.97.442.705.352c.265.176.618.264.97.44l-.088.265.264.088s.53.264 1.322.264h.617c.794 0 1.323-.264 1.323-.264l.264-.088-.088-.264c.352-.176.617-.264.882-.44l.792-.353-1.056-.44h.528q.97 0 1.586-.529a1.4 1.4 0 0 1 .264-.353q.09 0 .176.088h.265c.264 0 .44-.088.44-.088l.53-.088-.264-.617s-.088-.264.088-.794q0-.176.088-.352h.352c.617 0 .97-.44 1.059-.528l.264-.53-.529-.176c-.353-.176-.53-.528-.618-.882.705 0 1.058-.617 1.146-.97z" clip-rule="evenodd"/></g><mask id="c" width="55" height="22" x="0" y="0" maskUnits="userSpaceOnUse" style="mask-type:luminance"><path fill="#fff" d="M0 0h54.313v22H0z"/></mask><g mask="url(#c)"><path fill="#fff" fill-rule="evenodd" d="M11.423 5.968c-.529 0-.97.176-1.058.352l1.058.44 1.057-.44c-.088-.176-.44-.352-1.057-.352" clip-rule="evenodd"/></g><mask id="d" width="55" height="22" x="0" y="0" maskUnits="userSpaceOnUse" style="mask-type:luminance"><path fill="#fff" d="M0 0h54.313v22H0z"/></mask><g mask="url(#d)"><path fill="#fff" fill-rule="evenodd" d="M11.424 17.072c-.352 0-.794-.088-1.058-.088l-.264.707c.176.088.792.176 1.322.176.528 0 1.145-.088 1.322-.176l-.264-.706c-.265 0-.706.087-1.058.087" clip-rule="evenodd"/></g><mask id="e" width="55" height="22" x="0" y="0" maskUnits="userSpaceOnUse" style="mask-type:luminance"><path fill="#fff" d="M0 0h54.313v22H0z"/></mask><g mask="url(#e)"><path fill="#fff" fill-rule="evenodd" d="M13.45 16.368a9 9 0 0 1-.882.352l.264.617q.53-.175.97-.352l-.44-.176z" clip-rule="evenodd"/></g><mask id="f" width="55" height="22" x="0" y="0" maskUnits="userSpaceOnUse" style="mask-type:luminance"><path fill="#fff" d="M0 0h54.313v22H0z"/></mask><g mask="url(#f)"><path fill="#fff" fill-rule="evenodd" d="m9.396 16.368.176.44-.528.176q.44.178 1.056.353l.176-.616a9 9 0 0 1-.88-.353" clip-rule="evenodd"/></g><mask id="g" width="55" height="22" x="0" y="0" maskUnits="userSpaceOnUse" style="mask-type:luminance"><path fill="#fff" d="M0 0h54.313v22H0z"/></mask><g mask="url(#g)"><path fill="#fff" fill-rule="evenodd" d="M11.424 5.263c.44 0 .88.088 1.145.264l.176-.352h-.176l-.088.088-.088-.176-.176-.353-.264.176-.088.088-.088-.088-.353-.352-.264.352-.088.088-.177-.088-.264-.176-.176.352v.176l-.178-.088h-.087a.8.8 0 0 1 .088.353 2.44 2.44 0 0 1 1.146-.264" clip-rule="evenodd"/></g><mask id="h" width="55" height="22" x="0" y="0" maskUnits="userSpaceOnUse" style="mask-type:luminance"><path fill="#fff" d="M0 0h54.313v22H0z"/></mask><g mask="url(#h)"><path fill="#fff" fill-rule="evenodd" d="M17.858 9.141q.087.087.176.088c.176 0 .44-.176.529-.353 0 0-.44 0-.881-.528-.176-.177-.352-.177-.44-.177-.265 0-.353.088-.353.088.528.352.616.793.969.881z" clip-rule="evenodd"/></g><mask id="i" width="55" height="22" x="0" y="0" maskUnits="userSpaceOnUse" style="mask-type:luminance"><path fill="#fff" d="M0 0h54.313v22H0z"/></mask><g mask="url(#i)"><path fill="#fff" fill-rule="evenodd" d="M4.9 9.23q.09 0 .176-.089c.264-.088.441-.529.97-.882 0 0-.176-.088-.352-.088-.177 0-.353 0-.44.176-.53.528-.883.528-.883.528 0 .177.264.353.53.353z" clip-rule="evenodd"/></g><mask id="j" width="55" height="22" x="0" y="0" maskUnits="userSpaceOnUse" style="mask-type:luminance"><path fill="#fff" d="M0 0h54.313v22H0z"/></mask><g mask="url(#j)"><path fill="#fff" fill-rule="evenodd" d="M17.593 10.991s-.088 1.499.97 1.94c0 0-.177.352-.617.352-.618 0-.794-.352-.794-.352s0 .44-.176.969c-.176.705 0 1.234 0 1.234h-.44c-.442-.088-.53-.528-.53-.528s0 1.409-1.586 1.409c0 0 .176-.176.176-.792.088-.97.793-1.147.793-1.147s-.352 0-.528-.176c-.264-.264-.264-.528-.264-.528.528 0 .968-.176 1.233-.53.264-.351.352-.705.352-.705s-.264.264-.88.264h-.177c-.264 0-.44-.175-.44-.175.616-.44.968-1.147.616-2.116-.264-.882-1.057-1.498-1.762-1.94q-.353-.264-.352-.44c0-.352.44-.44.616-.617.263-.264.087-.704-.089-.97h.176c.264 0 .618 0 .882.353.44.44.264.882.264.882h.353c.529 0 .794-.617.794-.617s.616.793-.264 1.41q-.266.087-.177.264v.088h.088c.616.176.969.617 1.41 1.146a2.06 2.06 0 0 0 1.586.793s-.176.705-.792.705c-.265 0-.44-.176-.44-.176m-.705 0c-.176-1.322-1.146-2.203-2.204-2.82a1 1 0 0 0-.264-.176c.352.088.88.088 1.234-.264 0 0-.617.44-1.851.088.351.176 1.058.528 1.675 1.056 1.498 1.323.44 2.645.44 2.645.528-.529.528-1.146.352-1.675.353.441.529 1.058.44 1.763 0 1.057-.615 2.028-1.144 2.733-.352.352-.352.793-.352.793s.088-.44.44-.793c.616-.793 1.145-1.586 1.234-2.733.088.264.352.793.792 1.057 0 0-.528-.351-.792-1.674" clip-rule="evenodd"/></g><mask id="k" width="55" height="22" x="0" y="0" maskUnits="userSpaceOnUse" style="mask-type:luminance"><path fill="#fff" d="M0 0h54.313v22H0z"/></mask><g mask="url(#k)"><path fill="#fff" fill-rule="evenodd" d="M8.338 15.222c0 .617.176.793.176.793h-.088c-1.586 0-1.498-1.41-1.498-1.41s-.176.44-.616.529H5.87s.264-.528 0-1.234c-.176-.528-.088-.97-.088-.97s-.265.353-.794.353c-.44 0-.616-.352-.616-.352 1.056-.44.968-1.94.968-1.94s-.176.176-.44.176c-.616 0-.794-.704-.794-.704.088 0 .97 0 1.587-.794.44-.528.705-.97 1.41-1.146h.088v-.088q0-.177-.264-.264c-.881-.617-.264-1.41-.264-1.41s.264.616.88.616h.353s-.176-.44.176-.88c.353-.353.706-.353.882-.353h.176c-.176.264-.352.705-.088.969.176.176.705.264.705.617q0 .176-.352.44c-.793.442-1.5 1.058-1.851 1.94-.352.97.088 1.674.705 2.116 0 0-.176.175-.44.175h-.176c-.618 0-.882-.264-.882-.264s0 .352.352.704c.264.354.617.53 1.146.53 0 0 .088.264-.176.529-.176.176-.53.176-.53.176s.706.176.794 1.146m-.616-.088s-.088-.44-.353-.793c-.617-.705-1.146-1.675-1.234-2.733 0-.705.176-1.322.44-1.763-.176.53-.088 1.146.44 1.675 0 0-1.144-1.322.44-2.644.619-.528 1.324-.881 1.676-1.058-1.322.352-1.94-.088-1.94-.088.442.352.971.352 1.235.352a.7.7 0 0 0-.264.088c-1.058.618-2.027 1.5-2.115 2.821-.264 1.322-.793 1.675-.793 1.675.44-.264.704-.793.704-1.058.088 1.147.706 1.94 1.323 2.733.352.352.441.793.441.793" clip-rule="evenodd"/></g><mask id="l" width="55" height="22" x="0" y="0" maskUnits="userSpaceOnUse" style="mask-type:luminance"><path fill="#fff" d="M0 0h54.313v22H0z"/></mask><g mask="url(#l)"><path fill="#fff" fill-rule="evenodd" d="M10.278 8.964a1.1 1.1 0 0 0-.44-.264h.088l.264-.176.352-.176.882.44.88-.44.353.176.352.176h.09a1.1 1.1 0 0 0-.44.264v.088q-.09 0-.089.088-.089 0-.088.088-.09.089-.089.176c-.264.353-.616.618-.969.618-.264 0-.705-.264-.882-.617q-.087-.09-.088-.176l-.088-.088-.088-.088zm.793.264c.088-.088.264-.088.264-.088v.352s0 .177-.088.265h.441c-.088-.088-.088-.264-.088-.264V9.14s.176 0 .264.088v-.265h-.792z" clip-rule="evenodd"/></g><mask id="m" width="55" height="22" x="0" y="0" maskUnits="userSpaceOnUse" style="mask-type:luminance"><path fill="#fff" d="M0 0h54.313v22H0z"/></mask><g mask="url(#m)"><path fill="#fff" fill-rule="evenodd" d="m10.699 8.083-.334-1.498 1.222.352v1.498zm.11-.97s0 .176.223.352c.222.09.333.09.333.09v-.177z" clip-rule="evenodd"/></g><mask id="n" width="55" height="22" x="0" y="0" maskUnits="userSpaceOnUse" style="mask-type:luminance"><path fill="#fff" d="M0 0h54.313v22H0z"/></mask><g mask="url(#n)"><path fill="#fff" fill-rule="evenodd" d="M11.512 8.435V6.937l1.22-.352-.332 1.498zm.333-.88.222-.177c.333-.088.333-.264.333-.264l-.555.176z" clip-rule="evenodd"/></g><mask id="o" width="55" height="22" x="0" y="0" maskUnits="userSpaceOnUse" style="mask-type:luminance"><path fill="#fff" d="M0 0h54.313v22H0z"/></mask><g mask="url(#o)"><path fill="#fff" fill-rule="evenodd" d="M10.013 12.05h.264v-.354l-.088-.088q-.09-.088-.176-.088c-.088 0-.176 0-.264.088 0 .176.176.352.264.44z" clip-rule="evenodd"/></g><mask id="p" width="55" height="22" x="0" y="0" maskUnits="userSpaceOnUse" style="mask-type:luminance"><path fill="#fff" d="M0 0h54.313v22H0z"/></mask><g mask="url(#p)"><path fill="#fff" fill-rule="evenodd" d="M12.129 11.167c-.176.264-.53.617-.53.617h-1.146v.264l1.322.264c.088-.088.44-.352.617-.528-.087-.088-.087-.264-.087-.44z" clip-rule="evenodd"/></g><mask id="q" width="55" height="22" x="0" y="0" maskUnits="userSpaceOnUse" style="mask-type:luminance"><path fill="#fff" d="M0 0h54.313v22H0z"/></mask><g mask="url(#q)"><path fill="#fff" fill-rule="evenodd" d="M12.305 9.845c-.264.264-.528.352-.705.352h-.44c0 .089 0 .177.088.265.056.115.15.208.264.264v.088s.088.353.44.44q.089-.086.088-.175c-.088-.176 0-.352.088-.44 0 0-.088.44.265.616h.088v.088s-.176.441.264.617h.088v.088s-.176.353.176.617h.794v-.704c-.264 0-.352-.265-.44-.441q-.176-.001-.263-.176c-.178-.264-.09-.441-.09-.441s0 .176.176.352q.09.089.264.088l.088.088s0 .353.265.353v-1.322q.089-.352.176-.616z" clip-rule="evenodd"/></g><mask id="r" width="55" height="22" x="0" y="0" maskUnits="userSpaceOnUse" style="mask-type:luminance"><path fill="#fff" d="M0 0h54.313v22H0z"/></mask><g mask="url(#r)"><path fill="#fff" fill-rule="evenodd" d="m10.102 10.462-.088.882h.088l.264-.794-.088-.264z" clip-rule="evenodd"/></g><mask id="s" width="55" height="22" x="0" y="0" maskUnits="userSpaceOnUse" style="mask-type:luminance"><path fill="#fff" d="M0 0h54.313v22H0z"/></mask><g mask="url(#s)"><path fill="#fff" fill-rule="evenodd" d="M12.657 14.428c0 .176 0 .264.088.44a.19.19 0 0 0 .176.176v.178l-.176.527h-.176l.088-.527c.088-.088-.352-.176-.528-.44-.088.088-.352.088-.53.088h-.527q-.09-.001-.09.088h-.087l-.528-.088-.177.176v.088l.088.088c0 .088-.176.176-.176.176l-.088-.088v-.353l.264-.352.44.088v-.175c-.176-.266 0-.53 0-.707q0 .089-.088.088h-.176l-.088.088-.088-.088q-.088-.088 0-.088l.176-.264-.264-.352.44.176.088-.088v.088c.176 0 .44.176.529.616v.088s.088.088.176.088l.529.088c.088 0 .176-.088.352-.088q.089 0 .265.088l.088-.088c.264 0 .352.265.53.441l.175.352q0 .089-.176.088c-.264-.088-.352-.616-.44-.616h-.089m-2.027-.793q0-.089-.088-.088v.088z" clip-rule="evenodd"/></g><mask id="t" width="55" height="22" x="0" y="0" maskUnits="userSpaceOnUse" style="mask-type:luminance"><path fill="#fff" d="M0 0h54.313v22H0z"/></mask><g mask="url(#t)"><path fill="#fff" fill-rule="evenodd" d="m9.836 14.87.176-.088v-.088q-.087-.089 0-.088l.176-.177.353.088s-.088-.088-.088-.176l-.264-.088-.352.176c-.088.088-.088.264-.088.352l.088.088z" clip-rule="evenodd"/></g><mask id="u" width="55" height="22" x="0" y="0" maskUnits="userSpaceOnUse" style="mask-type:luminance"><path fill="#fff" d="M0 0h54.313v22H0z"/></mask><g mask="url(#u)"><path fill="#fff" fill-rule="evenodd" d="M12.217 15.751h.176l.176-.528c-.088 0-.264-.09-.352-.177 0 .088.176.176.176.264l-.176.44z" clip-rule="evenodd"/></g><mask id="v" width="55" height="22" x="0" y="0" maskUnits="userSpaceOnUse" style="mask-type:luminance"><path fill="#fff" d="M0 0h54.313v22H0z"/></mask><g mask="url(#v)"><path fill="#ffdd2d" fill-rule="evenodd" d="M13.803 12.755h-4.76v1.85c0 .705.528 1.146 1.322 1.146.617 0 .793.088 1.058.264.176-.176.352-.176.616-.264l.176-.44-.264-.353c-.088.088-.176.088-.352.088q-.176 0-.44-.088h-.088v.088l-.089.088h-.088l-.44-.088-.088.088.088.088h-.088c0 .176-.089.264-.177.264l-.088.176-.088-.176-.088-.088a.8.8 0 0 1-.088-.352H9.75l-.088-.088v-.088c-.089-.176-.089-.352.088-.529l.44-.176h.352v-.176l-.264.088-.176-.088s-.088-.088 0-.176l.176-.265-.44-.617.704.264h.088l.088-.176.088.088q.089.088.088.176c.177.088.53.264.618.705h-.176l.088.088h.528a.8.8 0 0 0 .352-.088q.09 0 .265.088h.088c.352 0 .442.176.53.353l.088.088c.088.176.264.352.264.352v.176c-.088.09-.176.177-.352.177l-.088-.088h-.088v.088l-.088.528c.528-.176.88-.616.88-1.144z" clip-rule="evenodd"/></g><mask id="w" width="55" height="22" x="0" y="0" maskUnits="userSpaceOnUse" style="mask-type:luminance"><path fill="#fff" d="M0 0h54.313v22H0z"/></mask><g mask="url(#w)"><path fill="#ffdd2d" fill-rule="evenodd" d="M9.043 12.665h3.703c-.176-.264-.176-.44-.088-.616q-.09-.089-.176-.088c-.09.088-.53.44-.707.528l-1.498-.264h-.176q0 .088-.088.088-.089 0-.176-.088v-.088c-.088-.176-.265-.352-.176-.617v-.088q-.09 0-.089-.088 0-.089.088-.088l.264.088v-.971l.352-.352.265.528-.264.794.264.088v.088h-.264l.088.088h1.146c.089 0 .177-.176.264-.264-.264-.088-.351-.353-.351-.53q-.265-.089-.352-.263c-.09-.176 0-.265 0-.353a.85.85 0 0 1-.443-.352H8.955q.087.264.088.616z" clip-rule="evenodd"/></g><mask id="x" width="55" height="22" x="0" y="0" maskUnits="userSpaceOnUse" style="mask-type:luminance"><path fill="#fff" d="M0 0h54.313v22H0z"/></mask><g mask="url(#x)"><path fill="#000" fill-rule="evenodd" d="M10.541 13.548v.088h.088q0-.089-.088-.088" clip-rule="evenodd"/></g><mask id="y" width="55" height="22" x="0" y="0" maskUnits="userSpaceOnUse" style="mask-type:luminance"><path fill="#fff" d="M0 0h54.313v22H0z"/></mask><g mask="url(#y)"><path fill="#000" fill-rule="evenodd" d="M14.156 16.896c-.352.175-.882.44-1.322.617l.088.264s-.53.265-1.498.265c-.97 0-1.5-.264-1.5-.264l.088-.264c-.44-.176-.88-.441-1.233-.617l.264-.088.264-.088-.088-.265v-.352s.441.264 1.147.44a.9.9 0 0 0 .351.087v.264s.354.088.707.088c.44 0 .792-.088.792-.088v-.264s.088 0 .353-.087a7.5 7.5 0 0 0 1.146-.44l-.088.352-.088.264.264.088.352.087zm-1.322.794-.264-.793a3.8 3.8 0 0 1-1.058.176c-.352 0-.793-.088-1.059-.176l-.263.792c.176 0 .793.177 1.322.177.528 0 1.145-.176 1.322-.176m-2.732-.352.264-.619a9 9 0 0 1-.882-.352l.088.44-.44.088q.44.265.968.442zm3.789-.441-.528-.088.176-.442a9 9 0 0 1-.882.352l.176.618a4.4 4.4 0 0 0 1.058-.44" clip-rule="evenodd"/></g><mask id="z" width="55" height="22" x="0" y="0" maskUnits="userSpaceOnUse" style="mask-type:luminance"><path fill="#fff" d="M0 0h54.313v22H0z"/></mask><g mask="url(#z)"><path fill="#000" fill-rule="evenodd" d="M10.19 5.79s-.088-.44-.352-.792h.44l.264-.441.441.176.44-.44.441.44.44-.176.265.44h.44c-.264.352-.264.793-.264.793-.264-.176-.704-.352-1.32-.352-.53 0-.971.176-1.235.352m0-.616a.8.8 0 0 1 .088.352 2.7 2.7 0 0 1 1.146-.264c.44 0 .88.088 1.145.264l.176-.352h-.176l-.088.088-.088-.176-.176-.353-.264.176-.088.088-.088-.088-.353-.352-.352.44-.177-.088-.264-.176-.176.352v.176l-.177-.088z" clip-rule="evenodd"/></g><mask id="A" width="55" height="22" x="0" y="0" maskUnits="userSpaceOnUse" style="mask-type:luminance"><path fill="#fff" d="M0 0h54.313v22H0z"/></mask><g mask="url(#A)"><path fill="#000" fill-rule="evenodd" d="M18.034 11.345h-.264c.088.352.176 1.145.88 1.41l.177.088-.088.176s-.264.44-.792.44q-.442 0-.619-.176 0 .264-.175.705c-.176.617 0 1.058 0 1.058l.088.176-.177.088h-.527a3.4 3.4 0 0 1-.443-.176c-.088.176-.176.352-.352.616q-.44.442-1.322.442h-.352l.176-.264s.088-.177.176-.706c0-.528.264-.88.44-1.057l-.176-.176c-.264-.265-.264-.529-.264-.618v-.176h.176c.44 0 .793-.176 1.058-.44q.109-.12.176-.264-.176.087-.528.088h-.177c-.352 0-.616-.177-.616-.265l-.177-.176.176-.088c.528-.353.97-.882.617-1.94q-.352-.97-1.674-1.763-.529-.352-.53-.616c0-.353.353-.53.529-.618.088 0 .176-.088.264-.176.177-.176 0-.528-.176-.704l-.176-.265h.352q0-.089.177-.088c.264 0 .705.088 1.058.44.264.352.352.617.264.881h.176c.441 0 .617-.44.617-.528l.176-.264.176.264s.353.352.265.792q-.087.53-.616.882h-.088c.616.264.968.705 1.41 1.146v.088c.617.706 1.41.706 1.498.706h.264l-.088.263s-.264.795-.968.795zm-.44-.353s.176.088.44.176c.617 0 .793-.704.793-.704-.088 0-.97 0-1.587-.795-.44-.528-.793-.969-1.41-1.146h-.088v-.088q0-.177.176-.264c.97-.617.352-1.41.352-1.41s-.264.616-.88.616h-.353s.176-.44-.176-.88c-.352-.353-.705-.353-.882-.353h-.176c.176.264.352.705.088.969-.176.176-.704.264-.704.617q0 .176.352.44c.792.442 1.498 1.058 1.85 1.94.352.97-.088 1.675-.704 2.116 0 0 .176.176.44.176h.176c.617 0 .882-.264.882-.264s0 .352-.353.704c-.264.353-.616.529-1.234.529 0 0 0 .264.264.529.176.176.53.176.53.176s-.705.176-.793 1.146c0 .617-.177.793-.177.793 1.674 0 1.586-1.41 1.586-1.41s.176.44.617.53h.44s-.264-.529 0-1.235c.178-.528.088-.97.088-.97s.265.353.795.353c.44 0 .617-.352.617-.352-1.058-.44-.97-1.94-.97-1.94" clip-rule="evenodd"/></g><mask id="B" width="55" height="22" x="0" y="0" maskUnits="userSpaceOnUse" style="mask-type:luminance"><path fill="#fff" d="M0 0h54.313v22H0z"/></mask><g mask="url(#B)"><path fill="#000" fill-rule="evenodd" d="m16.447 8.26.264-.177c.088 0 .264-.088.53-.088q.263 0 .527.264c.441.352.795.44.795.44h.264l-.088.265c-.088.264-.44.44-.704.44q-.179.001-.265-.088c-.177 0-.352-.176-.44-.352-.178-.176-.266-.352-.619-.528zm.44 0c.53.263.617.792.97.88h.177q.396 0 .529-.264s-.44-.088-.881-.528c-.176-.177-.352-.177-.44-.177-.266 0-.355.088-.355.088" clip-rule="evenodd"/></g><mask id="C" width="55" height="22" x="0" y="0" maskUnits="userSpaceOnUse" style="mask-type:luminance"><path fill="#fff" d="M0 0h54.313v22H0z"/></mask><g mask="url(#C)"><path fill="#000" fill-rule="evenodd" d="M16.888 10.99c-.176-1.321-1.146-2.202-2.204-2.82a1 1 0 0 0-.264-.176c.352.088.88.088 1.234-.264 0 0-.617.44-1.851.088.352.176 1.058.528 1.675 1.056 1.498 1.324.44 2.646.44 2.646.528-.53.528-1.146.352-1.675.353.44.53 1.058.441 1.763 0 1.057-.616 2.027-1.145 2.732-.352.352-.352.793-.352.793s.088-.44.44-.793c.616-.793 1.145-1.586 1.234-2.732.088.264.352.793.792 1.057 0 0-.528-.352-.792-1.674" clip-rule="evenodd"/></g><mask id="D" width="55" height="22" x="0" y="0" maskUnits="userSpaceOnUse" style="mask-type:luminance"><path fill="#fff" d="M0 0h54.313v22H0z"/></mask><g mask="url(#D)"><path fill="#000" fill-rule="evenodd" d="M8.866 16.192h-.352q-.88 0-1.41-.442a5 5 0 0 1-.352-.617q-.089.089-.352.176h-.529l-.264-.088.088-.176s.264-.44 0-1.058a4 4 0 0 1-.088-.704c-.184.12-.399.181-.618.176-.528 0-.792-.441-.792-.441l-.177-.176.264-.088c.617-.264.793-1.058.793-1.411H4.9c-.793 0-.97-.792-1.057-.792v-.267h.264c.088 0 .88 0 1.41-.705l.088-.088c.352-.44.705-.88 1.322-1.146H6.84a1.4 1.4 0 0 1-.528-.88c-.088-.44.176-.794.176-.794l.264-.264.088.264c0 .088.264.528.705.528h.088c0-.264 0-.528.352-.88.353-.353.794-.441.97-.441q.264 0 .264.088h.264l-.176.264c-.176.176-.264.528-.088.705 0 .088.176.176.264.176.178.088.442.264.442.617q0 .264-.44.617-1.411.793-1.764 1.763c-.352 1.058.176 1.587.617 1.94l.264.088-.264.176c0 .088-.176.264-.528.264h-.176q-.353 0-.53-.088 0 .176.088.264c.264.264.617.44 1.146.44h.176v.177c0 .088 0 .353-.352.617l-.176.176q.396.265.528 1.058c0 .528.088.705.088.705l.264.264zm-.352-.264s-.088-.178-.176-.707c-.088-1.057-.704-1.146-.704-1.146s.352-.088.528-.264a.7.7 0 0 0 .176-.44c-.528 0-.88-.176-1.234-.529-.264-.352-.352-.793-.352-.793s.352.352.881.352h.176c.352-.088.53-.264.53-.264-.617-.352-1.058-1.058-.705-2.115.352-.795 1.056-1.41 1.763-1.94q.44-.176.44-.44c0-.353-.528-.353-.704-.618-.266-.264-.088-.704.088-.969h-.176c-.178 0-.53.088-.883.352-.352.441-.264.882-.264.882H7.81q-.089.088-.176.088c-.618 0-.882-.617-.882-.617s-.617.704.264 1.322q.264.177.264.352l-.088.088c-.704.176-1.057.617-1.41 1.147-.616.793-1.498.793-1.586.793h-.088s.264.617.793.617h.088c.264 0 .352-.088.352-.088s.177 1.41-.968 1.851c0 0 .264.352.704.352.529 0 .705-.352.705-.352s0 .44.176 1.057c.265.705 0 1.146 0 1.146s.176.088.265.088h.176c.44-.176.53-.528.53-.528s0 1.322 1.585 1.322" clip-rule="evenodd"/></g><mask id="E" width="55" height="22" x="0" y="0" maskUnits="userSpaceOnUse" style="mask-type:luminance"><path fill="#fff" d="M0 0h54.313v22H0z"/></mask><g mask="url(#E)"><path fill="#000" fill-rule="evenodd" d="M4.196 8.964 4.02 8.7h.264c.088 0 .44-.088.793-.44a.85.85 0 0 1 .617-.265c.264 0 .44.088.44.088l.265.176-.264.176q-.396.264-.528.53c-.177.175-.265.351-.53.351q-.088.089-.176.088c-.352 0-.616-.176-.704-.44zm.176-.088c0 .176.264.352.529.352q.088.001.176-.088c.264-.088.44-.528.97-.88 0 0-.176-.089-.352-.089-.177 0-.265 0-.441.176-.441.528-.882.528-.882.528z" clip-rule="evenodd"/></g><mask id="F" width="55" height="22" x="0" y="0" maskUnits="userSpaceOnUse" style="mask-type:luminance"><path fill="#fff" d="M0 0h54.313v22H0z"/></mask><g mask="url(#F)"><path fill="#000" fill-rule="evenodd" d="M6.135 11.608c0-.705.176-1.322.44-1.763-.176.529-.088 1.146.441 1.675 0 0-1.145-1.322.44-2.644.618-.528 1.323-.881 1.675-1.059-1.322.352-1.939-.088-1.939-.088.441.352.97.352 1.234.264a1 1 0 0 1-.264.176c-1.058.619-2.027 1.5-2.115 2.822-.264 1.322-.793 1.674-.793 1.674.44-.264.704-.792.704-1.057.088 1.146.706 1.94 1.323 2.733.352.352.44.793.44.793s-.088-.44-.352-.793c-.617-.706-1.146-1.676-1.234-2.733" clip-rule="evenodd"/></g><mask id="G" width="55" height="22" x="0" y="0" maskUnits="userSpaceOnUse" style="mask-type:luminance"><path fill="#fff" d="M0 0h54.313v22H0z"/></mask><g mask="url(#G)"><path fill="#000" fill-rule="evenodd" d="M11.07 8.964v.264c.088-.088.264-.088.264-.088v.352s0 .177-.088.265h.441c-.087-.088-.087-.264-.087-.264v-.352s.175 0 .264.088v-.265z" clip-rule="evenodd"/></g><mask id="H" width="55" height="22" x="0" y="0" maskUnits="userSpaceOnUse" style="mask-type:luminance"><path fill="#fff" d="M0 0h54.313v22H0z"/></mask><g mask="url(#H)"><path fill="#000" fill-rule="evenodd" d="m10.895 7.465.176.088h.088V7.29l-.44-.176s0 .176.176.352" clip-rule="evenodd"/></g><mask id="I" width="55" height="22" x="0" y="0" maskUnits="userSpaceOnUse" style="mask-type:luminance"><path fill="#fff" d="M0 0h54.313v22H0z"/></mask><g mask="url(#I)"><path fill="#000" fill-rule="evenodd" d="M11.951 7.465a1.5 1.5 0 0 0 .264-.352l-.44.176v.264s.088 0 .176-.088" clip-rule="evenodd"/></g><mask id="J" width="55" height="22" x="0" y="0" maskUnits="userSpaceOnUse" style="mask-type:luminance"><path fill="#fff" d="M0 0h54.313v22H0z"/></mask><g mask="url(#J)"><path fill="#000" fill-rule="evenodd" d="m12.746 6.495-.264 1.587.264.176.704.44s.176.088.264.088c.265.266.353.53.177.619-.088-.264-.264-.441-.528-.441a.8.8 0 0 0-.617.264q-.089.088-.088.176l-.176.176h1.85c-.088.265-.264.618-.264.882v4.142c0 .97-.706 1.41-1.587 1.41-.616 0-.704 0-1.057.352-.352-.351-.441-.351-1.058-.351-.793 0-1.586-.44-1.586-1.41v-4.143c0-.264-.088-.616-.264-.881h1.85q-.088-.089-.088-.176l-.176-.176q-.131-.265-.53-.265c-.351 0-.527.176-.527.44-.177-.088-.177-.352.176-.616l.176-.088.704-.442.353-.176-.352-1.587v-.088c0-.352.616-.704 1.322-.704.704 0 1.322.352 1.322.704zm-.264.088-.97.353v1.498l.704-.352.265-1.498zm-.089 1.675-.881.528h-.088l-.882-.528-.352.176-.264.264h-.088q.263.09.44.266 0 .088.088.088v.088l.088.088q0 .088.088.088c.264.44.617.706.882.706.352 0 .704-.264.97-.705q.086 0 .087-.088l.088-.088v-.088q.089 0 .088-.09.176-.176.441-.263h-.088l-.264-.264zm-.088 1.587c-.264.264-.528.352-.705.352h-.352q-.132.133 0 .265c.056.115.15.207.264.264v.088s.088.353.44.44q.089-.086.088-.175c-.088-.176 0-.352.088-.44 0 0 0 .44.265.616h.088v.088s-.176.44.264.617h.088v.088s-.176.353.176.529h.794v-.616c-.264 0-.352-.265-.44-.441q-.177-.001-.264-.176c-.177-.264-.089-.441-.089-.441s0 .176.176.352q.09.089.264.088l.088.088s0 .353.265.353v-1.322q.089-.352.176-.616zm1.586 4.76-.088-1.85h-4.76v1.85c0 .704.529 1.146 1.323 1.146.705 0 .88.088 1.058.264.176-.177.352-.177.616-.264l.176-.44-.264-.354c-.088.088-.176.088-.352.088q-.176 0-.44-.088h-.088v.088l-.09.088h-.087l-.44-.176-.088.176h.088l-.088.088c0 .176-.09.264-.177.264l-.088.176-.088-.176-.088-.088a.8.8 0 0 1-.088-.352H9.75l-.088-.088v-.088c-.09-.176-.09-.352.088-.529l.44-.176h.352v-.176l-.264.088-.176-.088s-.088-.088 0-.176l.176-.265-.44-.617.704.264h.088l.088-.176.088.088q.089.088.088.176c.177.088.53.264.618.617l-.176.088.088.088h.616q.09-.088.264-.088.089 0 .265.088h.088c.352 0 .441.176.617.353v.088c.088.176.264.352.264.352v.176c-.088.09-.176.177-.264.177q-.087 0-.176-.088h-.088v.088l-.088.528c.616-.176.97-.617.97-1.145m-3.877 0 .176-.177.352.088s-.088-.088 0-.176l-.352-.088-.352.176c-.088.088-.088.264-.088.352l.088.088.176-.088v-.088q-.09-.087 0-.088m2.908.44a.19.19 0 0 1-.176-.177c-.088-.176-.088-.264-.088-.44h.088c.088 0 .176.528.44.616h.088q.089.001.088-.088l-.176-.352c-.176-.176-.264-.44-.528-.44l-.088.088a.7.7 0 0 0-.265-.088c-.176 0-.264.088-.352.088l-.529-.088c-.088 0-.176-.088-.176-.088v-.088c0-.44-.353-.618-.53-.618v-.088l-.087.088-.441-.176.264.352-.176.265q-.088 0 0 .088l.088.088.088-.088h.176q.089.001.088-.088c0 .176-.176.44 0 .705v.176l-.44-.088-.264.352v.353l.088.088s.176-.088.176-.176l-.088-.088v-.088l.176-.176.528.088h.089q0-.088.088-.088h.528c.265 0 .442 0 .53-.088.176.264.616.352.528.44l-.088.528h.264l.088-.528zm-.352.176c-.088 0-.265-.088-.353-.176 0 .088.176.176.176.264l-.176.44h.176zM8.955 9.845q.088.264.088.617v2.115h3.702c-.176-.176-.176-.352-.088-.528q-.09-.089-.176-.088c-.089.088-.53.44-.706.528l-1.498-.264H10.1q0 .087-.088.088-.089 0-.088-.088 0-.089-.088-.088c-.088-.176-.265-.352-.176-.617v-.088q-.09 0-.09-.088 0-.089.089-.088l.264.088v-.971l.352-.352.265.528-.264.794.264.088v.088h-.264l.088.088h1.146c.088 0 .176-.176.264-.264-.264-.088-.352-.353-.352-.53q-.264-.089-.352-.263c-.09-.176 0-.265 0-.353a.85.85 0 0 1-.442-.352zm1.058 1.675c-.088 0-.176 0-.264.088 0 .176.176.352.264.44h.264v-.352l-.088-.088q-.09-.089-.176-.088m2.291-.176-.176-.176c-.176.264-.53.528-.53.616h-1.144v.264l1.322.264c.088-.088.528-.352.617-.528-.088-.088-.089-.264-.089-.44m-2.115 0 .176-.794-.088-.264-.176.176-.088.882zm.528-3.262.706.352V6.936l-.97-.352zm1.851-1.763c-.088-.176-.44-.352-1.057-.352-.53 0-.97.176-1.058.352l1.058.44z" clip-rule="evenodd"/></g><mask id="K" width="55" height="22" x="0" y="0" maskUnits="userSpaceOnUse" style="mask-type:luminance"><path fill="#fff" d="M0 0h54.313v22H0z"/></mask><g mask="url(#K)"><path fill="#fff" fill-rule="evenodd" d="M27.64 7.378c.618 0 1.147 0 1.676.176 1.057.44 1.85 1.322 1.85 2.644s-.792 2.292-1.85 2.645c-.529.176-1.146.176-1.675.176h-2.467v2.115h-2.382V7.378zm-2.466 3.79h2.115c.44 0 .704 0 .88-.089.44-.088.617-.528.617-.88a.97.97 0 0 0-.528-.882c-.176-.088-.44-.088-.97-.088h-2.114z" clip-rule="evenodd"/></g><mask id="L" width="55" height="22" x="0" y="0" maskUnits="userSpaceOnUse" style="mask-type:luminance"><path fill="#fff" d="M0 0h54.313v22H0z"/></mask><g mask="url(#L)"><path fill="#fff" fill-rule="evenodd" d="m33.987 13.988-.44 1.146h-2.645l3.085-7.756h3.437l3.174 7.756h-2.645l-.44-1.146zm.617-1.674h2.38L35.838 9.14h-.176z" clip-rule="evenodd"/></g><mask id="M" width="55" height="22" x="0" y="0" maskUnits="userSpaceOnUse" style="mask-type:luminance"><path fill="#fff" d="M0 0h54.313v22H0z"/></mask><g mask="url(#M)"><path fill="#fff" d="m46.327 7.378-1.938 3.525H44.3l-1.94-3.525H39.63l3.525 5.64v2.116h2.38v-2.291l3.261-5.465z"/></g></svg>