<svg xmlns="http://www.w3.org/2000/svg" width="95" height="20" fill="none" viewBox="0 0 95 20"><path fill="#8b3ffd" d="M17.983 0a9.88 9.88 0 0 0-9.9 9.9c0 5.514 4.45 9.9 9.9 9.9s9.9-4.448 9.9-9.9c.063-5.452-4.449-9.9-9.9-9.9m0 13.596c-2.004 0-3.696-1.69-3.696-3.696 0-2.005 1.692-3.696 3.696-3.696S21.68 7.894 21.68 9.9a3.704 3.704 0 0 1-3.697 3.696m-9.9-10.714v14.412h-3.57L0 2.882z"/><path fill="#000" d="m91.606 5.452-2.192 5.387c-.063.063-.063.188-.063.251l-.063.126-.063-.126c0-.062-.062-.187-.062-.25L86.97 5.451h-2.82l3.697 9.21-1.566 3.509H89.1l5.2-12.72zm-20.801.5a3.58 3.58 0 0 0-1.881-.689c-1.253-.125-2.442.314-3.257 1.128V5.39h-2.57v9.21h2.57V9.775c0-1.065.187-1.379.375-1.628.313-.503.878-.753 1.566-.753.69 0 1.316.313 1.63.814.187.376.25.878.25 1.128v5.263h2.57V9.022c0-1.44-.44-2.443-1.254-3.069M58.21 5.514a5.22 5.22 0 0 0-3.885.187c-.814.376-1.567 1.003-2.005 1.817-.44.69-.627 1.568-.627 2.507s.187 1.818.627 2.506c.438.69 1.002 1.317 1.754 1.692.752.376 1.629.627 2.444.627q.658 0 1.316-.187c.376-.127.752-.252 1.127-.44.753-.438 1.38-1.002 1.756-1.692.438-.688.627-1.566.627-2.506.061-2.068-1.128-3.822-3.134-4.51m.751 4.637c-.061.814-.312 1.504-.814 1.942-.376.314-.94.5-1.629.564-.689 0-1.19-.187-1.63-.564-.5-.44-.75-1.128-.813-1.942-.064-.94.312-1.692 1-2.194a2.57 2.57 0 0 1 1.38-.439c.565 0 1.004.189 1.441.44.753.438 1.128 1.252 1.065 2.193M48.75 5.952a3.6 3.6 0 0 0-1.881-.689h-.438q-1.504.001-2.631 1.316l-.126.187h-.25a2.7 2.7 0 0 0-.69-.751 3.58 3.58 0 0 0-1.88-.689c-1.19-.125-2.13.251-2.945 1.128v-.94H35.34v9.21h2.568v-4.95c0-1.002.126-1.253.314-1.566a1.59 1.59 0 0 1 1.503-.752 1.76 1.76 0 0 1 1.504.815c.25.376.25.814.25 1.254v5.137h2.57v-4.95c0-.94.125-1.254.313-1.567.313-.501.878-.75 1.505-.75s1.127.312 1.44.813c.188.314.252.69.252.94v5.451h2.568V8.961a5.3 5.3 0 0 0-.188-1.441c-.25-.627-.627-1.192-1.19-1.568m32.957 5.89c-.374.377-1.253 1.065-2.442 1.128-1.003.063-1.756-.25-2.319-.814-.25-.25-.44-.627-.564-1.003h7.08v-.063c.063-.375.126-.688.126-1.065q0-.47-.188-1.315c-.314-1.066-.94-1.881-1.755-2.507-.94-.689-1.817-.877-2.068-.877-1.817-.313-3.885.502-4.95 2.194-.752 1.19-.688 2.38-.688 2.756 0 .44.061 1.817 1.19 3.07 1.315 1.441 3.133 1.504 3.696 1.567 2.508.062 4.198-1.504 4.575-1.818zM77.32 7.958c.376-.25.815-.439 1.38-.439.563 0 1.002.189 1.44.44.377.313.69.69.877 1.128h-4.51c.062-.44.375-.878.813-1.129"/></svg>