<svg xmlns="http://www.w3.org/2000/svg" width="55" height="18" fill="none" viewBox="0 0 55 18"><path fill="#1a1f71" d="M20.783.265 13.62 17.336H8.932L5.396 3.715c-.178-.797-.443-1.15-1.062-1.504C3.273 1.681 1.504 1.061 0 .796l.088-.53h7.518c.973 0 1.857.618 2.034 1.768l1.857 9.905 4.6-11.585h4.686V.266m18.309 11.497c0-4.51-6.191-4.775-6.191-6.72 0-.62.618-1.24 1.857-1.416.62-.088 2.387-.176 4.334.796l.795-3.626C38.826.442 37.5 0 35.73 0c-4.334 0-7.428 2.299-7.428 5.66 0 2.477 2.21 3.803 3.89 4.599s2.3 1.327 2.3 2.123c0 1.15-1.326 1.68-2.652 1.68-2.212 0-3.538-.619-4.51-1.061l-.797 3.715c1.06.442 2.918.884 4.864.884 4.598 0 7.606-2.299 7.695-5.838m11.497 5.574h4.068L51.119.264h-3.803c-.884 0-1.591.531-1.856 1.239l-6.633 15.83h4.598l.884-2.564h5.66l.62 2.565zm-4.953-6.015 2.299-6.367 1.327 6.367zM27.063.265l-3.625 17.071h-4.422L22.64.264h4.422z"/></svg>