<svg xmlns="http://www.w3.org/2000/svg" width="32" height="32" fill="none" viewBox="0 0 32 32"><g clip-path="url(#a)"><g clip-path="url(#b)"><mask id="c" width="32" height="32" x="0" y="0" maskUnits="userSpaceOnUse" style="mask-type:luminance"><path fill="#fff" d="M32 0H0v32h32z"/></mask><g mask="url(#c)"><path fill="#2f80ed" fill-rule="evenodd" d="M2.25 2.25C0 4.498 0 8.12 0 15.36v1.28c0 7.24 0 10.861 2.25 13.11C4.498 32 8.12 32 15.36 32h1.28c7.24 0 10.861 0 13.11-2.25C32 27.502 32 23.88 32 16.64v-1.28c0-7.24 0-10.861-2.25-13.11C27.502 0 23.88 0 16.64 0h-1.28C8.12 0 4.499 0 2.25 2.25M5.4 9.732c.173 8.32 4.333 13.32 11.627 13.32h.413v-4.76c2.68.267 4.707 2.227 5.52 4.76h3.787c-1.04-3.786-3.774-5.88-5.48-6.68 1.706-.986 4.106-3.386 4.68-6.64h-3.44c-.747 2.64-2.96 5.04-5.067 5.267V9.733H14v9.227c-2.133-.533-4.827-3.12-4.947-9.227z" clip-rule="evenodd"/></g></g></g><defs><clipPath id="a"><path fill="#fff" d="M0 0h32v32H0z"/></clipPath><clipPath id="b"><path fill="#fff" d="M0 0h32v32H0z"/></clipPath></defs></svg>