<svg width="165" height="182" viewBox="0 0 165 182" fill="none" xmlns="http://www.w3.org/2000/svg">
<path d="M0 181C0 181.552 0.447715 182 1 182H95.1517C139.169 182 165 163.02 165 131.82C165 106.6 150.767 94.12 128.363 86.84C144.704 79.82 156.829 67.34 156.829 46.28C156.829 33.28 152.348 23.66 144.968 16.38C134.161 5.72 117.819 0 94.6246 0H1C0.447716 0 0 0.447715 0 1V181ZM49.8163 141.44V107.9H88.8259C105.958 107.9 113.866 114.4 113.866 124.28C113.866 135.46 104.904 141.44 89.353 141.44H49.8163ZM49.8163 72.54V40.56H83.0272C98.3147 40.56 106.222 46.28 106.222 56.16C106.222 67.34 97.524 72.54 81.9728 72.54H49.8163Z" fill="white" fill-opacity="0.4"/>
</svg>
