<svg width="172" height="1072" viewBox="0 0 172 1072" fill="none" xmlns="http://www.w3.org/2000/svg">
<path d="M2 181C2 181.552 2.44772 182 3 182H52.1648C52.7171 182 53.1648 181.552 53.1648 181V112.84H118.835V181C118.835 181.552 119.283 182 119.835 182H169C169.552 182 170 181.552 170 181V0.999995C170 0.44771 169.552 0 169 0H119.835C119.283 0 118.835 0.447715 118.835 1V68.12H53.1648V0.999999C53.1648 0.447715 52.7171 0 52.1648 0H3C2.44771 0 2 0.447715 2 1V181Z" fill="white" fill-opacity="0.4"/>
<path d="M85.4724 497C137.969 497 172 471.313 172 412.673V313C172 312.448 171.552 312 171 312H121.031C120.478 312 120.031 312.448 120.031 313V414.23C120.031 439.658 106.577 451.593 86 451.593C65.4233 451.593 51.9693 439.139 51.9693 412.933V313C51.9693 312.448 51.5216 312 50.9693 312H0.999999C0.447714 312 0 312.448 0 313V413.971C0 470.794 32.9755 497 85.4724 497Z" fill="white" fill-opacity="0.4"/>
<path d="M4 808C4 808.552 4.44772 809 5 809H99.1517C143.169 809 169 790.02 169 758.82C169 733.6 154.767 721.12 132.363 713.84C148.704 706.82 160.829 694.34 160.829 673.28C160.829 660.28 156.348 650.66 148.968 643.38C138.161 632.72 121.819 627 98.6246 627H5C4.44772 627 4 627.448 4 628V808ZM53.8163 768.44V734.9H92.8259C109.958 734.9 117.866 741.4 117.866 751.28C117.866 762.46 108.904 768.44 93.353 768.44H53.8163ZM53.8163 699.54V667.56H87.0272C102.315 667.56 110.222 673.28 110.222 683.16C110.222 694.34 101.524 699.54 85.9728 699.54H53.8163Z" fill="white" fill-opacity="0.4"/>
<path d="M20 1072H151C151.552 1072 152 1071.55 152 1071V1024.69C152 1024.14 151.552 1023.69 151 1023.69H67.8952V940C67.8952 939.448 67.4475 939 66.8952 939H21C20.4477 939 20 939.448 20 940L20 1072Z" fill="white" fill-opacity="0.4"/>
</svg>
