<svg width="1256" height="321" viewBox="0 0 1256 321" fill="none" xmlns="http://www.w3.org/2000/svg">
<path d="M490.482 320.338C581.216 320.338 640.033 275.859 640.033 174.322V1C640.033 0.447716 639.585 0 639.033 0H551.211C550.659 0 550.211 0.447715 550.211 1V177.017C550.211 221.047 526.958 241.714 491.394 241.714C455.83 241.714 432.577 220.148 432.577 174.771V0.999995C432.577 0.44771 432.129 0 431.577 0H343.755C343.203 0 342.755 0.447715 342.755 1V176.568C342.755 274.961 399.748 320.338 490.482 320.338Z" fill="white" fill-opacity="0.4"/>
<path d="M692.381 313.498C692.381 314.05 692.829 314.498 693.381 314.498H856.978C933.122 314.498 977.805 281.7 977.805 227.786C977.805 184.206 953.183 162.64 914.428 150.06C942.696 137.93 963.67 116.364 963.67 79.9723C963.67 57.5082 955.919 40.8847 943.152 28.3048C924.459 9.88422 896.19 0 856.066 0H693.381C692.829 0 692.381 0.447715 692.381 1V313.498ZM778.555 244.41V186.452H846.036C875.672 186.452 889.351 197.684 889.351 214.757C889.351 234.076 873.848 244.41 846.947 244.41H778.555ZM778.555 125.35V70.0881H836.005C862.45 70.0881 876.128 79.9723 876.128 97.045C876.128 116.364 861.082 125.35 834.181 125.35H778.555Z" fill="white" fill-opacity="0.4"/>
<path d="M0 313.498C0 314.05 0.447715 314.498 1 314.498H87.4538C88.0061 314.498 88.4538 314.05 88.4538 313.498V194.989H201.985V313.498C201.985 314.05 202.432 314.498 202.985 314.498H289.439C289.991 314.498 290.439 314.05 290.439 313.498V0.999999C290.439 0.447714 289.991 0 289.439 0H202.985C202.432 0 201.985 0.447715 201.985 1V117.712H88.4538V1C88.4538 0.447718 88.0061 0 87.4538 0H1C0.447715 0 0 0.447715 0 1V313.498Z" fill="white" fill-opacity="0.4"/>
<path d="M1028.46 312.481H1255C1255.55 312.481 1256 312.033 1256 311.481V230.6C1256 230.048 1255.55 229.6 1255 229.6H1111.02V85.2998C1111.02 84.7475 1110.57 84.2998 1110.02 84.2998H1029.46C1028.9 84.2998 1028.46 84.7475 1028.46 85.2998V312.481Z" fill="white" fill-opacity="0.4"/>
</svg>
