<svg width="168" height="182" viewBox="0 0 168 182" fill="none" xmlns="http://www.w3.org/2000/svg">
<path d="M0 181C0 181.552 0.447715 182 1 182H50.1648C50.7171 182 51.1648 181.552 51.1648 181V112.84H116.835V181C116.835 181.552 117.283 182 117.835 182H167C167.552 182 168 181.552 168 181V0.999995C168 0.44771 167.552 0 167 0H117.835C117.283 0 116.835 0.447715 116.835 1V68.12H51.1648V0.999999C51.1648 0.447715 50.7171 0 50.1648 0H0.999999C0.447715 0 0 0.447715 0 1V181Z" fill="white" fill-opacity="0.4"/>
</svg>
