<svg width="885" height="380" viewBox="0 0 885 380" fill="none" xmlns="http://www.w3.org/2000/svg">
<path d="M0 173.561C185.5 180.08 494.5 162.08 885 89.0801V301.962C724.038 303.063 620.184 313.362 415.117 346.143C222.622 377.107 131.855 383.513 0 376.517V173.561Z" fill="#FAE051"/>
<path d="M492 0C310.724 33.588 224.83 42.9182 111 35.9517V194.665C138.207 220.755 226.586 218.071 492 187.65V0Z" fill="#FAE051"/>
<path fill-rule="evenodd" clip-rule="evenodd" d="M849.001 119.197C849.001 120.787 843.238 197.263 842.635 203.672C842.411 206.057 841.839 208.363 841.364 208.795C840.889 209.228 835.708 209.836 829.851 210.147L819.2 210.712L818.64 207.523C817.757 202.495 810.775 120.727 811.193 120.309C811.628 119.874 834.781 118.191 843.251 117.979C847.507 117.872 849.001 118.189 849.001 119.197ZM802.001 207.756V258.676L799.251 259.199C797.738 259.486 790.771 260.017 783.767 260.378L771.033 261.035L770.767 233.378L770.501 205.722L759.089 227.029C737.729 266.905 740.638 262.497 735.23 263.178C732.629 263.505 725.884 264.076 720.242 264.448L709.983 265.122L710.242 213.729L710.501 162.335L716.501 161.707C719.801 161.361 726.881 160.772 732.234 160.398L741.968 159.717L742.234 186.026L742.501 212.335L750.104 198.335C754.286 190.635 760.948 178.39 764.909 171.123L772.111 157.911L780.806 157.579C785.588 157.396 792.314 157.154 795.751 157.041L802.001 156.835V207.756ZM698.501 214.835V266.335L685.001 268.008C677.576 268.929 670.269 269.716 668.763 269.758L666.026 269.835L665.763 233.588L665.501 197.342L661.501 197.608C659.301 197.755 655.363 198.133 652.751 198.449L648.001 199.023L647.995 212.679C647.984 239.548 642.962 259.439 633.841 268.742C627.475 275.235 614.096 279.201 604.582 277.416L600.949 276.735L601.225 261.551L601.501 246.367L605.199 245.767C609.543 245.062 611.516 243.606 613.817 239.408C615.265 236.765 615.571 231.79 616.001 203.835L616.501 171.335L622.001 170.524C630.17 169.318 694.18 163.015 696.501 163.187C698.473 163.333 698.501 164.051 698.501 214.835ZM574.232 181.627C582.605 185.75 587.354 191.149 590.212 199.793C592.261 205.992 592.378 208.213 592.438 242.18C592.473 261.895 592.271 278.167 591.991 278.341C590.663 279.163 561.866 282.87 560.995 282.331C560.448 281.993 560.001 279.453 560.001 276.686V271.655L556.02 276.692C550.95 283.106 545.126 286.5 535.878 288.428C523.013 291.11 513.702 288.633 506.488 280.609C500.598 274.058 498.606 267.438 499.212 256.426C499.545 250.357 500.33 246.925 502.351 242.692C509.454 227.815 527.921 218.934 549.301 220.112L559.12 220.653L558.442 217.494C557.431 212.781 556.21 210.933 552.687 208.785C546.359 204.927 533.521 206.638 520.246 213.109C516.806 214.786 513.798 215.966 513.563 215.73C513.328 215.495 511.344 210.282 509.155 204.144L505.175 192.986L508.86 190.547C522.053 181.816 537.2 177.781 555.524 178.116C566.882 178.323 567.917 178.517 574.232 181.627ZM491.001 241.204V293.574L477.251 295.736C469.689 296.926 462.039 298.159 460.251 298.478L457.001 299.058V279.946C457.001 261.468 456.934 260.835 454.99 260.835C453.017 260.835 436.16 263.34 430.751 264.436L428.001 264.994V284.414C428.001 295.096 427.762 303.835 427.47 303.835C427.178 303.835 419.714 304.996 410.883 306.415C402.053 307.834 394.529 308.697 394.164 308.332C393.8 307.967 393.4 284.288 393.276 255.711C393.101 215.404 393.325 203.675 394.276 203.406C397.005 202.632 422.766 198.835 425.289 198.835H428.001V215.835C428.001 228.759 428.301 232.839 429.251 232.853C429.939 232.863 436.463 231.895 443.751 230.702L457.001 228.532V210.853V193.174L470.251 191.122C477.539 189.994 485.189 189.017 487.251 188.953L491.001 188.835V241.204ZM177.174 263.319C176.995 301.794 176.669 333.563 176.45 333.917C176.232 334.271 170.754 334.862 164.277 335.231C157.8 335.6 149.913 336.17 146.751 336.498L141.001 337.093V282.946V228.799L116.751 229.067L92.5013 229.335L92.2423 283.085L91.9843 336.835H73.4863H54.9883L55.2443 266.085L55.5013 195.335L71.5013 195.835C96.5093 196.616 140.899 195.898 158.501 194.427C167.301 193.692 175.176 193.152 176.001 193.227C177.322 193.348 177.462 201.706 177.174 263.319ZM385.001 220.756V236.676L382.251 237.188C380.739 237.469 370.838 238.933 360.251 240.44L341.001 243.182L340.787 272.258C340.67 288.25 340.557 304.556 340.537 308.493C340.517 312.43 340.162 315.994 339.748 316.413C339.116 317.052 311.103 321.697 307.251 321.801C306.266 321.828 306.001 310.702 306.001 269.414V216.994L308.751 216.436C310.263 216.129 316.901 215.179 323.501 214.326C330.101 213.473 345.851 211.04 358.501 208.919C371.151 206.799 382.289 205.012 383.251 204.949C384.849 204.845 385.001 206.216 385.001 220.756ZM837.686 220.902C844.397 223.444 849.001 230.845 849.001 239.089C849.001 243.337 848.339 245.518 845.751 249.801C841.764 256.399 836.814 259.264 829.402 259.264C814.048 259.264 806.276 239.169 816.796 226.667C821.655 220.892 830.915 218.336 837.686 220.902ZM262.202 222.945C274.873 225.598 287.018 234.927 292.403 246.143C295.194 251.956 298.01 264.52 297.984 271.043C297.954 278.47 295.175 288.908 290.968 297.401C283.564 312.349 271.477 322.941 255.501 328.485C248.52 330.907 245.973 331.265 235.501 331.298C221.548 331.341 216.416 329.963 206.928 323.627C199.159 318.439 191.775 308.169 188.776 298.381C184.143 283.257 186.483 264.603 194.706 251.107C203.198 237.171 216.843 227.496 233.809 223.382C240.83 221.679 255.109 221.459 262.202 222.945ZM544.837 238.735C533.779 241.02 527.938 253.499 534.741 260.303C537.18 262.741 538.052 262.995 542.669 262.613C549.091 262.08 553.946 258.645 556.899 252.546C559.604 246.958 559.812 238.84 557.251 238.824C556.289 238.818 553.926 238.625 552.001 238.395C550.076 238.166 546.852 238.318 544.837 238.735ZM234.853 256.795C230.041 259.411 224.606 265.871 223.162 270.693C219.865 281.697 223.864 293.052 232.402 296.93C237.909 299.43 242.481 299.29 248.618 296.433C256.967 292.545 261.549 284.62 261.394 274.335C261.213 262.251 255.452 255.645 244.631 255.113C239.99 254.885 237.615 255.293 234.853 256.795Z" fill="black"/>
<path d="M458.71 55.6468C455.539 49.1898 450.673 44.4829 444.051 41.4679C440.413 39.8119 437.092 39.3408 427.5 39.1178C410.171 38.7168 400.935 41.4278 386.5 51.1528C379.196 56.0728 369 66.2418 369.001 68.6038C369.001 69.5528 372.679 73.7038 377.174 77.8288C389.674 89.3008 388.191 88.9048 394.852 82.5508C403.785 74.0308 412.123 70.6918 420.528 72.2678C423.392 72.8058 424.441 73.6409 425.533 76.2529C428.023 82.2129 426.04 86.0988 415.032 96.8288C406.935 104.721 404.923 107.308 403.143 112.117C401.126 117.565 400.095 129.829 401.654 129.829C404.827 129.829 429.648 124.399 430.144 123.596C430.498 123.022 431.076 120.754 431.428 118.556C431.982 115.089 433.59 113.095 443.557 103.518C458.582 89.0818 461.5 83.6878 461.5 70.3498C461.5 62.5018 461.137 60.5898 458.71 55.6468Z" fill="black"/>
<path d="M362.215 82.8288C362.647 82.8288 363 75.8538 363 67.3288C363 51.8898 362.991 51.8288 360.75 51.9358C359.512 51.9938 350.175 53.3698 340 54.9918C329.825 56.6148 308.9 59.3958 293.5 61.1728L265.5 64.4039L265.243 128.663L264.985 192.922L268.243 192.374C270.034 192.073 281.625 190.696 294 189.315C314.509 187.026 355.542 181.557 362.25 180.219L365 179.67V164.25C365 151.366 364.759 148.829 363.534 148.829C362.727 148.829 349.565 150.628 334.284 152.827C319.003 155.025 305.02 156.825 303.211 156.827L299.922 156.829L300.211 148.08L300.5 139.332L317 137.153C326.075 135.955 338.45 134.141 344.5 133.121L355.5 131.267L355.779 117.377C355.933 109.738 355.708 103.189 355.279 102.823C354.851 102.458 343.475 103.655 330 105.484C316.525 107.314 304.413 108.702 303.084 108.57C300.77 108.339 300.656 107.98 300.382 100.086C300.049 90.4668 297.917 91.7698 318 89.3238C325.425 88.4198 338.234 86.5888 346.465 85.2548C354.696 83.9208 361.784 82.8288 362.215 82.8288Z" fill="black"/>
<path d="M252 193.553V129.691V65.8288L246.75 65.9648C243.863 66.0398 240.6 66.2418 239.5 66.4148C238.4 66.5868 232.662 67.0188 226.75 67.3748L216 68.0208V93.4708V118.92L213.481 121.439C209.798 125.122 202.477 128.025 195.561 128.546C187.53 129.151 181.647 126.193 178.303 119.869C176.093 115.691 176 114.589 176 92.6398C176 75.2188 175.702 69.6718 174.75 69.3698C174.063 69.1518 165.738 68.7828 156.25 68.5488L139 68.1239L139.017 93.7269C139.036 121.554 139.888 128.537 144.493 138.594C149.561 149.665 156.104 155.465 168.58 159.946C180.723 164.308 201.267 162.324 212.483 155.707L216 153.631V174.878V196.124L226.75 195.462C232.662 195.098 240.762 194.52 244.75 194.177L252 193.553Z" fill="black"/>
<path d="M432.598 160.446C436.995 151.002 434.842 140.142 427.71 135.794C423.119 132.994 414.61 133.144 408.975 136.124C401.109 140.284 396.048 150.483 397.636 158.977C400.904 176.46 424.676 177.459 432.598 160.446Z" fill="black"/>
</svg>
