<svg width="63" height="16" viewBox="0 0 63 16" fill="none" xmlns="http://www.w3.org/2000/svg">
<path d="M24.4982 16C29.0301 16 31.9678 13.7784 31.9678 8.70687V0.999999C31.9678 0.447715 31.5201 0 30.9678 0H28.4815C27.9292 0 27.4815 0.447715 27.4815 1V8.84151C27.4815 11.0407 26.3201 12.0729 24.5437 12.0729C22.7674 12.0729 21.606 10.9958 21.606 8.72931V1C21.606 0.447716 21.1583 0 20.606 0H18.1196C17.5674 0 17.1196 0.447715 17.1196 1V8.81907C17.1196 13.7335 19.9663 16 24.4982 16Z" fill="#1B1B1B"/>
<path d="M34.5825 14.7083C34.5825 15.2606 35.0302 15.7083 35.5825 15.7083H42.8037C46.6068 15.7083 48.8386 14.0701 48.8386 11.3773C48.8386 9.20056 47.6088 8.12342 45.6731 7.49509C47.085 6.8892 48.1326 5.81206 48.1326 3.99439C48.1326 2.87237 47.7455 2.04208 47.1078 1.41375C46.1741 0.493689 44.7622 0 42.7581 0H35.5825C35.0302 0 34.5825 0.447715 34.5825 1V14.7083ZM38.8866 12.2076V9.31276H42.2571C43.7374 9.31276 44.4206 9.87377 44.4206 10.7265C44.4206 11.6914 43.6463 12.2076 42.3026 12.2076H38.8866ZM38.8866 6.26087V3.5007H41.7561C43.0769 3.5007 43.7601 3.99439 43.7601 4.84713C43.7601 5.81206 43.0086 6.26087 41.665 6.26087H38.8866Z" fill="#1B1B1B"/>
<path d="M0 14.7083C0 15.2606 0.447715 15.7083 1 15.7083H3.41802C3.9703 15.7083 4.41802 15.2606 4.41802 14.7083V9.73913H10.0886V14.7083C10.0886 15.2606 10.5363 15.7083 11.0886 15.7083H13.5066C14.0589 15.7083 14.5066 15.2606 14.5066 14.7083V0.999999C14.5066 0.447715 14.0589 0 13.5066 0H11.0886C10.5363 0 10.0886 0.447715 10.0886 1V5.87938H4.41802V1C4.41802 0.447716 3.9703 0 3.41802 0H1C0.447715 0 0 0.447715 0 1V14.7083Z" fill="#1B1B1B"/>
<path d="M51.3682 15.6079H61.7334C62.2857 15.6079 62.7334 15.1602 62.7334 14.6079V12.4683C62.7334 11.916 62.2857 11.4683 61.7334 11.4683H55.492V5.21094C55.492 4.65865 55.0442 4.21094 54.492 4.21094H52.3682C51.8159 4.21094 51.3682 4.65865 51.3682 5.21094V15.6079Z" fill="#FAD348"/>
</svg>
