<svg width="36" height="22" viewBox="0 0 36 22" fill="none" xmlns="http://www.w3.org/2000/svg">
<path d="M12.3323 2.32129H22.7779V19.3823H12.3323V2.32129Z" fill="#FF5F00"/>
<path d="M13.4081 10.853C13.407 9.21019 13.7796 7.58869 14.4977 6.11117C15.2158 4.63365 16.2605 3.33882 17.5529 2.32467C15.9523 1.06689 14.0302 0.284782 12.0062 0.0677209C9.98215 -0.14934 7.93789 0.207405 6.10703 1.09718C4.27616 1.98696 2.73256 3.37388 1.65263 5.09943C0.572693 6.82498 0 8.81954 0 10.8552C0 12.8908 0.572693 14.8854 1.65263 16.6109C2.73256 18.3365 4.27616 19.7234 6.10703 20.6131C7.93789 21.5029 9.98215 21.8597 12.0062 21.6426C14.0302 21.4255 15.9523 20.6434 17.5529 19.3857C16.2598 18.3709 15.2146 17.0752 14.4965 15.5967C13.7784 14.1181 13.4062 12.4956 13.4081 10.8519V10.853Z" fill="#EB001B"/>
<path d="M34.1431 18.3769V17.3649H34.3477V17.1559H33.8637V17.3649H34.054V18.3769H34.1431ZM35.0847 18.3769V17.1559H34.9384L34.7679 18.0282L34.5963 17.1548H34.45V18.3769H34.5556V17.4518L34.714 18.246H34.824L34.9835 17.4518V18.3769H35.0847ZM35.1078 10.8529C35.108 12.8889 34.5353 14.884 33.4551 16.6099C32.375 18.3359 30.8309 19.723 28.9995 20.6128C27.1682 21.5025 25.1234 21.859 23.099 21.6414C21.0745 21.4238 19.1522 20.6409 17.5518 19.3823C18.8436 18.3671 19.888 17.0718 20.6062 15.594C21.3243 14.1163 21.6975 12.4948 21.6975 10.8518C21.6975 9.20877 21.3243 7.58723 20.6062 6.10949C19.888 4.63176 18.8436 3.33644 17.5518 2.32126C19.1522 1.06262 21.0745 0.279747 23.099 0.0621438C25.1234 -0.155459 27.1682 0.200996 28.9995 1.09075C30.8309 1.98051 32.375 3.36766 33.4551 5.09359C34.5353 6.81952 35.108 8.81458 35.1078 10.8507V10.8529Z" fill="#F79E1B"/>
</svg>
