<svg width="63" height="18" viewBox="0 0 63 18" fill="none" xmlns="http://www.w3.org/2000/svg">
<path d="M31.1223 10.1739H30.7307V0H25.2527V17.2172H29.9013C31.1223 17.2172 32.2333 16.5077 32.7437 15.3989L36.6003 7.0433H36.9919V17.2183H42.4699V0H37.8202C36.5992 0 35.4904 0.7095 34.9789 1.8183L31.1223 10.1739ZM13.7225 2.2627L11.3905 10.1739H10.9912L8.6603 2.2627C8.2654 0.9229 7.0147 0 5.588 0H0V17.2172H5.59571V7.0433H5.99501L9.1927 17.2183H13.1901L16.3878 7.0433H16.7871V17.2183H22.3828V0H16.7948C15.3703 0 14.1174 0.9229 13.7225 2.2627ZM44.7656 8.0344V17.2172H50.3426V11.8602H56.3431C58.949 11.8602 61.16 10.2619 61.9828 8.0344H44.7667" fill="#319B42"/>
<mask id="mask0_2007_6" style="mask-type:luminance" maskUnits="userSpaceOnUse" x="44" y="0" width="19" height="7">
<path d="M56.6766 0.0488281H44.2422C44.9979 3.80313 48.5916 6.64883 52.9168 6.64883H62.5726C62.6507 6.29353 62.6936 5.92613 62.6936 5.54883C62.6936 2.51173 59.9986 0.0488281 56.6766 0.0488281Z" fill="white"/>
</mask>
<g mask="url(#mask0_2007_6)">
<path d="M56.6766 0.0488281H44.2422C44.9979 3.80313 48.5916 6.64883 52.9168 6.64883H62.5726C62.6507 6.29353 62.6936 5.92613 62.6936 5.54883C62.6936 2.51173 59.9986 0.0488281 56.6766 0.0488281Z" fill="url(#paint0_linear_2007_6)"/>
</g>
<defs>
<linearGradient id="paint0_linear_2007_6" x1="44.2422" y1="330.049" x2="1889.38" y2="330.049" gradientUnits="userSpaceOnUse">
<stop stop-color="#00A3E1"/>
<stop offset="0.59267" stop-color="#008CD8"/>
<stop offset="1" stop-color="#0076CF"/>
</linearGradient>
</defs>
</svg>
