<svg width="43" height="22" viewBox="0 0 43 22" fill="none" xmlns="http://www.w3.org/2000/svg">
<path d="M37.8887 6.28027V11.6593H35.9681V7.88627H34.1179V11.6593H32.1973V6.28027H37.8887Z" fill="black"/>
<path fill-rule="evenodd" clip-rule="evenodd" d="M28.2532 11.8505C29.9725 11.8505 31.2485 10.7967 31.2485 9.19949C31.2485 7.65179 30.3069 6.64749 28.7328 6.64749C28.0068 6.64749 27.4062 6.90379 26.9552 7.34489C27.063 6.43189 27.8341 5.76639 28.6833 5.76639L30.3553 5.76309L31.1891 4.16699C31.1891 4.16699 29.3367 4.20879 28.4754 4.20879C26.5075 4.24289 25.1787 6.03149 25.1787 8.20399C25.1787 10.734 26.4756 11.8505 28.2532 11.8505ZM28.2642 8.06209C28.9022 8.06209 29.3444 8.48119 29.3444 9.19839C29.3444 9.84409 28.9506 10.3754 28.2631 10.3776C27.6053 10.3776 27.1631 9.88479 27.1631 9.20939C27.1631 8.49219 27.6053 8.06209 28.2631 8.06209H28.2642Z" fill="black"/>
<path d="M23.6162 9.85781C23.6162 9.85781 23.163 10.1185 22.4854 10.168C21.7066 10.1911 21.0125 9.69941 21.0125 8.82601C21.0125 7.97351 21.6252 7.48401 22.4656 7.48401C22.9815 7.48401 23.6635 7.84151 23.6635 7.84151C23.6635 7.84151 24.1618 6.92631 24.4203 6.46761C23.9473 6.10901 23.317 5.91211 22.5833 5.91211C20.7331 5.91211 19.2998 7.11881 19.2998 8.81501C19.2998 10.531 20.6462 11.7102 22.5833 11.675C23.1245 11.6552 23.8714 11.4649 24.3268 11.1723L23.6162 9.85781Z" fill="black"/>
<path d="M0 4.78809L2.6642 9.55109V12.4551L0.00218201 17.2071L0 4.78809Z" fill="#5B57A2"/>
<path d="M10.2295 7.8177L12.7265 6.2887L17.8349 6.2832L10.2295 10.9428V7.8177Z" fill="#D90751"/>
<path d="M10.2141 4.7608L10.2284 11.0649L7.55762 9.4248V0L10.2141 4.7608Z" fill="#FAB718"/>
<path d="M17.8338 6.2832L12.7243 6.2876L10.2141 4.7608L7.55762 0L17.8338 6.2832Z" fill="#ED6F26"/>
<path d="M10.2284 17.2348V14.1757L7.55762 12.5664L7.5598 22L10.2284 17.2348Z" fill="#63B22F"/>
<path d="M12.7193 15.7188L2.66309 9.55109L0 4.78809L17.8233 15.7111L12.7193 15.7188Z" fill="#1487C9"/>
<path d="M7.56055 21.9995L10.2292 17.2343L12.7195 15.7185L17.8236 15.7119L7.56055 21.9995Z" fill="#017F36"/>
<path d="M0.00292969 17.208L7.58195 12.566L5.03323 11.0029L2.66494 12.4549L0.00292969 17.208Z" fill="#984995"/>
<path d="M21.013 15.2794C20.9527 15.3545 20.8738 15.4125 20.7842 15.4477C20.5922 15.5228 20.3795 15.5255 20.1857 15.4554C20.0997 15.4246 20.0211 15.3759 19.9551 15.3126C19.8891 15.2493 19.8373 15.1727 19.803 15.088C19.7662 14.9952 19.7479 14.8962 19.7491 14.7965C19.7482 14.6101 19.8191 14.4305 19.9471 14.2949C20.0122 14.2289 20.0898 14.1767 20.1753 14.1412C20.2609 14.1057 20.3527 14.0876 20.4454 14.0881C20.5554 14.0881 20.6566 14.1013 20.749 14.1288C20.8377 14.1542 20.9186 14.2015 20.9844 14.2663L20.8722 14.4566C20.8178 14.4073 20.7537 14.3698 20.6841 14.3466C20.6176 14.3252 20.5482 14.3144 20.4784 14.3147C20.4155 14.3146 20.3532 14.3273 20.2953 14.3517C20.2373 14.3762 20.1849 14.4121 20.1411 14.4573C20.0973 14.5024 20.063 14.5559 20.0402 14.6145C20.0175 14.6732 20.0068 14.7358 20.0087 14.7987C20.0078 14.8642 20.0204 14.9292 20.0455 14.9898C20.0707 15.0503 20.1079 15.105 20.155 15.1507C20.199 15.1936 20.2518 15.2255 20.3123 15.2464C20.3728 15.2695 20.4355 15.2794 20.5037 15.2794C20.5808 15.2807 20.6572 15.2641 20.727 15.231C20.791 15.2 20.8485 15.157 20.8964 15.1045L21.013 15.2783V15.2794ZM21.3298 15.4741V14.1167H21.574V15.1287L22.3671 14.1167H22.6113V15.4741H22.3671V14.4621L21.575 15.4741H21.3298ZM24.2261 15.2783C24.1659 15.3538 24.087 15.4122 23.9973 15.4477C23.8054 15.5229 23.5926 15.5256 23.3989 15.4554C23.3128 15.4246 23.2342 15.3759 23.1682 15.3126C23.1022 15.2493 23.0504 15.1727 23.0161 15.088C22.9793 14.9953 22.9609 14.8962 22.9622 14.7965C22.9613 14.6101 23.0322 14.4305 23.1602 14.2949C23.223 14.2313 23.2973 14.1802 23.3791 14.1442C23.467 14.1052 23.5623 14.0857 23.6585 14.087C23.7685 14.087 23.8697 14.1013 23.9621 14.1288C24.0511 14.1541 24.1324 14.2014 24.1986 14.2663L24.0853 14.4566C24.0312 14.4073 23.9675 14.3699 23.8982 14.3466C23.8318 14.3252 23.7624 14.3144 23.6926 14.3147C23.6003 14.3141 23.5099 14.341 23.4329 14.3919C23.3559 14.4428 23.2958 14.5155 23.2603 14.6007C23.2337 14.6632 23.2205 14.7307 23.2218 14.7987C23.2209 14.8642 23.2335 14.9292 23.2586 14.9898C23.2838 15.0503 23.321 15.105 23.3681 15.1507C23.4121 15.1936 23.466 15.2255 23.5254 15.2464C23.5859 15.2684 23.6486 15.2794 23.7168 15.2794C23.7939 15.2805 23.8703 15.264 23.9401 15.231C24.0045 15.2001 24.0623 15.1572 24.1106 15.1045L24.2261 15.2783ZM24.3515 14.1167H25.6022V14.3576H25.0995V15.4741H24.8553V14.3576H24.3526V14.1156H24.3515V14.1167Z" fill="black"/>
<path fill-rule="evenodd" clip-rule="evenodd" d="M26.7415 15.4607C26.8299 15.4339 26.9114 15.3881 26.9802 15.3265L26.9065 15.1373C26.8539 15.181 26.794 15.2149 26.7294 15.2374C26.6512 15.266 26.5685 15.2802 26.4852 15.2792C26.365 15.284 26.247 15.2462 26.1519 15.1725C26.1078 15.1352 26.0721 15.0892 26.0469 15.0373C26.0217 14.9854 26.0076 14.9288 26.0056 14.8711H27.0616C27.09 14.7319 27.0774 14.5875 27.0253 14.4553C26.9934 14.3814 26.9469 14.3148 26.8887 14.2592C26.8305 14.2037 26.7618 14.1604 26.6865 14.1319C26.508 14.0683 26.3124 14.0722 26.1365 14.1429C26.054 14.1769 25.9795 14.2279 25.918 14.2925C25.8564 14.3571 25.809 14.4339 25.779 14.518C25.7459 14.6067 25.7291 14.7006 25.7295 14.7952C25.7295 14.9019 25.7482 14.9998 25.7823 15.0867C25.8158 15.1714 25.8671 15.2479 25.9325 15.3113C25.9979 15.3746 26.0761 15.4233 26.1618 15.4541C26.3493 15.5184 26.5526 15.5207 26.7415 15.4607ZM26.1255 14.4157C26.2093 14.3444 26.3171 14.3078 26.4269 14.3134C26.5457 14.3134 26.6414 14.3453 26.7107 14.4091C26.7461 14.4436 26.7742 14.4848 26.7935 14.5304C26.8128 14.5759 26.8228 14.6248 26.8229 14.6742H25.9902C26.0022 14.5746 26.0499 14.4828 26.1244 14.4157H26.1255Z" fill="black"/>
<path d="M27.4072 14.1162H27.6295L28.1574 14.7883L28.6568 14.1162H28.8724V15.4736H28.6294V14.4836L28.1541 15.1139H28.1442L27.6514 14.4836V15.4736H27.4072V14.1162Z" fill="black"/>
<path fill-rule="evenodd" clip-rule="evenodd" d="M29.5356 14.1209C29.4618 14.1404 29.3914 14.1708 29.3266 14.2111L29.3904 14.4036C29.4465 14.3761 29.5015 14.353 29.5576 14.3332C29.6259 14.3115 29.6972 14.3014 29.7688 14.3035C29.837 14.3035 29.8909 14.3145 29.9327 14.3365C29.972 14.3553 30.0045 14.3856 30.0262 14.4234C30.0482 14.4597 30.0625 14.5048 30.0702 14.5587C30.0779 14.6115 30.0812 14.6698 30.0812 14.7325C30.0311 14.6978 29.9741 14.6745 29.914 14.6643C29.7883 14.6354 29.6573 14.6392 29.5334 14.6753C29.4734 14.6908 29.4173 14.7185 29.3684 14.7567C29.3204 14.7947 29.282 14.8435 29.2562 14.8991C29.2304 14.9547 29.218 15.0155 29.2199 15.0768C29.2199 15.2099 29.2584 15.3133 29.3354 15.387C29.4124 15.4607 29.5147 15.497 29.6412 15.497C29.7365 15.5013 29.8313 15.4809 29.9162 15.4376C29.9797 15.403 30.0357 15.3562 30.0812 15.3001V15.4761H30.3089V14.6423C30.3089 14.4663 30.2704 14.3288 30.1912 14.232C30.1142 14.1363 29.9767 14.0868 29.7831 14.0868C29.6995 14.0866 29.6163 14.0988 29.5356 14.1209ZM29.9426 15.2209C29.8782 15.2621 29.8023 15.2821 29.7259 15.2781C29.6597 15.2822 29.5943 15.2619 29.5422 15.2209C29.5207 15.2011 29.5038 15.1769 29.4926 15.1499C29.4814 15.1229 29.4762 15.0938 29.4773 15.0647C29.4773 15.0273 29.485 14.9954 29.5026 14.9657C29.5193 14.9377 29.5418 14.9137 29.5686 14.8953C29.5972 14.8763 29.6288 14.8626 29.6621 14.8546C29.7331 14.8371 29.807 14.8349 29.8789 14.8481C29.9507 14.8614 30.019 14.8899 30.079 14.9316V15.1032C30.0392 15.148 29.9926 15.1876 29.9426 15.2209ZM32.4616 13.6391C32.5168 13.6118 32.5644 13.5714 32.6002 13.5214L32.4682 13.3311C32.4392 13.3731 32.3987 13.4059 32.3516 13.4257C32.3058 13.4436 32.2582 13.4568 32.2097 13.4653L32.1635 13.473L32.0337 13.495C31.9595 13.5087 31.8871 13.5313 31.8181 13.5621C31.7159 13.604 31.6253 13.67 31.5541 13.7546C31.4873 13.8358 31.4351 13.9281 31.4001 14.0274C31.3638 14.1297 31.3396 14.2364 31.3275 14.3431C31.3143 14.4531 31.3088 14.5587 31.3088 14.6588C31.3088 14.7886 31.3253 14.9063 31.3594 15.0108C31.3889 15.1086 31.4383 15.1992 31.5046 15.277C31.5672 15.3496 31.6454 15.4071 31.7334 15.4453C31.8286 15.486 31.9313 15.5062 32.0348 15.5047C32.1274 15.5069 32.2194 15.4904 32.3055 15.4563C32.3915 15.4221 32.4698 15.3709 32.5356 15.3058C32.6014 15.2407 32.6535 15.163 32.6886 15.0774C32.7237 14.9917 32.7411 14.8998 32.7399 14.8073C32.7412 14.713 32.7263 14.6193 32.6959 14.5301C32.6703 14.4511 32.6275 14.3788 32.5706 14.3183C32.5138 14.2579 32.4442 14.2107 32.367 14.1803C32.228 14.1251 32.075 14.1159 31.9303 14.1539C31.8237 14.1842 31.7265 14.241 31.6476 14.3189C31.6109 14.3566 31.5811 14.4006 31.5596 14.4487H31.5519C31.5574 14.386 31.5651 14.3222 31.5783 14.2562C31.5919 14.1919 31.6122 14.1292 31.6388 14.0692C31.6648 14.0105 31.6993 13.9561 31.7411 13.9075C31.7855 13.8583 31.8399 13.8193 31.9006 13.7931C31.9681 13.7607 32.0394 13.7374 32.1129 13.7238L32.1613 13.715C32.2086 13.7062 32.2548 13.6985 32.2988 13.6886C32.3548 13.6783 32.4094 13.6617 32.4616 13.6391ZM31.6036 14.9426C31.5797 14.8657 31.5682 14.7855 31.5695 14.705C31.5944 14.6103 31.6492 14.5262 31.7257 14.4652C31.8161 14.3945 31.9278 14.3565 32.0425 14.3574C32.1866 14.3574 32.2955 14.4014 32.3703 14.4894C32.4462 14.5774 32.4825 14.6874 32.4825 14.8194C32.4825 14.8854 32.4704 14.9448 32.4495 14.9998C32.4285 15.0538 32.3969 15.1031 32.3564 15.1447C32.316 15.1863 32.2676 15.2193 32.2141 15.2418C32.1265 15.2795 32.0291 15.2883 31.9362 15.2669C31.8432 15.2456 31.7595 15.1951 31.6971 15.123C31.6555 15.0689 31.6238 15.0078 31.6036 14.9426ZM34.6099 14.1165H34.3668V15.4739H34.6099V14.1165ZM33.0919 14.1165H33.3361V14.5235H33.5616C33.6672 14.5235 33.7541 14.5378 33.8234 14.5631C33.8857 14.5849 33.9424 14.6202 33.9895 14.6665C34.0305 14.7085 34.0607 14.7598 34.0775 14.8161C34.0949 14.8731 34.1038 14.9324 34.1039 14.9921C34.1043 15.0519 34.0946 15.1114 34.0753 15.1681C34.0559 15.2259 34.0236 15.2786 33.9807 15.3221C33.9314 15.3718 33.8711 15.4095 33.8047 15.4321C33.7175 15.4627 33.6255 15.4776 33.533 15.4761H33.0908L33.0919 14.1165ZM33.3361 14.7512V15.2484H33.5132C33.6353 15.2484 33.7222 15.2264 33.7706 15.1835C33.8201 15.1417 33.8454 15.0801 33.8454 14.9998C33.8454 14.9173 33.819 14.8546 33.7695 14.8128C33.7189 14.7688 33.6331 14.7468 33.5165 14.7468H33.3361V14.7512Z" fill="black"/>
<path d="M36.2229 15.2794C36.1626 15.3545 36.0837 15.4125 35.9941 15.4477C35.8022 15.5228 35.5895 15.5255 35.3957 15.4554C35.31 15.4238 35.2318 15.3749 35.1659 15.3117C35.1 15.2485 35.0479 15.1723 35.0129 15.088C34.961 14.9555 34.9469 14.8112 34.9722 14.6712C34.9974 14.5312 35.061 14.4009 35.1559 14.2949C35.219 14.2312 35.2937 14.1801 35.3759 14.1442C35.4638 14.1052 35.5591 14.0857 35.6553 14.087C35.7653 14.087 35.8665 14.1013 35.9589 14.1288C36.048 14.154 36.1293 14.2013 36.1954 14.2663L36.0821 14.4566C36.028 14.4074 35.9643 14.3699 35.8951 14.3466C35.8286 14.3252 35.7592 14.3144 35.6894 14.3147C35.6265 14.3148 35.5642 14.3275 35.5063 14.352C35.4484 14.3766 35.3959 14.4124 35.3521 14.4575C35.3082 14.5026 35.2738 14.556 35.2509 14.6146C35.228 14.6732 35.217 14.7358 35.2186 14.7987C35.2178 14.8642 35.2303 14.9292 35.2555 14.9898C35.2806 15.0503 35.3178 15.105 35.3649 15.1507C35.4089 15.1936 35.4617 15.2255 35.5222 15.2464C35.5827 15.2684 35.6454 15.2794 35.7136 15.2794C35.7908 15.2805 35.8671 15.2639 35.9369 15.231C36.0013 15.2001 36.0592 15.1572 36.1074 15.1045L36.2229 15.2783V15.2794ZM36.3472 14.1167H37.599V14.3576H37.0963V15.4741H36.8521V14.3576H36.3494V14.1156H36.3472V14.1167Z" fill="black"/>
<path fill-rule="evenodd" clip-rule="evenodd" d="M38.1084 14.1159H37.8643V16.0772H38.1084V15.4106C38.1579 15.4436 38.2162 15.4656 38.2844 15.481C38.3515 15.4964 38.4231 15.503 38.4957 15.503C38.5918 15.5054 38.6874 15.488 38.7766 15.4518C38.8657 15.4157 38.9465 15.3616 39.0138 15.2929C39.0775 15.2267 39.1269 15.148 39.159 15.0619C39.2265 14.8798 39.2288 14.68 39.1656 14.4965C39.1378 14.4162 39.0944 14.3422 39.0379 14.2787C38.9834 14.2172 38.9157 14.1687 38.84 14.1368C38.7566 14.101 38.6666 14.0834 38.576 14.0851C38.4829 14.0844 38.3908 14.1032 38.3054 14.1401C38.2297 14.1692 38.162 14.2155 38.1074 14.2754L38.1084 14.1159ZM38.2779 14.3678C38.3477 14.331 38.4255 14.3121 38.5045 14.3128C38.576 14.3128 38.6387 14.3238 38.6959 14.3458C38.7491 14.3684 38.7969 14.4022 38.836 14.4449C38.8751 14.4876 38.9046 14.5382 38.9225 14.5933C38.9648 14.7199 38.9632 14.8571 38.9181 14.9827C38.8868 15.0735 38.8266 15.1516 38.7468 15.205C38.6669 15.2585 38.5718 15.2843 38.4759 15.2786C38.3452 15.2836 38.2164 15.2466 38.1084 15.173V14.4998C38.1558 14.4452 38.2134 14.4004 38.2779 14.3678ZM41.0796 14.1148H40.8353V15.4733H41.0796V14.1159V14.1148ZM39.5593 14.1148H39.8036V14.5229H40.029C40.1357 14.5229 40.2216 14.5372 40.2909 14.5625C40.3535 14.5842 40.4107 14.6195 40.4581 14.6659C40.4992 14.7078 40.5294 14.7592 40.546 14.8155C40.5801 14.9305 40.5789 15.0531 40.5428 15.1675C40.5233 15.2253 40.491 15.278 40.4482 15.3215C40.3988 15.3713 40.3385 15.4089 40.2722 15.4315C40.1852 15.462 40.0936 15.4768 40.0016 15.4755H39.5583V14.1159L39.5593 14.1148ZM39.8058 14.7506V15.2478H39.9829C40.1039 15.2478 40.1919 15.2258 40.2403 15.1829C40.2898 15.1411 40.3139 15.0795 40.3139 14.9992C40.3139 14.9167 40.2887 14.854 40.2392 14.8122C40.1875 14.7682 40.1027 14.7462 39.9861 14.7462H39.8058V14.7506Z" fill="black"/>
<path d="M42.2489 14.7707L42.7703 15.4747H42.4711L42.0685 14.9247L41.6593 15.4747H41.3755L41.8936 14.7817L41.4063 14.1162H41.7055L42.0773 14.6288L42.4557 14.1162H42.7395L42.2489 14.7707ZM20.8319 17.1522H20.0839V18.2841H19.8408V16.9256H21.0761V18.2841H20.833V17.1511L20.8319 17.1522ZM22.4599 17.1665H21.9792L21.9627 17.3953C21.9524 17.5533 21.9285 17.7101 21.8912 17.8639C21.868 17.9618 21.8278 18.0549 21.7724 18.1389C21.733 18.1981 21.6761 18.2435 21.6096 18.2687C21.5461 18.2915 21.4791 18.3027 21.4116 18.3017L21.3929 18.0674C21.4241 18.068 21.455 18.0612 21.4831 18.0476C21.5252 18.0247 21.5599 17.9904 21.5832 17.9486C21.6226 17.8797 21.6522 17.8057 21.6712 17.7286C21.7015 17.6046 21.7192 17.4778 21.724 17.3502L21.7493 16.9278H22.7041V18.2852H22.4599V17.1665Z" fill="black"/>
<path fill-rule="evenodd" clip-rule="evenodd" d="M23.399 16.9295C23.3168 16.9485 23.2375 16.9789 23.1636 17.0197L23.2362 17.2122C23.2989 17.1847 23.3616 17.1616 23.4232 17.1418C23.5006 17.1204 23.5807 17.1108 23.6609 17.1132C23.7379 17.1132 23.7972 17.1242 23.8445 17.1451C23.8876 17.1629 23.9244 17.1932 23.9502 17.232C23.9755 17.2732 23.992 17.3193 23.9985 17.3673C24.0068 17.4248 24.0105 17.483 24.0095 17.5411C23.9524 17.5061 23.8888 17.4829 23.8225 17.4729C23.681 17.4434 23.5345 17.4472 23.3946 17.4839C23.3287 17.4994 23.2663 17.5274 23.2109 17.5664C23.1593 17.6022 23.1173 17.6501 23.0886 17.7059C23.0598 17.7617 23.0452 17.8237 23.0459 17.8865C23.0448 18.0185 23.0877 18.123 23.1746 18.1956C23.2604 18.2693 23.3748 18.3056 23.5167 18.3056C23.6084 18.3122 23.7004 18.2979 23.7858 18.2638C23.8712 18.2297 23.9477 18.1767 24.0095 18.1087V18.2847H24.2669V17.4509C24.2669 17.2749 24.223 17.1374 24.135 17.0406C24.0481 16.9449 23.894 16.8965 23.6762 16.8965C23.5827 16.8965 23.4892 16.9075 23.399 16.9295ZM23.8577 18.0295C23.7839 18.0717 23.6996 18.0919 23.6146 18.0878C23.5411 18.0926 23.4681 18.072 23.4078 18.0295C23.3845 18.011 23.3658 17.9874 23.3532 17.9605C23.3406 17.9336 23.3345 17.9041 23.3352 17.8744C23.3352 17.8359 23.344 17.804 23.3627 17.7754C23.3822 17.7467 23.4078 17.7227 23.4375 17.705C23.4702 17.6854 23.5059 17.6712 23.5431 17.6632C23.703 17.6271 23.8708 17.6547 24.0106 17.7402V17.9118C23.9648 17.9573 23.9134 17.9968 23.8577 18.0295Z" fill="black"/>
<path d="M24.374 16.9258H25.6247V17.1678H25.1209V18.2843H24.8778V17.1678H24.3751V16.9258H24.374Z" fill="black"/>
<path fill-rule="evenodd" clip-rule="evenodd" d="M26.763 18.2708C26.8515 18.2437 26.9329 18.1975 27.0017 18.1355L26.928 17.9463C26.8752 17.9906 26.8148 18.0249 26.7498 18.0475C26.6719 18.0757 26.5895 18.0895 26.5067 18.0882C26.3865 18.0931 26.2685 18.0553 26.1734 17.9815C26.1294 17.9445 26.0937 17.8986 26.0685 17.8469C26.0433 17.7952 26.0292 17.7387 26.0271 17.6812H27.0831C27.1112 17.5417 27.0985 17.397 27.0468 17.2643C27.0148 17.1903 26.9683 17.1235 26.9098 17.0679C26.8514 17.0124 26.7824 16.9692 26.7069 16.9409C26.5283 16.8774 26.3327 16.8813 26.1569 16.9519C26.0744 16.9861 26 17.0371 25.9385 17.1017C25.8769 17.1663 25.8296 17.2431 25.7994 17.327C25.7668 17.4158 25.7504 17.5097 25.751 17.6042C25.751 17.712 25.7686 17.8088 25.8027 17.8957C25.8363 17.9805 25.8875 18.0572 25.9529 18.1207C26.0183 18.1842 26.0965 18.2332 26.1822 18.2642C26.3698 18.3281 26.5731 18.3301 26.7619 18.2697L26.763 18.2708ZM26.1437 17.2236C26.2277 17.1521 26.336 17.1155 26.4462 17.1213C26.5672 17.1213 26.6607 17.1543 26.73 17.217C26.7656 17.2517 26.794 17.293 26.8134 17.3387C26.8329 17.3845 26.843 17.4336 26.8433 17.4832H26.0095C26.0212 17.3833 26.0689 17.291 26.1437 17.2236ZM27.2162 16.9266H27.5242L27.995 17.58L27.4923 18.284H27.1931L27.7211 17.58L27.2162 16.9266ZM28.0555 16.9266H28.2997V18.284H28.0555V16.9266ZM29.1709 18.284L28.6341 17.58L29.1357 16.9255H28.8332L28.3602 17.58L28.8684 18.284H29.1709ZM30.2852 18.2697C30.3736 18.2429 30.455 18.1971 30.5239 18.1355L30.4502 17.9463C30.3974 17.9905 30.337 18.0248 30.272 18.0475C30.1941 18.0757 30.1117 18.0895 30.0289 18.0882C29.9087 18.0931 29.7906 18.0553 29.6956 17.9815C29.6517 17.9444 29.6159 17.8985 29.5908 17.8468C29.5656 17.7951 29.5515 17.7387 29.5493 17.6812H30.6042C30.6332 17.5418 30.621 17.3969 30.569 17.2643C30.5369 17.1904 30.4903 17.1236 30.4319 17.0681C30.3735 17.0125 30.3045 16.9693 30.2291 16.9409C30.0505 16.8776 29.855 16.8815 29.6791 16.9519C29.5965 16.9858 29.5219 17.0367 29.4603 17.1014C29.3987 17.166 29.3514 17.2429 29.3216 17.327C29.2889 17.4158 29.2725 17.5097 29.2732 17.6042C29.2732 17.712 29.2908 17.8088 29.3249 17.8957C29.3584 17.9806 29.4095 18.0573 29.4749 18.1209C29.5404 18.1844 29.6186 18.2333 29.7044 18.2642C29.892 18.3282 30.0964 18.3301 30.2852 18.2697ZM29.6659 17.2236C29.75 17.1522 29.8582 17.1156 29.9684 17.1213C30.0872 17.1213 30.1829 17.1543 30.2522 17.217C30.2879 17.2516 30.3163 17.293 30.3358 17.3387C30.3553 17.3844 30.3654 17.4336 30.3655 17.4832H29.5317C29.5434 17.3833 29.5911 17.291 29.6659 17.2236ZM31.6085 16.4701C31.4655 16.4701 31.3863 16.3909 31.3742 16.2314H31.1443C31.1443 16.293 31.1553 16.348 31.1751 16.3997C31.1943 16.4497 31.2243 16.4948 31.2631 16.5317C31.3016 16.5691 31.3511 16.5977 31.4083 16.6197C31.4655 16.6439 31.5315 16.6538 31.6063 16.6538C31.7276 16.6563 31.8453 16.6131 31.9363 16.5328C31.9754 16.4953 32.0061 16.45 32.0265 16.3997C32.0487 16.3464 32.0599 16.2892 32.0595 16.2314H31.8307C31.8197 16.3909 31.7438 16.4701 31.6085 16.4701ZM30.9496 16.9255V18.284H31.1938L31.9858 17.272V18.284H32.23V16.9255H31.9869L31.1938 17.9375V16.9255H30.9496Z" fill="black"/>
</svg>
