<svg width="46" height="22" viewBox="0 0 46 22" fill="none" xmlns="http://www.w3.org/2000/svg">
<path d="M34.925 22H11C8.08262 22 5.28472 20.8411 3.22182 18.7782C1.15892 16.7153 0 13.9174 0 11C0 8.08262 1.15892 5.28473 3.22182 3.22183C5.28472 1.15893 8.08262 0 11 0L34.925 0C37.8424 0 40.6403 1.15893 42.7032 3.22183C44.7661 5.28473 45.925 8.08262 45.925 11C45.925 13.9174 44.7661 16.7153 42.7032 18.7782C40.6403 20.8411 37.8424 22 34.925 22Z" fill="#219F38"/>
<path d="M22.7461 12.0932V14.5594H21.3491V6.6416H23.9506C26.4179 6.6416 27.4662 7.5359 27.4662 9.3223C27.4662 11.1659 26.2375 12.0932 23.9506 12.0932H22.7461ZM22.7461 7.9429V10.7941H24.0518C25.3465 10.7941 26.0164 10.3629 26.0164 9.2893C26.0164 8.3169 25.4356 7.9429 24.0727 7.9429H22.7461ZM28.2043 9.2992C28.5728 9.0154 29.2416 8.791 30.203 8.791C31.8343 8.791 32.6384 9.3553 32.6384 10.826V14.5583H31.4097V13.5408C31.1413 14.1975 30.4604 14.6496 29.5672 14.6496C28.4397 14.6496 27.7687 14.005 27.7687 12.8962C27.7687 11.607 28.6949 11.244 30.0677 11.244H31.3305V10.9954C31.3305 10.1913 30.951 9.9427 30.203 9.9427C29.1756 9.9427 28.5849 10.3497 28.2043 10.9503V9.2992ZM31.3305 12.5684V12.1053H30.2261C29.4561 12.1053 29.0865 12.2516 29.0865 12.762C29.0865 13.191 29.3989 13.4627 29.9797 13.4627C30.8619 13.4616 31.2744 12.9534 31.3305 12.5684ZM33.2841 8.9054H34.7471L36.2761 12.784L37.5268 8.9054H38.9106L36.6776 15.16C36.1859 16.5174 35.6832 16.8221 34.9473 16.8221C34.6008 16.8221 34.2213 16.7209 34.0541 16.5724V15.3404C34.2326 15.5169 34.472 15.6181 34.7229 15.6231C35.1255 15.6231 35.4269 15.3525 35.6392 14.5825L33.2852 8.9054H33.2841ZM8.56934 9.3058V11.0416L10.843 12.4848L16.2847 8.4236C16.0932 7.99629 15.8526 7.5928 15.5675 7.2213L10.843 10.7479L8.56934 9.3058Z" fill="white"/>
<path d="M15.4324 10.7928C15.4346 10.8335 15.4346 10.8764 15.4346 10.9171C15.4346 13.4823 13.3743 15.5679 10.8432 15.5679C8.31214 15.5679 6.24965 13.4823 6.24965 10.9171C6.24965 8.35077 8.30992 6.26517 10.841 6.26517C11.8002 6.26517 12.6923 6.56437 13.4293 7.07917L14.5898 6.21017C13.533 5.34133 12.207 4.86692 10.8388 4.86817C7.54104 4.86817 4.86914 7.57747 4.86914 10.9182C4.86914 14.2589 7.54215 16.9682 10.84 16.9682C14.1378 16.9682 16.8096 14.2589 16.8096 10.9182C16.8096 10.5486 16.7766 10.1856 16.7139 9.83467L15.4324 10.7917V10.7928Z" fill="white"/>
</svg>
