<svg width="55" height="22" viewBox="0 0 55 22" fill="none" xmlns="http://www.w3.org/2000/svg">
<mask id="mask0_516_4375" style="mask-type:luminance" maskUnits="userSpaceOnUse" x="0" y="0" width="55" height="22">
<path d="M0 0H54.3125V22H0V0Z" fill="white"/>
</mask>
<g mask="url(#mask0_516_4375)">
<path d="M43.3301 -0.0263672H10.9824C4.90054 -0.0263672 -0.0351562 4.90933 -0.0351562 10.9912C-0.0351562 17.0731 4.90054 22.0088 10.9824 22.0088H43.3301C49.412 22.0088 54.3477 17.0731 54.3477 10.9912C54.3477 4.90933 49.412 -0.0263672 43.3301 -0.0263672Z" fill="#333333"/>
</g>
<mask id="mask1_516_4375" style="mask-type:luminance" maskUnits="userSpaceOnUse" x="0" y="0" width="55" height="22">
<path d="M0 0H54.3125V22H0V0Z" fill="white"/>
</mask>
<g mask="url(#mask1_516_4375)">
<path fill-rule="evenodd" clip-rule="evenodd" d="M19.2676 10.6383L19.5316 9.93433L18.8276 10.0223C18.7396 10.0223 18.2985 10.0223 17.9454 9.67033H18.0334C18.4734 9.67033 18.8265 9.40523 19.0036 9.05213L19.2676 8.43613C18.9156 8.43613 18.5625 8.34813 18.5625 8.34813C18.5625 8.34813 18.2985 8.34813 18.0345 7.99503C17.7991 7.75963 17.534 7.64303 17.2403 7.64303C17.0643 7.64303 16.9466 7.67163 16.8883 7.73103V7.55393C16.9763 6.93793 16.6243 6.49573 16.6243 6.49573L16.0941 5.79173L15.7421 6.58373C15.7421 6.58373 15.6541 6.75973 15.5661 6.84883C15.4781 6.58483 15.3901 6.40883 15.125 6.14373C14.685 5.70373 14.1559 5.61573 13.8908 5.61573H13.6268L13.0097 5.79173C13.0977 5.61573 13.1857 5.35063 13.2737 5.17463L13.6257 4.64553L12.7457 4.73353L12.4817 4.11643L11.9515 4.38043L11.4235 3.94043L10.9824 4.38043L10.3664 4.11643L10.1013 4.73243L9.21914 4.64443L9.57114 5.17463C9.74824 5.35063 9.83625 5.61463 9.83625 5.79063L9.22024 5.61463H8.95404C8.69004 5.61463 8.16094 5.70263 7.71984 6.14263C7.54384 6.40773 7.36784 6.58483 7.36784 6.84883C7.19184 6.76083 7.10384 6.58483 7.10384 6.58483L6.83874 5.79063L6.31074 6.49573C6.22274 6.58373 5.86964 7.02483 5.95764 7.55393C5.95764 7.61223 5.98624 7.67163 6.04564 7.72993C5.93683 7.67341 5.81625 7.64326 5.69365 7.64193C5.39885 7.64193 5.13484 7.75963 4.89944 7.99393C4.54745 8.34703 4.28345 8.34703 4.28345 8.34703C4.28345 8.34703 4.01835 8.43503 3.57725 8.43503L3.84125 9.05213C4.01725 9.40413 4.45835 9.66923 4.89944 9.66923H4.98744C4.54744 10.0212 4.10635 10.0212 4.10635 10.0212L3.40125 9.93323L3.57725 10.6383C3.66525 10.9914 4.01725 11.6085 4.72345 11.6085C4.63545 11.9605 4.54745 12.3125 4.10635 12.4896L3.57835 12.6656L3.93034 13.1947C4.10634 13.4587 4.45834 13.7238 4.98744 13.7238H5.33944C5.33944 13.8415 5.36914 13.9592 5.42744 14.0758C5.60454 14.6049 5.42744 14.87 5.42744 14.87L5.16344 15.486L5.78054 15.574C5.78054 15.574 5.95654 15.662 6.13254 15.662C6.25553 15.6609 6.3765 15.6307 6.48564 15.574H6.66165C6.72105 15.6917 6.80904 15.8094 6.92674 15.9271C7.27874 16.2791 7.80784 16.4551 8.51294 16.4551H8.95404L7.98494 16.8973L8.68894 17.2493C8.95404 17.4253 9.30714 17.5133 9.65914 17.6893L9.57114 17.9544L9.83514 18.0424C9.83514 18.0424 10.3642 18.3064 11.1573 18.3064H11.7744C12.5675 18.3064 13.0966 18.0424 13.0966 18.0424L13.3606 17.9544L13.2726 17.6904C13.6246 17.5144 13.8897 17.4264 14.1548 17.2504L14.9468 16.8973L13.8908 16.4562H14.4188C15.0656 16.4562 15.5936 16.2802 16.005 15.9282C16.0644 15.8094 16.1524 15.6917 16.269 15.5751C16.3284 15.5751 16.3878 15.6037 16.445 15.6631H16.7101C16.9741 15.6631 17.1501 15.5751 17.1501 15.5751L17.6803 15.4871L17.4163 14.87C17.4163 14.87 17.3283 14.606 17.5043 14.0758C17.5043 13.9592 17.5329 13.8415 17.5923 13.7238H17.9443C18.5614 13.7238 18.9145 13.2838 19.0025 13.1958L19.2665 12.6656L18.7385 12.4896C18.3854 12.3136 18.2083 11.9616 18.1203 11.6085C18.8254 11.6085 19.1785 10.9914 19.2665 10.6383H19.2676Z" fill="white"/>
</g>
<mask id="mask2_516_4375" style="mask-type:luminance" maskUnits="userSpaceOnUse" x="0" y="0" width="55" height="22">
<path d="M0 0H54.3125V22H0V0Z" fill="white"/>
</mask>
<g mask="url(#mask2_516_4375)">
<path fill-rule="evenodd" clip-rule="evenodd" d="M11.4234 5.96777C10.8943 5.96777 10.4532 6.14377 10.3652 6.31977L11.4234 6.75977L12.4805 6.31977C12.3925 6.14377 12.0405 5.96777 11.4234 5.96777Z" fill="white"/>
</g>
<mask id="mask3_516_4375" style="mask-type:luminance" maskUnits="userSpaceOnUse" x="0" y="0" width="55" height="22">
<path d="M0 0H54.3125V22H0V0Z" fill="white"/>
</mask>
<g mask="url(#mask3_516_4375)">
<path fill-rule="evenodd" clip-rule="evenodd" d="M11.4238 17.0724C11.0718 17.0724 10.6296 16.9844 10.3656 16.9844L10.1016 17.6906C10.2776 17.7786 10.8936 17.8666 11.4238 17.8666C11.9518 17.8666 12.5689 17.7786 12.746 17.6906L12.482 16.9855C12.2169 16.9855 11.7758 17.0724 11.4238 17.0724Z" fill="white"/>
</g>
<mask id="mask4_516_4375" style="mask-type:luminance" maskUnits="userSpaceOnUse" x="0" y="0" width="55" height="22">
<path d="M0 0H54.3125V22H0V0Z" fill="white"/>
</mask>
<g mask="url(#mask4_516_4375)">
<path fill-rule="evenodd" clip-rule="evenodd" d="M13.4506 16.3682C13.2746 16.4562 12.8335 16.6322 12.5684 16.7202L12.8324 17.3373C13.1855 17.2196 13.5089 17.103 13.8026 16.9853L13.3626 16.8093L13.4506 16.3682Z" fill="white"/>
</g>
<mask id="mask5_516_4375" style="mask-type:luminance" maskUnits="userSpaceOnUse" x="0" y="0" width="55" height="22">
<path d="M0 0H54.3125V22H0V0Z" fill="white"/>
</mask>
<g mask="url(#mask5_516_4375)">
<path fill-rule="evenodd" clip-rule="evenodd" d="M9.39594 16.3682L9.57194 16.8082L9.04395 16.9842C9.33655 17.103 9.68965 17.2196 10.0999 17.3373L10.2759 16.7213C10.0119 16.6333 9.57195 16.4562 9.39594 16.3682Z" fill="white"/>
</g>
<mask id="mask6_516_4375" style="mask-type:luminance" maskUnits="userSpaceOnUse" x="0" y="0" width="55" height="22">
<path d="M0 0H54.3125V22H0V0Z" fill="white"/>
</mask>
<g mask="url(#mask6_516_4375)">
<path fill-rule="evenodd" clip-rule="evenodd" d="M11.4237 5.26272C11.8637 5.26272 12.3037 5.35072 12.5688 5.52672L12.7448 5.17472H12.5688L12.4808 5.26272L12.3928 5.08672L12.2168 4.73362L11.9528 4.90962L11.8648 4.99762L11.7768 4.90962L11.4237 4.55762L11.1597 4.90962L11.0717 4.99762L10.8946 4.90962L10.6306 4.73362L10.4546 5.08562V5.26162L10.2775 5.17362H10.1895C10.2478 5.29132 10.2775 5.40902 10.2775 5.52672C10.6295 5.35072 10.9826 5.26272 11.4237 5.26272Z" fill="white"/>
</g>
<mask id="mask7_516_4375" style="mask-type:luminance" maskUnits="userSpaceOnUse" x="0" y="0" width="55" height="22">
<path d="M0 0H54.3125V22H0V0Z" fill="white"/>
</mask>
<g mask="url(#mask7_516_4375)">
<path fill-rule="evenodd" clip-rule="evenodd" d="M17.8578 9.1411C17.9161 9.1994 17.9755 9.2291 18.0338 9.2291C18.2098 9.2291 18.4738 9.0531 18.5629 8.876C18.5629 8.876 18.1229 8.876 17.6818 8.348C17.5058 8.1709 17.3298 8.1709 17.2418 8.1709C16.9767 8.1709 16.8887 8.2589 16.8887 8.2589C17.4167 8.6109 17.5047 9.052 17.8578 9.14V9.1411Z" fill="white"/>
</g>
<mask id="mask8_516_4375" style="mask-type:luminance" maskUnits="userSpaceOnUse" x="0" y="0" width="55" height="22">
<path d="M0 0H54.3125V22H0V0Z" fill="white"/>
</mask>
<g mask="url(#mask8_516_4375)">
<path fill-rule="evenodd" clip-rule="evenodd" d="M4.90019 9.2291C4.95959 9.2291 5.01789 9.1994 5.07619 9.1411C5.34019 9.0531 5.51729 8.612 6.04639 8.2589C6.04639 8.2589 5.87039 8.1709 5.69439 8.1709C5.51729 8.1709 5.34129 8.1709 5.25329 8.3469C4.72419 8.8749 4.37109 8.8749 4.37109 8.8749C4.37109 9.052 4.63509 9.228 4.90019 9.228V9.2291Z" fill="white"/>
</g>
<mask id="mask9_516_4375" style="mask-type:luminance" maskUnits="userSpaceOnUse" x="0" y="0" width="55" height="22">
<path d="M0 0H54.3125V22H0V0Z" fill="white"/>
</mask>
<g mask="url(#mask9_516_4375)">
<path fill-rule="evenodd" clip-rule="evenodd" d="M17.5931 10.9913C17.5931 10.9913 17.5051 12.4895 18.5622 12.9306C18.5622 12.9306 18.3862 13.2826 17.9462 13.2826C17.328 13.2826 17.152 12.9306 17.152 12.9306C17.152 12.9306 17.152 13.3706 16.976 13.8997C16.8 14.6048 16.976 15.1339 16.976 15.1339H16.536C16.0938 15.0459 16.0058 14.6059 16.0058 14.6059C16.0058 14.6059 16.0058 16.015 14.4196 16.015C14.4196 16.015 14.5956 15.839 14.5956 15.223C14.6836 14.2528 15.3887 14.0757 15.3887 14.0757C15.3887 14.0757 15.0367 14.0757 14.8607 13.8997C14.5967 13.6357 14.5967 13.3717 14.5967 13.3717C15.1247 13.3717 15.5647 13.1957 15.8298 12.8426C16.0938 12.4906 16.1818 12.1375 16.1818 12.1375C16.1818 12.1375 15.9178 12.4015 15.3018 12.4015H15.1247C14.8607 12.4015 14.6847 12.2255 14.6847 12.2255C15.3007 11.7855 15.6527 11.0793 15.3007 10.1102C15.0367 9.22795 14.2436 8.61195 13.5385 8.17085C13.3031 7.99485 13.1865 7.84745 13.1865 7.73085C13.1865 7.37775 13.6265 7.28975 13.8025 7.11265C14.0665 6.84865 13.8905 6.40865 13.7145 6.14355H13.8905C14.1545 6.14355 14.5076 6.14355 14.7716 6.49555C15.2127 6.93665 15.0356 7.37775 15.0356 7.37775H15.3887C15.9178 7.37775 16.1829 6.76065 16.1829 6.76065C16.1829 6.76065 16.7989 7.55375 15.9189 8.17085C15.7418 8.22915 15.6824 8.31715 15.7418 8.43485V8.52285H15.8298C16.4458 8.69885 16.7989 9.13995 17.24 9.66905C17.4285 9.91119 17.6688 10.1081 17.9433 10.2453C18.2177 10.3826 18.5194 10.4566 18.8262 10.4622C18.8262 10.4622 18.6502 11.1673 18.0342 11.1673C17.7691 11.1673 17.5931 10.9913 17.5931 10.9913ZM16.888 10.9913C16.712 9.66905 15.7418 8.78795 14.6836 8.17085C14.6053 8.09884 14.5162 8.03947 14.4196 7.99485C14.7716 8.08285 15.3007 8.08285 15.6538 7.73085C15.6538 7.73085 15.0367 8.17085 13.8025 7.81885C14.1545 7.99485 14.8607 8.34685 15.4778 8.87485C16.976 10.1982 15.9178 11.5204 15.9178 11.5204C16.4458 10.9913 16.4458 10.3742 16.2698 9.84505C16.6229 10.2862 16.7989 10.9033 16.7109 11.6084C16.7109 12.6655 16.0949 13.6357 15.5658 14.3408C15.2138 14.6928 15.2138 15.1339 15.2138 15.1339C15.2138 15.1339 15.3018 14.6939 15.6538 14.3408C16.2698 13.5477 16.7989 12.7546 16.888 11.6084C16.976 11.8724 17.24 12.4015 17.68 12.6655C17.68 12.6655 17.152 12.3135 16.888 10.9913Z" fill="white"/>
</g>
<mask id="mask10_516_4375" style="mask-type:luminance" maskUnits="userSpaceOnUse" x="0" y="0" width="55" height="22">
<path d="M0 0H54.3125V22H0V0Z" fill="white"/>
</mask>
<g mask="url(#mask10_516_4375)">
<path fill-rule="evenodd" clip-rule="evenodd" d="M8.33802 15.2219C8.33802 15.839 8.51402 16.015 8.51402 16.015H8.42602C6.83982 16.015 6.92782 14.6048 6.92782 14.6048C6.92782 14.6048 6.75182 15.0448 6.31182 15.1339H5.87072C5.87072 15.1339 6.13472 14.6059 5.87072 13.8997C5.69472 13.3717 5.78272 12.9306 5.78272 12.9306C5.78272 12.9306 5.51762 13.2826 4.98852 13.2826C4.54852 13.2826 4.37252 12.9306 4.37252 12.9306C5.42852 12.4906 5.34052 10.9913 5.34052 10.9913C5.34052 10.9913 5.16452 11.1673 4.90052 11.1673C4.28452 11.1673 4.10742 10.4633 4.10742 10.4633C4.19542 10.4633 5.07652 10.4633 5.69362 9.66905C6.13362 9.14105 6.39872 8.69995 7.10382 8.52285H7.19182V8.43485C7.19182 8.31715 7.10382 8.22915 6.92782 8.17085C6.04672 7.55375 6.66382 6.76065 6.66382 6.76065C6.66382 6.76065 6.92782 7.37665 7.54492 7.37665H7.89692C7.89692 7.37665 7.72092 6.93665 8.07292 6.49665C8.42602 6.14355 8.77912 6.14355 8.95512 6.14355H9.13112C8.95512 6.40755 8.77912 6.84865 9.04312 7.11265C9.21912 7.28865 9.74822 7.37665 9.74822 7.72975C9.74822 7.84745 9.63052 7.99375 9.39622 8.16975C8.60312 8.61195 7.89692 9.22795 7.54492 10.1102C7.19292 11.0793 7.63292 11.7844 8.25002 12.2255C8.25002 12.2255 8.07402 12.4015 7.81002 12.4015H7.63402C7.01582 12.4015 6.75182 12.1375 6.75182 12.1375C6.75182 12.1375 6.75182 12.4895 7.10382 12.8415C7.36782 13.1946 7.72092 13.3706 8.25002 13.3706C8.25002 13.3706 8.33802 13.6346 8.07402 13.8997C7.89802 14.0757 7.54492 14.0757 7.54492 14.0757C7.54492 14.0757 8.25002 14.2517 8.33802 15.2219ZM7.72202 15.1339C7.72202 15.1339 7.63402 14.6939 7.36892 14.3408C6.75182 13.6357 6.22272 12.6655 6.13472 11.6084C6.13472 10.9033 6.31072 10.2862 6.57472 9.84505C6.39872 10.3742 6.48672 10.9913 7.01582 11.5204C7.01582 11.5204 5.87072 10.1982 7.45582 8.87595C8.07402 8.34795 8.77912 7.99485 9.13112 7.81775C7.80892 8.16975 7.19182 7.72975 7.19182 7.72975C7.63292 8.08175 8.16202 8.08175 8.42602 8.08175C8.33287 8.09248 8.24297 8.12244 8.16202 8.16975C7.10382 8.78795 6.13472 9.66905 6.04672 10.9913C5.78272 12.3135 5.25362 12.6655 5.25362 12.6655C5.69362 12.4015 5.95762 11.8735 5.95762 11.6084C6.04562 12.7546 6.66382 13.5477 7.28092 14.3408C7.63292 14.6928 7.72202 15.1339 7.72202 15.1339Z" fill="white"/>
</g>
<mask id="mask11_516_4375" style="mask-type:luminance" maskUnits="userSpaceOnUse" x="0" y="0" width="55" height="22">
<path d="M0 0H54.3125V22H0V0Z" fill="white"/>
</mask>
<g mask="url(#mask11_516_4375)">
<path fill-rule="evenodd" clip-rule="evenodd" d="M10.2779 8.96366C10.1539 8.8424 10.0032 8.75197 9.83789 8.69966H9.92589L10.1899 8.52366L10.5419 8.34766L11.4241 8.78766L12.3041 8.34766L12.6572 8.52366L13.0092 8.69966H13.0983C12.9223 8.75796 12.7749 8.84596 12.6583 8.96366V9.05166C12.5989 9.05166 12.5703 9.08136 12.5703 9.13966C12.5109 9.13966 12.4823 9.16936 12.4823 9.22766C12.4229 9.28706 12.3932 9.34536 12.3932 9.40366C12.1292 9.75676 11.7772 10.0219 11.4241 10.0219C11.1601 10.0219 10.719 9.75786 10.5419 9.40476C10.4836 9.34536 10.4539 9.28706 10.4539 9.22876L10.3659 9.14076L10.2779 9.05276V8.96366ZM11.071 9.22766C11.159 9.13966 11.335 9.13966 11.335 9.13966V9.49166C11.335 9.49166 11.335 9.66876 11.247 9.75676H11.6881C11.6001 9.66876 11.6001 9.49276 11.6001 9.49276V9.14076C11.6001 9.14076 11.7761 9.14076 11.8641 9.22876V8.96366H11.0721L11.071 9.22766Z" fill="white"/>
</g>
<mask id="mask12_516_4375" style="mask-type:luminance" maskUnits="userSpaceOnUse" x="0" y="0" width="55" height="22">
<path d="M0 0H54.3125V22H0V0Z" fill="white"/>
</mask>
<g mask="url(#mask12_516_4375)">
<path fill-rule="evenodd" clip-rule="evenodd" d="M10.6985 8.08316L10.3652 6.58496L11.5873 6.93696V8.43516L10.6985 8.08316ZM10.8096 7.11296C10.8096 7.11296 10.8096 7.28896 11.0318 7.46496C11.254 7.55406 11.3651 7.55406 11.3651 7.55406V7.37806L10.8096 7.11296Z" fill="white"/>
</g>
<mask id="mask13_516_4375" style="mask-type:luminance" maskUnits="userSpaceOnUse" x="0" y="0" width="55" height="22">
<path d="M0 0H54.3125V22H0V0Z" fill="white"/>
</mask>
<g mask="url(#mask13_516_4375)">
<path fill-rule="evenodd" clip-rule="evenodd" d="M11.5117 8.43516V6.93696L12.7327 6.58496L12.4005 8.08316L11.5117 8.43516ZM11.845 7.55406L12.0672 7.37806C12.4005 7.29006 12.4005 7.11406 12.4005 7.11406L11.845 7.29006V7.55406Z" fill="white"/>
</g>
<mask id="mask14_516_4375" style="mask-type:luminance" maskUnits="userSpaceOnUse" x="0" y="0" width="55" height="22">
<path d="M0 0H54.3125V22H0V0Z" fill="white"/>
</mask>
<g mask="url(#mask14_516_4375)">
<path fill-rule="evenodd" clip-rule="evenodd" d="M10.013 12.0496H10.277V11.6965L10.189 11.6085C10.1296 11.5491 10.0713 11.5205 10.013 11.5205C9.92502 11.5205 9.83702 11.5205 9.74902 11.6085C9.74902 11.7845 9.92502 11.9605 10.013 12.0485V12.0496Z" fill="white"/>
</g>
<mask id="mask15_516_4375" style="mask-type:luminance" maskUnits="userSpaceOnUse" x="0" y="0" width="55" height="22">
<path d="M0 0H54.3125V22H0V0Z" fill="white"/>
</mask>
<g mask="url(#mask15_516_4375)">
<path fill-rule="evenodd" clip-rule="evenodd" d="M12.1285 11.167C11.9525 11.431 11.5994 11.7841 11.5994 11.7841H10.4532V12.0481L11.7754 12.3121C11.8634 12.2241 12.2154 11.9601 12.3925 11.7841C12.3045 11.6961 12.3045 11.5201 12.3045 11.3441L12.1285 11.167Z" fill="white"/>
</g>
<mask id="mask16_516_4375" style="mask-type:luminance" maskUnits="userSpaceOnUse" x="0" y="0" width="55" height="22">
<path d="M0 0H54.3125V22H0V0Z" fill="white"/>
</mask>
<g mask="url(#mask16_516_4375)">
<path fill-rule="evenodd" clip-rule="evenodd" d="M12.3053 9.84473C12.0413 10.1087 11.7773 10.1967 11.6002 10.1967H11.1602C11.1602 10.2858 11.1602 10.3738 11.2482 10.4618C11.3044 10.5767 11.3973 10.6696 11.5122 10.7258V10.8138C11.5122 10.8138 11.6002 11.1669 11.9522 11.2549C12.0116 11.1966 12.0402 11.1383 12.0402 11.0789C11.9522 10.9029 12.0402 10.7269 12.1282 10.6389C12.1282 10.6389 12.0402 11.0789 12.3933 11.2549H12.4813V11.3429C12.4813 11.3429 12.3053 11.784 12.7453 11.96H12.8333V12.048C12.8333 12.048 12.6573 12.4011 13.0093 12.6651H13.8035V11.9611C13.5395 11.9611 13.4515 11.696 13.3635 11.52C13.2458 11.52 13.1567 11.4606 13.0995 11.344C12.9224 11.08 13.0104 10.9029 13.0104 10.9029C13.0104 10.9029 13.0104 11.0789 13.1864 11.2549C13.2458 11.3143 13.3338 11.3429 13.4504 11.3429L13.5384 11.4309C13.5384 11.4309 13.5384 11.784 13.8035 11.784V10.4618C13.8618 10.2275 13.9212 10.0218 13.9795 9.84583H12.3053V9.84473Z" fill="white"/>
</g>
<mask id="mask17_516_4375" style="mask-type:luminance" maskUnits="userSpaceOnUse" x="0" y="0" width="55" height="22">
<path d="M0 0H54.3125V22H0V0Z" fill="white"/>
</mask>
<g mask="url(#mask17_516_4375)">
<path fill-rule="evenodd" clip-rule="evenodd" d="M10.1017 10.4621L10.0137 11.3443H10.1017L10.3657 10.5501L10.2777 10.2861L10.1017 10.4621Z" fill="white"/>
</g>
<mask id="mask18_516_4375" style="mask-type:luminance" maskUnits="userSpaceOnUse" x="0" y="0" width="55" height="22">
<path d="M0 0H54.3125V22H0V0Z" fill="white"/>
</mask>
<g mask="url(#mask18_516_4375)">
<path fill-rule="evenodd" clip-rule="evenodd" d="M12.657 14.4284C12.657 14.6044 12.657 14.6924 12.745 14.8684C12.745 14.9564 12.833 15.0444 12.921 15.0444V15.2215L12.745 15.7495H12.569L12.657 15.2215C12.745 15.1335 12.305 15.0455 12.129 14.7815C12.041 14.8695 11.777 14.8695 11.5999 14.8695H11.0719C11.0125 14.8695 10.9828 14.8981 10.9828 14.9575H10.8948L10.3668 14.8695L10.1897 15.0455V15.1335L10.2777 15.2215C10.2777 15.3095 10.1017 15.3975 10.1017 15.3975L10.0137 15.3095V14.9575L10.2777 14.6055L10.7177 14.6935V14.5175C10.5417 14.2524 10.7177 13.9873 10.7177 13.8113C10.7177 13.8707 10.6891 13.8993 10.6297 13.8993H10.4537L10.3657 13.9873L10.2777 13.8993C10.2194 13.841 10.2194 13.8113 10.2777 13.8113L10.4537 13.5473L10.1897 13.1953L10.6297 13.3713L10.7177 13.2833V13.3713C10.8937 13.3713 11.1588 13.5473 11.2468 13.9873V14.0753C11.2468 14.0753 11.3348 14.1633 11.4228 14.1633L11.9519 14.2513C12.0399 14.2513 12.1279 14.1633 12.3039 14.1633C12.3633 14.1633 12.4513 14.193 12.569 14.2513L12.657 14.1633C12.921 14.1633 13.009 14.4284 13.1861 14.6044L13.3621 14.9564C13.3621 15.0158 13.3038 15.0444 13.1861 15.0444C12.9221 14.9564 12.8341 14.4284 12.7461 14.4284H12.6581H12.657ZM10.6297 13.6353C10.6297 13.5759 10.6011 13.5473 10.5417 13.5473V13.6353H10.6297Z" fill="white"/>
</g>
<mask id="mask19_516_4375" style="mask-type:luminance" maskUnits="userSpaceOnUse" x="0" y="0" width="55" height="22">
<path d="M0 0H54.3125V22H0V0Z" fill="white"/>
</mask>
<g mask="url(#mask19_516_4375)">
<path fill-rule="evenodd" clip-rule="evenodd" d="M9.83592 14.87L10.0119 14.782V14.694C9.95362 14.6346 9.95362 14.606 10.0119 14.606L10.1879 14.4289L10.541 14.5169C10.541 14.5169 10.453 14.4289 10.453 14.3409L10.189 14.2529L9.83702 14.4289C9.74902 14.5169 9.74902 14.6929 9.74902 14.7809L9.83702 14.8689L9.83592 14.87Z" fill="white"/>
</g>
<mask id="mask20_516_4375" style="mask-type:luminance" maskUnits="userSpaceOnUse" x="0" y="0" width="55" height="22">
<path d="M0 0H54.3125V22H0V0Z" fill="white"/>
</mask>
<g mask="url(#mask20_516_4375)">
<path fill-rule="evenodd" clip-rule="evenodd" d="M12.2166 15.751H12.3926L12.5686 15.223C12.4806 15.223 12.3046 15.1339 12.2166 15.0459C12.2166 15.1339 12.3926 15.2219 12.3926 15.3099L12.2166 15.7499V15.751Z" fill="white"/>
</g>
<mask id="mask21_516_4375" style="mask-type:luminance" maskUnits="userSpaceOnUse" x="0" y="0" width="55" height="22">
<path d="M0 0H54.3125V22H0V0Z" fill="white"/>
</mask>
<g mask="url(#mask21_516_4375)">
<path fill-rule="evenodd" clip-rule="evenodd" d="M13.8027 12.7549H9.04297V14.6051C9.04297 15.3102 9.57097 15.7513 10.3652 15.7513C10.9823 15.7513 11.1583 15.8393 11.4234 16.0153C11.5994 15.8393 11.7754 15.8393 12.0394 15.7513L12.2154 15.3113L11.9514 14.9582C11.8634 15.0462 11.7754 15.0462 11.5994 15.0462C11.4817 15.0462 11.3354 15.0165 11.1594 14.9582H11.0714V15.0462L10.9823 15.1342H10.8943L10.4543 15.0462L10.3663 15.1342L10.4543 15.2222H10.3663C10.3663 15.3982 10.2772 15.4862 10.1892 15.4862L10.1012 15.6622L10.0132 15.4862L9.92517 15.3982C9.86865 15.2894 9.8385 15.1688 9.83717 15.0462H9.74917L9.66117 14.9582V14.8702C9.57207 14.6942 9.57207 14.5182 9.74917 14.3411L10.1892 14.1651H10.5412V13.9891L10.2772 14.0771L10.1012 13.9891C10.1012 13.9891 10.0132 13.9011 10.1012 13.8131L10.2772 13.548L9.83717 12.9309L10.5412 13.1949H10.6292L10.7172 13.0189L10.8052 13.1069C10.8646 13.1652 10.8932 13.2246 10.8932 13.2829C11.0703 13.3709 11.4234 13.5469 11.5114 13.988H11.3354L11.4234 14.076H11.9514C12.074 14.0746 12.1946 14.0445 12.3034 13.988C12.3628 13.988 12.4508 14.0177 12.5685 14.076H12.6565C13.0085 14.076 13.0976 14.252 13.1856 14.4291L13.2736 14.5171C13.3616 14.6931 13.5376 14.8691 13.5376 14.8691V15.0451C13.4496 15.1342 13.3616 15.2222 13.1856 15.2222L13.0976 15.1342H13.0096V15.2222L12.9216 15.7502C13.4496 15.5742 13.8027 15.1342 13.8027 14.6062V12.7549Z" fill="#FFDD2D"/>
</g>
<mask id="mask22_516_4375" style="mask-type:luminance" maskUnits="userSpaceOnUse" x="0" y="0" width="55" height="22">
<path d="M0 0H54.3125V22H0V0Z" fill="white"/>
</mask>
<g mask="url(#mask22_516_4375)">
<path fill-rule="evenodd" clip-rule="evenodd" d="M9.04308 12.6651H12.7457C12.5697 12.4011 12.5697 12.2251 12.6577 12.0491C12.5983 11.9897 12.54 11.9611 12.4817 11.9611C12.3926 12.0491 11.9515 12.4011 11.7755 12.4891L10.2773 12.2251H10.1013C10.1013 12.2834 10.0716 12.3131 10.0133 12.3131C9.95388 12.3131 9.89558 12.2834 9.83728 12.2251V12.1371C9.74928 11.9611 9.57218 11.7851 9.66128 11.52V11.432C9.60188 11.432 9.57218 11.4023 9.57218 11.344C9.57218 11.2846 9.60188 11.256 9.66018 11.256L9.92418 11.344V10.3727L10.2762 10.0207L10.5413 10.5487L10.2773 11.3429L10.5413 11.4309V11.5189H10.2773L10.3653 11.6069H11.5115C11.5995 11.6069 11.6875 11.4309 11.7755 11.3429C11.5115 11.2549 11.4235 10.9898 11.4235 10.8138C11.2475 10.7544 11.1298 10.6664 11.0715 10.5498C10.9824 10.3738 11.0715 10.2847 11.0715 10.1967C10.8882 10.1333 10.7322 10.0091 10.6293 9.84473H8.95508C9.01338 10.0207 9.04308 10.2264 9.04308 10.4607V12.664V12.6651Z" fill="#FFDD2D"/>
</g>
<mask id="mask23_516_4375" style="mask-type:luminance" maskUnits="userSpaceOnUse" x="0" y="0" width="55" height="22">
<path d="M0 0H54.3125V22H0V0Z" fill="white"/>
</mask>
<g mask="url(#mask23_516_4375)">
<path fill-rule="evenodd" clip-rule="evenodd" d="M10.541 13.5479V13.6359H10.629C10.629 13.5765 10.6004 13.5479 10.541 13.5479Z" fill="black"/>
</g>
<mask id="mask24_516_4375" style="mask-type:luminance" maskUnits="userSpaceOnUse" x="0" y="0" width="55" height="22">
<path d="M0 0H54.3125V22H0V0Z" fill="white"/>
</mask>
<g mask="url(#mask24_516_4375)">
<path fill-rule="evenodd" clip-rule="evenodd" d="M14.1561 16.8955C13.8041 17.0715 13.2739 17.3366 12.8339 17.5126L12.9219 17.7766C12.9219 17.7766 12.3928 18.0417 11.4237 18.0417C10.4535 18.0417 9.9244 17.7777 9.9244 17.7777L10.0124 17.5137C9.5724 17.3377 9.1324 17.0726 8.7793 16.8966L9.0433 16.8086L9.3073 16.7206L9.2193 16.4555V16.1035C9.2193 16.1035 9.6604 16.3675 10.3655 16.5435C10.5415 16.6315 10.7175 16.6315 10.7175 16.6315V16.8955C10.7175 16.8955 11.0706 16.9835 11.4237 16.9835C11.8637 16.9835 12.2157 16.8955 12.2157 16.8955V16.6315C12.2157 16.6315 12.3037 16.6315 12.5688 16.5435C12.9623 16.4285 13.3456 16.2813 13.715 16.1035L13.627 16.4555L13.539 16.7195L13.803 16.8075L14.155 16.8955H14.1561ZM12.8339 17.6897L12.5699 16.8966C12.3048 16.9846 11.8637 17.0726 11.5117 17.0726C11.1597 17.0726 10.7186 16.9846 10.4535 16.8966L10.1895 17.6886C10.3655 17.6886 10.9826 17.8657 11.5117 17.8657C12.0397 17.8657 12.6568 17.6897 12.8339 17.6897ZM10.1015 17.3377L10.3655 16.7195C10.1015 16.6315 9.6615 16.4555 9.4844 16.3675L9.5724 16.8075L9.1324 16.8955C9.425 17.0715 9.7484 17.2189 10.1004 17.3366L10.1015 17.3377ZM13.891 16.8966L13.363 16.8086L13.539 16.3675C13.363 16.4555 12.9219 16.6315 12.6568 16.7195L12.8328 17.3366C13.2453 17.2189 13.5973 17.0726 13.891 16.8966Z" fill="black"/>
</g>
<mask id="mask25_516_4375" style="mask-type:luminance" maskUnits="userSpaceOnUse" x="0" y="0" width="55" height="22">
<path d="M0 0H54.3125V22H0V0Z" fill="white"/>
</mask>
<g mask="url(#mask25_516_4375)">
<path fill-rule="evenodd" clip-rule="evenodd" d="M10.1899 5.79007C10.1899 5.79007 10.1019 5.35007 9.83789 4.99807H10.2779L10.5419 4.55697L10.983 4.73297L11.423 4.29297L11.8641 4.73297L12.3041 4.55697L12.5692 4.99697H13.0092C12.7452 5.34897 12.7452 5.79007 12.7452 5.79007C12.4812 5.61407 12.0412 5.43807 11.4241 5.43807C10.895 5.43807 10.4539 5.61407 10.1899 5.79007ZM10.1899 5.17407C10.2482 5.29067 10.2779 5.40837 10.2779 5.52607C10.6299 5.35007 11.071 5.26207 11.4241 5.26207C11.8641 5.26207 12.3041 5.35007 12.5692 5.52607L12.7452 5.17407H12.5692L12.4812 5.26207L12.3932 5.08607L12.2172 4.73297L11.9532 4.90897L11.8652 4.99697L11.7772 4.90897L11.4241 4.55697L11.0721 4.99697L10.895 4.90897L10.631 4.73297L10.455 5.08497V5.26097L10.2779 5.17297L10.1899 5.17407Z" fill="black"/>
</g>
<mask id="mask26_516_4375" style="mask-type:luminance" maskUnits="userSpaceOnUse" x="0" y="0" width="55" height="22">
<path d="M0 0H54.3125V22H0V0Z" fill="white"/>
</mask>
<g mask="url(#mask26_516_4375)">
<path fill-rule="evenodd" clip-rule="evenodd" d="M18.0336 11.3447H17.7696C17.8576 11.6967 17.9456 12.4898 18.6507 12.7549L18.8267 12.8429L18.7387 13.0189C18.7387 13.0189 18.4747 13.4589 17.9467 13.4589C17.6519 13.4589 17.4462 13.4006 17.3285 13.2829C17.3285 13.4589 17.2702 13.6943 17.1525 13.988C16.9765 14.6051 17.1525 15.0462 17.1525 15.0462L17.2405 15.2222L17.0645 15.3102H16.5365C16.3852 15.2619 16.2374 15.203 16.0943 15.1342C16.0063 15.3102 15.9183 15.4862 15.7423 15.7502C15.4486 16.045 15.0075 16.1924 14.4201 16.1924H14.0681L14.2441 15.9284C14.2441 15.9284 14.3321 15.7513 14.4201 15.2222C14.4201 14.6942 14.6841 14.3411 14.8601 14.1651L14.6841 13.9891C14.4201 13.724 14.4201 13.46 14.4201 13.3709V13.1949H14.5961C15.0361 13.1949 15.3892 13.0189 15.6543 12.7549C15.7263 12.6765 15.7857 12.5875 15.8303 12.4909C15.7126 12.5492 15.5366 12.5789 15.3023 12.5789H15.1252C14.7732 12.5789 14.5092 12.4018 14.5092 12.3138L14.3321 12.1378L14.5081 12.0498C15.0361 11.6967 15.4783 11.1676 15.1252 10.1105C14.8898 9.46368 14.3321 8.87628 13.451 8.34718C13.099 8.11178 12.9219 7.90718 12.9219 7.73118C12.9219 7.37808 13.2739 7.20098 13.4499 7.11298C13.5379 7.11298 13.6259 7.02498 13.7139 6.93698C13.891 6.76098 13.7139 6.40898 13.5379 6.23298L13.3619 5.96788H13.7139C13.7139 5.90848 13.7733 5.87988 13.891 5.87988C14.155 5.87988 14.5961 5.96788 14.9492 6.31988C15.2132 6.67188 15.3012 6.93698 15.2132 7.20098H15.3892C15.8303 7.20098 16.0063 6.76098 16.0063 6.67298L16.1823 6.40898L16.3583 6.67298C16.3583 6.67298 16.7114 7.02498 16.6234 7.46498C16.5651 7.81808 16.3594 8.11178 16.0074 8.34718H15.9194C16.5354 8.61118 16.8874 9.05228 17.3285 9.49338V9.58138C17.9456 10.2865 18.7387 10.2865 18.8267 10.2865H19.0907L19.0027 10.5505C19.0027 10.5505 18.7387 11.3447 18.0347 11.3447H18.0336ZM17.5936 10.9916C17.5936 10.9916 17.7696 11.0796 18.0336 11.1676C18.6507 11.1676 18.8267 10.4636 18.8267 10.4636C18.7387 10.4636 17.8576 10.4636 17.2405 9.66938C16.8005 9.14138 16.4474 8.70028 15.8303 8.52318H15.7423V8.43518C15.7423 8.31748 15.8006 8.22948 15.9183 8.17118C16.8885 7.55408 16.2703 6.76098 16.2703 6.76098C16.2703 6.76098 16.0063 7.37698 15.3903 7.37698H15.0372C15.0372 7.37698 15.2132 6.93698 14.8612 6.49698C14.5092 6.14388 14.1561 6.14388 13.979 6.14388H13.803C13.979 6.40788 14.155 6.84898 13.891 7.11298C13.715 7.28898 13.187 7.37698 13.187 7.73008C13.187 7.84778 13.3036 7.99408 13.539 8.17008C14.331 8.61228 15.0372 9.22828 15.3892 10.1105C15.7412 11.0796 15.3012 11.7847 14.6852 12.2258C14.6852 12.2258 14.8612 12.4018 15.1252 12.4018H15.3012C15.9183 12.4018 16.1834 12.1378 16.1834 12.1378C16.1834 12.1378 16.1834 12.4898 15.8303 12.8418C15.5663 13.1949 15.2143 13.3709 14.5961 13.3709C14.5961 13.3709 14.5961 13.6349 14.8601 13.9C15.0361 14.076 15.3892 14.076 15.3892 14.076C15.3892 14.076 14.6852 14.252 14.5972 15.2222C14.5972 15.8393 14.4201 16.0153 14.4201 16.0153C16.0943 16.0153 16.0063 14.6051 16.0063 14.6051C16.0063 14.6051 16.1823 15.0451 16.6234 15.1342H17.0634C17.0634 15.1342 16.7994 14.6062 17.0634 13.9C17.2405 13.372 17.1514 12.9309 17.1514 12.9309C17.1514 12.9309 17.4165 13.2829 17.9456 13.2829C18.3856 13.2829 18.5627 12.9309 18.5627 12.9309C17.5045 12.4909 17.5936 10.9916 17.5936 10.9916Z" fill="black"/>
</g>
<mask id="mask27_516_4375" style="mask-type:luminance" maskUnits="userSpaceOnUse" x="0" y="0" width="55" height="22">
<path d="M0 0H54.3125V22H0V0Z" fill="white"/>
</mask>
<g mask="url(#mask27_516_4375)">
<path fill-rule="evenodd" clip-rule="evenodd" d="M16.4473 8.25912L16.7113 8.08312C16.7993 8.08312 16.9753 7.99512 17.2404 7.99512C17.4164 7.99512 17.5924 8.08312 17.7684 8.25912C18.2095 8.61112 18.5626 8.69912 18.5626 8.69912H18.8266L18.7386 8.96422C18.6506 9.22822 18.2986 9.40422 18.0346 9.40422C17.9158 9.40422 17.8278 9.37562 17.7695 9.31622C17.5935 9.31622 17.4175 9.14022 17.3295 8.96422C17.1524 8.78822 17.0644 8.61222 16.7113 8.43622L16.4473 8.25912ZM16.8873 8.25912C17.4164 8.52312 17.5044 9.05222 17.8575 9.14022H18.0335C18.2975 9.14022 18.4735 9.05222 18.5626 8.87622C18.5626 8.87622 18.1226 8.78822 17.6815 8.34822C17.5055 8.17112 17.3295 8.17112 17.2415 8.17112C16.9764 8.17112 16.8873 8.25912 16.8873 8.25912Z" fill="black"/>
</g>
<mask id="mask28_516_4375" style="mask-type:luminance" maskUnits="userSpaceOnUse" x="0" y="0" width="55" height="22">
<path d="M0 0H54.3125V22H0V0Z" fill="white"/>
</mask>
<g mask="url(#mask28_516_4375)">
<path fill-rule="evenodd" clip-rule="evenodd" d="M16.8882 10.9909C16.7122 9.66867 15.742 8.78757 14.6838 8.17047C14.6055 8.09846 14.5164 8.03908 14.4198 7.99447C14.7718 8.08247 15.3009 8.08247 15.654 7.73047C15.654 7.73047 15.0369 8.17047 13.8027 7.81847C14.1547 7.99447 14.8609 8.34647 15.478 8.87447C16.9762 10.1978 15.918 11.52 15.918 11.52C16.446 10.9909 16.446 10.3738 16.27 9.84467C16.6231 10.2858 16.7991 10.9029 16.7111 11.608C16.7111 12.6651 16.0951 13.6353 15.566 14.3404C15.214 14.6924 15.214 15.1335 15.214 15.1335C15.214 15.1335 15.302 14.6935 15.654 14.3404C16.27 13.5473 16.7991 12.7542 16.8882 11.608C16.9762 11.872 17.2402 12.4011 17.6802 12.6651C17.6802 12.6651 17.1522 12.3131 16.8882 10.9909Z" fill="black"/>
</g>
<mask id="mask29_516_4375" style="mask-type:luminance" maskUnits="userSpaceOnUse" x="0" y="0" width="55" height="22">
<path d="M0 0H54.3125V22H0V0Z" fill="white"/>
</mask>
<g mask="url(#mask29_516_4375)">
<path fill-rule="evenodd" clip-rule="evenodd" d="M8.86635 16.1915H8.51435C7.92695 16.1915 7.45725 16.0441 7.10415 15.7504C6.92815 15.4864 6.84015 15.3104 6.75215 15.1333C6.69275 15.1916 6.57615 15.251 6.40015 15.3093H5.87105L5.60705 15.2213L5.69505 15.0453C5.69505 15.0453 5.95905 14.6053 5.69505 13.9871C5.64378 13.7557 5.61432 13.52 5.60705 13.2831C5.42347 13.4028 5.20796 13.4642 4.98885 13.4591C4.46085 13.4591 4.19685 13.018 4.19685 13.018L4.01975 12.842L4.28375 12.754C4.90085 12.49 5.07685 11.6958 5.07685 11.3427H4.90085C4.10775 11.3427 3.93175 10.5507 3.84375 10.5507V10.2845H4.10775C4.19575 10.2845 4.98885 10.2845 5.51795 9.57943L5.60595 9.49143C5.95795 9.05143 6.31105 8.61033 6.92815 8.34523H6.84015C6.55831 8.12954 6.36945 7.81438 6.31215 7.46413C6.22415 7.02413 6.48815 6.67103 6.48815 6.67103L6.75215 6.40703L6.84015 6.67103C6.84015 6.75903 7.10415 7.19903 7.54525 7.19903H7.63325C7.63325 6.93503 7.63325 6.67103 7.98525 6.31903C8.33835 5.96593 8.77945 5.87793 8.95545 5.87793C9.13145 5.87793 9.21945 5.90653 9.21945 5.96593H9.48345L9.30745 6.22993C9.13145 6.40593 9.04345 6.75793 9.21945 6.93503C9.21945 7.02303 9.39545 7.11103 9.48345 7.11103C9.66055 7.19903 9.92455 7.37503 9.92455 7.72813C9.92455 7.90413 9.77825 8.10983 9.48455 8.34523C8.54405 8.87323 7.95555 9.46173 7.72125 10.1085C7.36925 11.1656 7.89725 11.6947 8.33835 12.0478L8.60235 12.1358L8.33835 12.3118C8.33835 12.3998 8.16235 12.5758 7.81035 12.5758H7.63435C7.39785 12.5758 7.22185 12.5472 7.10415 12.4878C7.10415 12.6055 7.13385 12.6935 7.19215 12.7518C7.45615 13.0158 7.80925 13.1929 8.33835 13.1929H8.51435V13.3689C8.51435 13.4569 8.51435 13.722 8.16235 13.986L7.98635 14.162C8.25035 14.338 8.42635 14.6911 8.51435 15.2202C8.51435 15.7482 8.60235 15.9253 8.60235 15.9253L8.86635 16.1893V16.1915ZM8.51435 15.9275C8.51435 15.9275 8.42635 15.7504 8.33835 15.2213C8.25035 14.1642 7.63435 14.0751 7.63435 14.0751C7.63435 14.0751 7.98635 13.9871 8.16235 13.8111C8.33835 13.6351 8.33835 13.3711 8.33835 13.3711C7.81035 13.3711 7.45725 13.1951 7.10415 12.842C6.84015 12.49 6.75215 12.0489 6.75215 12.0489C6.75215 12.0489 7.10415 12.4009 7.63325 12.4009H7.80925C8.16125 12.3129 8.33835 12.1369 8.33835 12.1369C7.72235 11.7849 7.28125 11.0787 7.63435 10.0216C7.98635 9.22743 8.69035 8.61143 9.39655 8.08233C9.69025 7.96463 9.83655 7.81833 9.83655 7.64233C9.83655 7.28923 9.30855 7.28923 9.13255 7.02413C8.86745 6.76013 9.04455 6.32013 9.22055 6.05503H9.04455C8.86745 6.05503 8.51435 6.14303 8.16235 6.40703C7.81035 6.84813 7.89835 7.28923 7.89835 7.28923H7.81035C7.75095 7.34753 7.69265 7.37723 7.63435 7.37723C7.01615 7.37723 6.75215 6.76013 6.75215 6.76013C6.75215 6.76013 6.13505 7.46413 7.01615 8.08233C7.19215 8.20003 7.28015 8.31663 7.28015 8.43433L7.19215 8.52233C6.48815 8.69833 6.13505 9.13943 5.78195 9.66853C5.16595 10.4616 4.28375 10.4616 4.19575 10.4616H4.10775C4.10775 10.4616 4.37175 11.0787 4.90085 11.0787H4.98885C5.25285 11.0787 5.34085 10.9907 5.34085 10.9907C5.34085 10.9907 5.51795 12.4009 4.37285 12.842C4.37285 12.842 4.63685 13.194 5.07685 13.194C5.60595 13.194 5.78195 12.842 5.78195 12.842C5.78195 12.842 5.78195 13.282 5.95795 13.8991C6.22305 14.6042 5.95795 15.0453 5.95795 15.0453C5.95795 15.0453 6.13395 15.1333 6.22305 15.1333H6.39905C6.83905 14.9573 6.92815 14.6053 6.92815 14.6053C6.92815 14.6053 6.92815 15.9275 8.51435 15.9275Z" fill="black"/>
</g>
<mask id="mask30_516_4375" style="mask-type:luminance" maskUnits="userSpaceOnUse" x="0" y="0" width="55" height="22">
<path d="M0 0H54.3125V22H0V0Z" fill="white"/>
</mask>
<g mask="url(#mask30_516_4375)">
<path fill-rule="evenodd" clip-rule="evenodd" d="M4.19553 8.96422L4.01953 8.70022H4.28353C4.37153 8.70022 4.72353 8.61222 5.07663 8.25912C5.25263 8.08312 5.45943 7.99512 5.69373 7.99512C5.95773 7.99512 6.13373 8.08312 6.13373 8.08312L6.39883 8.25912L6.13483 8.43512C5.87083 8.61112 5.69483 8.78712 5.60683 8.96422C5.42973 9.14022 5.34173 9.31622 5.07663 9.31622C5.01833 9.37562 4.96003 9.40422 4.90063 9.40422C4.54863 9.40422 4.28463 9.22822 4.19663 8.96422H4.19553ZM4.37153 8.87622C4.37153 9.05222 4.63553 9.22822 4.90063 9.22822C4.96003 9.22822 5.01833 9.19962 5.07663 9.14022C5.34063 9.05222 5.51773 8.61222 6.04683 8.25912C6.04683 8.25912 5.87083 8.17112 5.69483 8.17112C5.51773 8.17112 5.42973 8.17112 5.25373 8.34712C4.81263 8.87512 4.37153 8.87512 4.37153 8.87512V8.87622Z" fill="black"/>
</g>
<mask id="mask31_516_4375" style="mask-type:luminance" maskUnits="userSpaceOnUse" x="0" y="0" width="55" height="22">
<path d="M0 0H54.3125V22H0V0Z" fill="white"/>
</mask>
<g mask="url(#mask31_516_4375)">
<path fill-rule="evenodd" clip-rule="evenodd" d="M6.13501 11.6081C6.13501 10.903 6.31101 10.2859 6.57501 9.84479C6.39901 10.3739 6.48701 10.991 7.01611 11.5201C7.01611 11.5201 5.87101 10.1979 7.45611 8.87569C8.07431 8.34769 8.77941 7.99459 9.13141 7.81749C7.80921 8.16949 7.19211 7.72949 7.19211 7.72949C7.63321 8.08149 8.16231 8.08149 8.42631 7.99349C8.34797 8.0655 8.25891 8.12488 8.16231 8.16949C7.10411 8.78769 6.13501 9.66879 6.04701 10.991C5.78301 12.3132 5.25391 12.6652 5.25391 12.6652C5.69391 12.4012 5.95791 11.8732 5.95791 11.6081C6.04591 12.7543 6.66411 13.5474 7.28121 14.3405C7.63321 14.6925 7.72121 15.1336 7.72121 15.1336C7.72121 15.1336 7.63321 14.6936 7.36921 14.3405C6.75211 13.6354 6.22301 12.6652 6.13501 11.6081Z" fill="black"/>
</g>
<mask id="mask32_516_4375" style="mask-type:luminance" maskUnits="userSpaceOnUse" x="0" y="0" width="55" height="22">
<path d="M0 0H54.3125V22H0V0Z" fill="white"/>
</mask>
<g mask="url(#mask32_516_4375)">
<path fill-rule="evenodd" clip-rule="evenodd" d="M11.0704 8.96387V9.22787C11.1584 9.13987 11.3344 9.13987 11.3344 9.13987V9.49187C11.3344 9.49187 11.3344 9.66897 11.2464 9.75697H11.6875C11.5995 9.66897 11.5995 9.49297 11.5995 9.49297V9.14097C11.5995 9.14097 11.7755 9.14097 11.8635 9.22897V8.96387H11.0704Z" fill="black"/>
</g>
<mask id="mask33_516_4375" style="mask-type:luminance" maskUnits="userSpaceOnUse" x="0" y="0" width="55" height="22">
<path d="M0 0H54.3125V22H0V0Z" fill="white"/>
</mask>
<g mask="url(#mask33_516_4375)">
<path fill-rule="evenodd" clip-rule="evenodd" d="M10.8947 7.46528L11.0707 7.55328H11.1587V7.28928L10.7188 7.11328C10.7188 7.11328 10.7187 7.28928 10.8947 7.46528Z" fill="black"/>
</g>
<mask id="mask34_516_4375" style="mask-type:luminance" maskUnits="userSpaceOnUse" x="0" y="0" width="55" height="22">
<path d="M0 0H54.3125V22H0V0Z" fill="white"/>
</mask>
<g mask="url(#mask34_516_4375)">
<path fill-rule="evenodd" clip-rule="evenodd" d="M11.9514 7.46528C12.1274 7.28928 12.2154 7.11328 12.2154 7.11328L11.7754 7.28928V7.55328C11.7754 7.55328 11.8634 7.55328 11.9514 7.46528Z" fill="black"/>
</g>
<mask id="mask35_516_4375" style="mask-type:luminance" maskUnits="userSpaceOnUse" x="0" y="0" width="55" height="22">
<path d="M0 0H54.3125V22H0V0Z" fill="white"/>
</mask>
<g mask="url(#mask35_516_4375)">
<path fill-rule="evenodd" clip-rule="evenodd" d="M12.7462 6.49513L12.4822 8.08243L12.7462 8.25842L13.4502 8.69843C13.4502 8.69843 13.6262 8.78643 13.7142 8.78643C13.9793 9.05153 14.0673 9.31663 13.8913 9.40463C13.8033 9.14063 13.6273 8.96353 13.3633 8.96353C13.0993 8.96353 12.9222 9.05153 12.7462 9.22752C12.6868 9.28693 12.6582 9.34522 12.6582 9.40352L12.4822 9.57952H14.3324C14.2444 9.84462 14.0684 10.1977 14.0684 10.4617V14.6043C14.0684 15.5745 13.3622 16.0145 12.4811 16.0145C11.8651 16.0145 11.7771 16.0145 11.424 16.3665C11.072 16.0145 10.9829 16.0145 10.3658 16.0145C9.57273 16.0145 8.77962 15.5745 8.77962 14.6043V10.4617C8.77962 10.1977 8.69162 9.84573 8.51562 9.58063H10.3658C10.3075 9.52233 10.2778 9.46293 10.2778 9.40463L10.1018 9.22863C10.0138 9.05263 9.83782 8.96353 9.57272 8.96353C9.22072 8.96353 9.04472 9.13952 9.04472 9.40352C8.86762 9.31552 8.86762 9.05152 9.22072 8.78752L9.39672 8.69953L10.1007 8.25842L10.4538 8.08243L10.1018 6.49513V6.40712C10.1018 6.05512 10.7178 5.70312 11.424 5.70312C12.128 5.70312 12.7462 6.05512 12.7462 6.40712V6.49513ZM12.4822 6.58313L11.512 6.93623V8.43443L12.216 8.08243L12.4811 6.58423L12.4822 6.58313ZM12.3931 8.25842L11.512 8.78643H11.424L10.5418 8.25842L10.1898 8.43443L9.92582 8.69843H9.83782C10.0138 8.75783 10.1601 8.84583 10.2778 8.96353C10.2778 9.02183 10.3075 9.05153 10.3658 9.05153V9.13953L10.4538 9.22752C10.4538 9.28693 10.4835 9.31553 10.5418 9.31553C10.8058 9.75663 11.1589 10.0217 11.424 10.0217C11.776 10.0217 12.128 9.75773 12.3931 9.31663C12.4514 9.31663 12.4811 9.28693 12.4811 9.22863L12.5691 9.14063V9.05262C12.6285 9.05262 12.6571 9.02183 12.6571 8.96353C12.7748 8.84583 12.9211 8.75783 13.0982 8.69953H13.0102L12.7462 8.43553L12.3931 8.25842ZM12.3051 9.84462C12.0411 10.1086 11.7771 10.1966 11.6 10.1966H11.248C11.16 10.2857 11.16 10.3737 11.248 10.4617C11.3043 10.5766 11.3972 10.6695 11.512 10.7257V10.8137C11.512 10.8137 11.6 11.1668 11.952 11.2548C12.0114 11.1965 12.04 11.1382 12.04 11.0788C11.952 10.9028 12.04 10.7268 12.128 10.6388C12.128 10.6388 12.128 11.0788 12.3931 11.2548H12.4811V11.3428C12.4811 11.3428 12.3051 11.7839 12.7451 11.9599H12.8331V12.0479C12.8331 12.0479 12.6571 12.401 13.0091 12.577H13.8033V11.961C13.5393 11.961 13.4513 11.6959 13.3633 11.5199C13.2456 11.5199 13.1565 11.4605 13.0993 11.3439C12.9222 11.0799 13.0102 10.9028 13.0102 10.9028C13.0102 10.9028 13.0102 11.0788 13.1862 11.2548C13.2456 11.3142 13.3336 11.3428 13.4502 11.3428L13.5382 11.4308C13.5382 11.4308 13.5382 11.7839 13.8033 11.7839V10.4617C13.8616 10.2274 13.921 10.0217 13.9793 9.84573H12.3051V9.84462ZM13.8913 14.6043L13.8033 12.7541H9.04362V14.6043C9.04362 15.3094 9.57163 15.7505 10.3658 15.7505C11.0709 15.7505 11.2469 15.8385 11.424 16.0145C11.6 15.8385 11.776 15.8385 12.04 15.7505L12.216 15.3105L11.952 14.9574C11.864 15.0454 11.776 15.0454 11.6 15.0454C11.4823 15.0454 11.336 15.0157 11.16 14.9574H11.072V15.0454L10.9829 15.1334H10.8949L10.4549 14.9574L10.3669 15.1334H10.4549L10.3669 15.2214C10.3669 15.3974 10.2778 15.4854 10.1898 15.4854L10.1018 15.6614L10.0138 15.4854L9.92582 15.3974C9.8693 15.2886 9.83916 15.168 9.83782 15.0454H9.74982L9.66182 14.9574V14.8694C9.57272 14.6934 9.57272 14.5174 9.74982 14.3403L10.1898 14.1643H10.5418V13.9883L10.2778 14.0763L10.1018 13.9883C10.1018 13.9883 10.0138 13.9003 10.1018 13.8123L10.2778 13.5472L9.83782 12.9301L10.5418 13.1941H10.6298L10.7178 13.0181L10.8058 13.1061C10.8652 13.1644 10.8938 13.2238 10.8938 13.2821C11.0709 13.3701 11.424 13.5461 11.512 13.8992L11.336 13.9872L11.424 14.0752H12.04C12.0994 14.0169 12.1874 13.9872 12.304 13.9872C12.3634 13.9872 12.4514 14.0169 12.5691 14.0752H12.6571C13.0091 14.0752 13.0982 14.2512 13.2742 14.4283V14.5163C13.3622 14.6923 13.5382 14.8683 13.5382 14.8683V15.0443C13.4502 15.1334 13.3622 15.2214 13.2742 15.2214C13.2159 15.2214 13.1565 15.1917 13.0982 15.1334H13.0102V15.2214L12.9222 15.7494C13.5382 15.5734 13.8913 15.1323 13.8913 14.6043ZM10.0138 14.6043L10.1898 14.4283L10.5418 14.5163C10.5418 14.5163 10.4538 14.4283 10.5418 14.3403L10.1898 14.2523L9.83782 14.4283C9.74982 14.5163 9.74982 14.6923 9.74982 14.7803L9.83782 14.8683L10.0138 14.7803V14.6923C9.95442 14.634 9.95442 14.6043 10.0138 14.6043ZM12.9222 15.0443C12.8342 15.0443 12.7462 14.9563 12.7462 14.8683C12.6582 14.6923 12.6582 14.6043 12.6582 14.4283H12.7462C12.8342 14.4283 12.9222 14.9563 13.1862 15.0443H13.2742C13.3336 15.0443 13.3622 15.0157 13.3622 14.9563L13.1862 14.6043C13.0102 14.4283 12.9222 14.1643 12.6582 14.1643L12.5702 14.2523C12.4889 14.2049 12.3987 14.1749 12.3051 14.1643C12.1291 14.1643 12.0411 14.2523 11.9531 14.2523L11.424 14.1643C11.336 14.1643 11.248 14.0763 11.248 14.0763V13.9883C11.248 13.5472 10.8949 13.3701 10.7189 13.3701V13.2821L10.6309 13.3701L10.1898 13.1941L10.4538 13.5461L10.2778 13.8112C10.2195 13.8112 10.2195 13.8409 10.2778 13.8992L10.3658 13.9872L10.4538 13.8992H10.6298C10.6892 13.8992 10.7178 13.8706 10.7178 13.8112C10.7178 13.9872 10.5418 14.2512 10.7178 14.5163V14.6923L10.2778 14.6043L10.0138 14.9563V15.3094L10.1018 15.3974C10.1018 15.3974 10.2778 15.3094 10.2778 15.2214L10.1898 15.1334V15.0454L10.3658 14.8694L10.8938 14.9574H10.9829C10.9829 14.898 11.0126 14.8694 11.0709 14.8694H11.5989C11.864 14.8694 12.0411 14.8694 12.1291 14.7814C12.3051 15.0454 12.7451 15.1334 12.6571 15.2214L12.5691 15.7494H12.8331L12.9211 15.2214V15.0454L12.9222 15.0443ZM12.5702 15.2214C12.4822 15.2214 12.3051 15.1334 12.2171 15.0454C12.2171 15.1334 12.3931 15.2214 12.3931 15.3094L12.2171 15.7494H12.3931L12.5691 15.2214H12.5702ZM8.95453 9.84462C9.01283 10.0206 9.04253 10.2274 9.04253 10.4617V12.577H12.7451C12.5691 12.401 12.5691 12.225 12.6571 12.049C12.5977 11.9896 12.5394 11.961 12.4811 11.961C12.392 12.049 11.9509 12.401 11.7749 12.489L10.2767 12.225H10.1007C10.1007 12.2833 10.071 12.313 10.0127 12.313C9.95333 12.313 9.92473 12.2833 9.92473 12.225C9.92473 12.1656 9.89503 12.137 9.83673 12.137C9.74873 11.961 9.57162 11.785 9.66072 11.5199V11.4319C9.60132 11.4319 9.57163 11.4022 9.57163 11.3439C9.57163 11.2845 9.60133 11.2559 9.65962 11.2559L9.92362 11.3439V10.3726L10.2756 10.0206L10.5407 10.5486L10.2767 11.3428L10.5407 11.4308V11.5188H10.2767L10.3647 11.6068H11.5109C11.5989 11.6068 11.6869 11.4308 11.7749 11.3428C11.5109 11.2548 11.4229 10.9897 11.4229 10.8137C11.2469 10.7543 11.1292 10.6663 11.0709 10.5497C10.9818 10.3737 11.0709 10.2846 11.0709 10.1966C10.8877 10.1332 10.7316 10.009 10.6287 9.84462H8.95453ZM10.0127 11.5199C9.92473 11.5199 9.83673 11.5199 9.74873 11.6079C9.74873 11.7839 9.92473 11.9599 10.0127 12.0479H10.2767V11.6959L10.1887 11.6079C10.1293 11.5485 10.071 11.5199 10.0127 11.5199ZM12.304 11.3439L12.128 11.1679C11.952 11.4319 11.5989 11.6959 11.5989 11.7839H10.4538V12.0479L11.776 12.3119C11.864 12.2239 12.304 11.9599 12.3931 11.7839C12.3051 11.6959 12.304 11.5199 12.304 11.3439ZM10.1887 11.3439L10.3647 10.5497L10.2767 10.2857L10.1007 10.4617L10.0127 11.3439H10.1887ZM10.7167 8.08243L11.4229 8.43443V6.93623L10.4527 6.58423L10.7167 8.08243ZM12.568 6.31912C12.48 6.14312 12.128 5.96713 11.5109 5.96713C10.9818 5.96713 10.5407 6.14312 10.4527 6.31912L11.5109 6.75913L12.568 6.31912Z" fill="black"/>
</g>
<mask id="mask36_516_4375" style="mask-type:luminance" maskUnits="userSpaceOnUse" x="0" y="0" width="55" height="22">
<path d="M0 0H54.3125V22H0V0Z" fill="white"/>
</mask>
<g mask="url(#mask36_516_4375)">
<path fill-rule="evenodd" clip-rule="evenodd" d="M27.6408 7.37793C28.2579 7.37793 28.787 7.37793 29.3161 7.55393C30.3732 7.99393 31.1663 8.87613 31.1663 10.1983C31.1663 11.5205 30.3743 12.4896 29.3161 12.8427C28.787 13.0187 28.1699 13.0187 27.6408 13.0187H25.1735V15.134H22.792V7.37793H27.6408ZM25.1735 11.1674H27.2888C27.7288 11.1674 27.9928 11.1674 28.1699 11.0794C28.6099 10.9914 28.7859 10.5514 28.7859 10.1983C28.7859 9.84633 28.6099 9.49323 28.2579 9.31723C28.0819 9.22923 27.8179 9.22923 27.2888 9.22923H25.1735V11.1674Z" fill="white"/>
</g>
<mask id="mask37_516_4375" style="mask-type:luminance" maskUnits="userSpaceOnUse" x="0" y="0" width="55" height="22">
<path d="M0 0H54.3125V22H0V0Z" fill="white"/>
</mask>
<g mask="url(#mask37_516_4375)">
<path fill-rule="evenodd" clip-rule="evenodd" d="M33.9867 13.9878L33.5467 15.134H30.9023L33.9867 7.37793H37.4242L40.5977 15.134H37.9533L37.5133 13.9878H33.9867ZM34.6038 12.3136H36.9842L35.838 9.14013H35.662L34.6038 12.3136Z" fill="white"/>
</g>
<mask id="mask38_516_4375" style="mask-type:luminance" maskUnits="userSpaceOnUse" x="0" y="0" width="55" height="22">
<path d="M0 0H54.3125V22H0V0Z" fill="white"/>
</mask>
<g mask="url(#mask38_516_4375)">
<path d="M46.3268 7.37793L44.3886 10.9034H44.3006L42.3613 7.37793H39.6289L43.1544 13.0187V15.134H45.5337V12.8427L48.7952 7.37793H46.3268Z" fill="white"/>
</g>
</svg>
