<svg width="95" height="20" viewBox="0 0 95 20" fill="none" xmlns="http://www.w3.org/2000/svg">
<path d="M17.9828 0C12.4696 0 8.08281 4.4484 8.08281 9.9C8.08281 15.4143 12.5323 19.8 17.9828 19.8C23.4344 19.8 27.8828 15.3516 27.8828 9.9C27.9455 4.4484 23.4344 0 17.9828 0ZM17.9828 13.596C15.9786 13.596 14.2868 11.9053 14.2868 9.9C14.2868 7.8947 15.9786 6.204 17.9828 6.204C19.9881 6.204 21.6799 7.8947 21.6799 9.9C21.6779 10.8796 21.2878 11.8185 20.5951 12.5112C19.9024 13.2039 18.9624 13.594 17.9828 13.596ZM8.08281 2.882V17.2942H4.51221L0 2.882H8.08281Z" fill="#8B3FFD"/>
<path d="M91.6058 5.45158L89.4135 10.8394C89.3508 10.9021 89.3508 11.0275 89.3508 11.0902L89.2881 11.2156L89.2254 11.0902C89.2254 11.0275 89.1627 10.9032 89.1627 10.8394L86.9704 5.45158H84.15L87.8471 14.6619L86.2807 18.1709H89.1L94.3008 5.45158H91.6058ZM70.8048 5.95208C70.2563 5.548 69.6036 5.30908 68.9238 5.26348C67.6709 5.13808 66.4818 5.57698 65.6667 6.39098V5.38998H63.0971V14.6003H65.6667V9.77458C65.6667 8.70978 65.8537 8.39628 66.0418 8.14658C66.3553 7.64388 66.9196 7.39418 67.6082 7.39418C68.2979 7.39418 68.9238 7.70658 69.2373 8.20818C69.4254 8.58438 69.4881 9.08598 69.4881 9.33568V14.5992H72.0577V9.02218C72.0577 7.58118 71.6177 6.57908 70.8037 5.95318L70.8048 5.95208ZM58.2098 5.51428C56.939 5.07405 55.5473 5.14104 54.3246 5.70128C53.5106 6.07748 52.7582 6.70448 52.3204 7.51848C51.8804 8.20818 51.6934 9.08598 51.6934 10.0254C51.6934 10.9648 51.8804 11.8426 52.3204 12.5312C52.7582 13.2209 53.3225 13.8479 54.0738 14.223C54.8262 14.5992 55.7029 14.85 56.518 14.85C56.9569 14.85 57.3947 14.7873 57.8336 14.663C58.2098 14.5365 58.586 14.4111 58.9611 14.223C59.7135 13.7852 60.3405 13.2209 60.7167 12.5312C61.1545 11.8426 61.3437 10.9648 61.3437 10.0254C61.4053 7.95738 60.2162 6.20288 58.2098 5.51428ZM58.9611 10.1508C58.8995 10.9648 58.6487 11.6545 58.1471 12.0934C57.7709 12.4069 57.2077 12.5939 56.518 12.6566C55.8294 12.6566 55.3278 12.4696 54.8889 12.0934C54.3873 11.6534 54.1376 10.9648 54.0749 10.1508C54.0111 9.21028 54.3873 8.45898 55.0759 7.95738C55.4842 7.68192 55.963 7.52958 56.4553 7.51848C57.0196 7.51848 57.4585 7.70658 57.8963 7.95848C58.6487 8.39628 59.0238 9.21028 58.9611 10.1508ZM48.7487 5.95208C48.2001 5.54805 47.5475 5.30914 46.8677 5.26348H46.4299C45.4278 5.26348 44.55 5.70238 43.7987 6.57908L43.6733 6.76608H43.4225C43.243 6.47371 43.0088 6.21863 42.7328 6.01478C42.1846 5.61089 41.5324 5.37199 40.8529 5.32618C39.6627 5.20078 38.7233 5.57698 37.9082 6.45368V5.51428H35.3397V14.7246H37.9082V9.77458C37.9082 8.77248 38.0336 8.52058 38.2217 8.20818C38.5352 7.70658 39.0995 7.39418 39.7254 7.45578C40.3524 7.45578 40.9167 7.76928 41.2291 8.27088C41.4799 8.64708 41.4799 9.08488 41.4799 9.52488V14.6619H44.0495V9.71188C44.0495 8.77248 44.1738 8.45788 44.3619 8.14548C44.6754 7.64388 45.2397 7.39418 45.8667 7.39418C46.4937 7.39418 46.9942 7.70658 47.3077 8.20818C47.4947 8.52168 47.5585 8.89788 47.5585 9.14758V14.5992H50.127V8.96058C50.127 8.45898 50.0643 7.95738 49.9389 7.51958C49.6881 6.89258 49.3119 6.32828 48.7487 5.95208ZM81.7058 11.8426C81.3318 12.2188 80.4529 12.9074 79.2638 12.9701C78.2606 13.0328 77.5082 12.7193 76.945 12.1561C76.6942 11.9053 76.505 11.5291 76.3807 11.1529H83.4614V11.0902C83.5241 10.7151 83.5868 10.4016 83.5868 10.0254C83.5868 9.71188 83.5241 9.27298 83.3987 8.70978C83.0852 7.64388 82.4582 6.82878 81.6442 6.20288C80.7037 5.51428 79.827 5.32618 79.5762 5.32618C77.759 5.01268 75.691 5.82778 74.6262 7.51958C73.8738 8.70978 73.9376 9.89998 73.9376 10.2762C73.9376 10.7151 73.9992 12.0934 75.1278 13.3463C76.4434 14.7873 78.2606 14.85 78.8238 14.9127C81.3318 14.9754 83.0225 13.409 83.3987 13.0955L81.7069 11.8415L81.7058 11.8426ZM77.3201 7.95738C77.6963 7.70658 78.1352 7.51848 78.6995 7.51848C79.2627 7.51848 79.7016 7.70658 80.1405 7.95848C80.5167 8.27088 80.8291 8.64708 81.0172 9.08598H76.5061C76.5688 8.64598 76.8823 8.20818 77.3201 7.95738Z" fill="black"/>
</svg>
