<svg width="55" height="18" viewBox="0 0 55 18" fill="none" xmlns="http://www.w3.org/2000/svg">
<path d="M20.7834 0.2651L13.6202 17.336H8.932L5.3955 3.7147C5.2184 2.9183 4.9533 2.5652 4.334 2.211C3.2725 1.6808 1.5037 1.0615 0 0.7964L0.088 0.2651H7.6065C8.5789 0.2651 9.4633 0.8844 9.6404 2.0339L11.4972 11.9394L16.0963 0.3542H20.7834V0.2662V0.2651ZM39.0918 11.7623C39.0918 7.2523 32.901 6.9872 32.901 5.0413C32.901 4.422 33.5192 3.8027 34.7578 3.6256C35.3771 3.5376 37.1448 3.4496 39.0918 4.422L39.8871 0.7964C38.8256 0.4422 37.5001 0 35.7302 0C31.3962 0 28.3019 2.299 28.3019 5.6606C28.3019 8.1367 30.5129 9.4633 32.1926 10.2586C33.8734 11.055 34.4916 11.5863 34.4916 12.3816C34.4916 13.5322 33.1661 14.0624 31.8395 14.0624C29.6285 14.0624 28.3019 13.4431 27.3295 13.0009L26.5331 16.7156C27.5935 17.1578 29.4514 17.6 31.3973 17.6C35.9953 17.6 39.0027 15.301 39.0918 11.7623ZM50.589 17.336H54.6568L51.1192 0.264H47.3165C46.4321 0.264 45.7248 0.7953 45.4597 1.5026L38.8267 17.3338H43.4247L44.3091 14.7686H49.9697L50.589 17.3338V17.336ZM45.6357 11.3212L47.9347 4.9544L49.2624 11.3212H45.6357ZM27.0633 0.2651L23.4377 17.336H19.0157L22.6402 0.264H27.0622L27.0633 0.2651Z" fill="#1A1F71"/>
</svg>
