<svg width="32" height="32" viewBox="0 0 32 32" fill="none" xmlns="http://www.w3.org/2000/svg">
<g clip-path="url(#clip0_516_4603)">
<g clip-path="url(#clip1_516_4603)">
<mask id="mask0_516_4603" style="mask-type:luminance" maskUnits="userSpaceOnUse" x="0" y="0" width="32" height="32">
<path d="M32 0H0V32H32V0Z" fill="white"/>
</mask>
<g mask="url(#mask0_516_4603)">
<path fill-rule="evenodd" clip-rule="evenodd" d="M2.24942 2.24942C0 4.49885 0 8.11923 0 15.36V16.64C0 23.8808 0 27.5012 2.24942 29.7506C4.49885 32 8.11923 32 15.36 32H16.64C23.8808 32 27.5012 32 29.7506 29.7506C32 27.5012 32 23.8808 32 16.64V15.36C32 8.11923 32 4.49885 29.7506 2.24942C27.5012 0 23.8808 0 16.64 0H15.36C8.11923 0 4.49885 0 2.24942 2.24942ZM5.40007 9.7334C5.57341 18.0534 9.73338 23.0534 17.0267 23.0534H17.4401V18.2934C20.1201 18.5601 22.1466 20.5201 22.96 23.0534H26.7468C25.7068 19.2667 22.9733 17.1734 21.2666 16.3734C22.9733 15.3867 25.3733 12.9867 25.9466 9.7334H22.5065C21.7598 12.3734 19.5468 14.7734 17.4401 15V9.7334H14V18.9601C11.8667 18.4267 9.17341 15.8401 9.05341 9.7334H5.40007Z" fill="#2F80ED"/>
</g>
</g>
</g>
<defs>
<clipPath id="clip0_516_4603">
<rect width="32" height="32" fill="white"/>
</clipPath>
<clipPath id="clip1_516_4603">
<rect width="32" height="32" fill="white"/>
</clipPath>
</defs>
</svg>
