<svg xmlns="http://www.w3.org/2000/svg" width="20" height="14" fill="none" viewBox="0 0 20 14"><path fill="#495560" d="m15.083 4.9-.187-.068-1.59-2.979A3.5 3.5 0 0 0 10.22 0h-4a3.5 3.5 0 0 0-3.321 2.394L2.14 4.666A3.5 3.5 0 0 0 0 7.89v1.558a2.45 2.45 0 0 0 1.442 2.233 2.8 2.8 0 0 0 5.469.217h5.776a2.8 2.8 0 0 0 5.469-.217 2.45 2.45 0 0 0 1.442-2.233v-.475a3.5 3.5 0 0 0-2.327-3.296l-2.113-.752v-.027zM6.218 1.4H7.7v3.5H3.537l.688-2.064A2.1 2.1 0 0 1 6.218 1.4m2.881 0h1.12a2.1 2.1 0 0 1 1.853 1.111L13.346 4.9H9.1zm5.743 4.9 1.96.696a2.1 2.1 0 0 1 1.396 1.978v.475c0 .245-.084.47-.224.65a2.8 2.8 0 0 0-5.287.4H6.91a2.8 2.8 0 0 0-5.287-.4 1.05 1.05 0 0 1-.224-.65V7.89c0-.63.28-1.204.728-1.592zM2.8 11.198a1.4 1.4 0 1 1 2.8 0 1.4 1.4 0 0 1-2.8 0m12.598-1.4a1.4 1.4 0 1 1 0 2.8 1.4 1.4 0 0 1 0-2.8"/></svg>