<svg xmlns="http://www.w3.org/2000/svg" width="20" height="20" fill="none" viewBox="0 0 20 20"><g stroke="#171519" stroke-linecap="round" stroke-linejoin="round" stroke-width="1.5" clip-path="url(#a)"><path d="M8.233 8.233a2.5 2.5 0 1 0 3.534 3.534M8.941 4.233A9 9 0 0 1 10 4.167c5.833 0 8.333 5.833 8.333 5.833-.372.797-.84 1.547-1.392 2.233"/><path d="M5.508 5.509A11.27 11.27 0 0 0 1.666 10s2.5 5.833 8.333 5.833a8.1 8.1 0 0 0 4.492-1.342M1.666 1.667l16.667 16.666"/></g><defs><clipPath id="a"><path fill="#fff" d="M0 0h20v20H0z"/></clipPath></defs></svg>