<svg xmlns="http://www.w3.org/2000/svg" width="20" height="14" fill="none" viewBox="0 0 20 14"><path fill="#495560" d="M13.598 7.989c1.189.814 2.022 1.916 2.022 3.386V14h3.47v-2.625c0-1.908-3.097-3.036-5.492-3.386M12.148 7c1.918 0 3.472-1.566 3.472-3.5S14.067 0 12.149 0a3.6 3.6 0 0 0-1.154.21 5.26 5.26 0 0 1 1.154 3.29 5.26 5.26 0 0 1-1.154 3.29 3.6 3.6 0 0 0 1.154.21M6.943 7c1.918 0 3.471-1.566 3.471-3.5S8.86 0 6.943 0C5.023 0 3.47 1.566 3.47 3.5S5.024 7 6.942 7m0-5.25c.955 0 1.736.788 1.736 1.75 0 .963-.781 1.75-1.736 1.75A1.75 1.75 0 0 1 5.207 3.5c0-.962.78-1.75 1.735-1.75m0 6.125C4.625 7.875 0 9.047 0 11.375V14h13.884v-2.625c0-2.328-4.625-3.5-6.942-3.5m5.207 4.375H1.736v-.866c.173-.63 2.863-1.759 5.206-1.759s5.033 1.129 5.207 1.75z"/></svg>