<svg xmlns="http://www.w3.org/2000/svg" width="27" height="39" fill="none" viewBox="0 0 27 39"><path fill="#ffa725" fill-rule="evenodd" d="M12.972 38.999c-4.255 0-8.157-2.077-10.705-5.7-5.026-7.141.248-18.937.475-19.436.184-.404.784-.332.865.107.154.831.686 2.808 1.546 3.81-.051-2.988.357-12.007 6.684-17.663.219-.196.706-.19.768.372.164 1.52.913 6.584 3.635 7.965.267.136 2.801 3.332 3.243 6.297.444-.577 1.058-1.821 1.34-4.433a.458.458 0 0 1 .789-.262c.096.103 9.539 10.49 2.954 22.001-2.486 4.347-6.82 6.942-11.594 6.942" clip-rule="evenodd"/><path fill="#ff871e" fill-rule="evenodd" d="M13.68 35.782c2.523 0 4.836-1.231 6.347-3.378 2.979-4.234-.148-11.226-.282-11.522-.109-.24-.465-.197-.513.063-.091.493-.406 1.665-.916 2.259.03-1.772-.211-7.118-3.962-10.471-.13-.116-.419-.112-.455.22-.098.901-.542 3.903-2.155 4.722-.159.08-1.66 1.975-1.923 3.733-.263-.342-.627-1.08-.794-2.628a.271.271 0 0 0-.468-.155c-.057.061-5.654 6.219-1.751 13.042 1.474 2.577 4.043 4.115 6.873 4.115" clip-rule="evenodd"/></svg>