<svg xmlns="http://www.w3.org/2000/svg" width="16" height="16" fill="none" viewBox="0 0 16 16"><g clip-path="url(#a)"><g clip-path="url(#b)"><path fill="#3fa2f7" d="M13 6.5c0 1.434-.466 2.76-1.25 3.834l3.956 3.96a1.002 1.002 0 0 1-1.415 1.415l-3.957-3.959A6.46 6.46 0 0 1 6.5 13C2.91 13 0 10.09 0 6.5S2.91 0 6.5 0 13 2.91 13 6.5M6.5 11a4.5 4.5 0 1 0 0-9.002A4.5 4.5 0 0 0 6.5 11"/></g></g><defs><clipPath id="a"><path fill="#fff" d="M0 0h16v16H0z"/></clipPath><clipPath id="b"><path fill="#fff" d="M0 0h16v16H0z"/></clipPath></defs></svg>