<svg xmlns="http://www.w3.org/2000/svg" width="20" height="20" fill="none" viewBox="0 0 20 20"><path fill="#60b259" fill-rule="evenodd" d="M3.663 2.474C4.645 2.251 6.52 2 10 2s5.355.251 6.337.474c.841.19 1.32.899 1.41 1.659.176 1.521.26 3.052.252 4.584-.02 3.42-1.83 6.62-4.875 8.232-.546.29-1.1.548-1.622.736-.516.186-1.035.315-1.502.315s-.986-.129-1.502-.315a13 13 0 0 1-1.621-.736C3.83 15.337 2.02 12.138 2 8.717v-.21c0-1.86.143-3.435.253-4.374.089-.76.569-1.468 1.41-1.659" clip-rule="evenodd"/><path fill="#60b259" d="m12.133 8.578-2.987 2.844-1.28-1.219"/><path stroke="#fff" stroke-linecap="round" stroke-linejoin="round" stroke-width="1.6" d="m12.133 8.578-2.987 2.844-1.28-1.219"/></svg>